<?xml version="1.0" encoding="UTF-8"?>
<svg width="59px" height="58px" viewBox="0 0 59 58" version="1.1" xmlns="http://www.w3.org/2000/svg" xmlns:xlink="http://www.w3.org/1999/xlink">
    <!-- Generator: Sketch 53.2 (72643) - https://sketchapp.com -->
    <title>bankaccount_setting</title>
    <desc>Created with Sketch.</desc>
    <defs>
        <circle id="path-1" cx="29" cy="29" r="29"></circle>
    </defs>
    <g id="bankaccount_setting" stroke="none" stroke-width="1" fill="none" fill-rule="evenodd">
        <g id="icon" transform="translate(0.500000, 0.000000)">
            <mask id="mask-2" fill="white">
                <use xlink:href="#path-1"></use>
            </mask>
            <use id="Oval-5" fill="#DCEDF6" fill-rule="nonzero" xlink:href="#path-1"></use>
            <g id="museum" mask="url(#mask-2)">
                <g transform="translate(4.000000, 5.000000)">
                    <path d="M0.716535433,41.5748031 C6.1496063,49.0866142 15.0314961,54 25,54 C35.015748,54 43.8503937,49.0866142 49.2834646,41.5748031 L0.716535433,41.5748031 Z" id="Path" fill="#359685" fill-rule="nonzero"></path>
                    <rect id="Rectangle" fill="#4E4E62" fill-rule="nonzero" x="10.5905512" y="12.2362205" width="28.8188976" height="26.8818898"></rect>
                    <path d="M43.4251969,13.4173228 L6.1496063,13.4173228 C5.48818898,13.4173228 4.96850394,12.8976378 4.96850394,12.2362205 L4.96850394,12.2362205 C4.96850394,11.5748031 5.48818898,11.0551181 6.1496063,11.0551181 L43.4251969,11.0551181 C44.0866142,11.0551181 44.6062992,11.5748031 44.6062992,12.2362205 L44.6062992,12.2362205 C44.6535433,12.8976378 44.0866142,13.4173228 43.4251969,13.4173228 Z" id="Path" fill="#E6E9EE" fill-rule="nonzero"></path>
                    <polygon id="Path" fill="#FFFFFF" fill-rule="nonzero" points="24.8110236 0.188976378 6.52755906 11.0551181 43.0472441 11.0551181"></polygon>
                    <g id="Group" stroke-width="1" fill="none" fill-rule="evenodd" transform="translate(12.716535, 2.149606)">
                        <polygon id="Path" fill="#E6E9EE" fill-rule="nonzero" points="0.0472440945 7.20472441 12.0944882 0.0236220472 24.0944882 7.20472441"></polygon>
                        <path d="M24.8031496,11.2677165 C23.9527559,15.6614173 23.6692913,27.2362205 23.9055118,32.1023622 C23.9055118,32.1968504 23.9055118,32.2913386 23.9055118,32.3858268 L27.9685039,32.3858268 C27.9685039,32.2913386 27.9685039,32.1968504 27.9685039,32.1023622 C28.2047244,27.2362205 27.8740157,15.6614173 27.0708661,11.2677165 L24.8031496,11.2677165 Z" id="Path" fill="#FFFFFF" fill-rule="nonzero"></path>
                    </g>
                    <g id="Group" stroke-width="1" fill="none" fill-rule="evenodd" transform="translate(35.275591, 13.370079)">
                        <path d="M1.15748031,0.0472440945 L1.15748031,0.803149606 C1.15748031,1.27559055 1.48818898,1.60629921 1.86614173,1.60629921 L4.88976378,1.60629921 C5.31496063,1.60629921 5.5984252,1.22834646 5.5984252,0.803149606 L5.5984252,0.0472440945 L1.15748031,0.0472440945 Z" id="Path" fill="#FFFFFF" fill-rule="nonzero"></path>
                        <path d="M6.63779528,23.1968504 L6.63779528,22.3464567 C6.63779528,21.6850394 6.16535433,21.1653543 5.5511811,21.1653543 L1.15748031,21.1653543 C0.590551181,21.1653543 0.0708661417,21.6850394 0.0708661417,22.3464567 L0.0708661417,23.1968504 L6.63779528,23.1968504 Z" id="Path" fill="#FFFFFF" fill-rule="nonzero"></path>
                    </g>
                    <path d="M28.3070866,13.4173228 C27.4566929,17.8110236 27.1732283,29.3858268 27.4094488,34.2519685 C27.4094488,34.3464567 27.4094488,34.4409449 27.4094488,34.5354331 L31.4724409,34.5354331 C31.4724409,34.4409449 31.4724409,34.3464567 31.4724409,34.2519685 C31.7086614,29.3858268 31.3779528,17.8110236 30.5748031,13.4173228 L28.3070866,13.4173228 Z" id="Path" fill="#FFFFFF" fill-rule="nonzero"></path>
                    <g id="Group" stroke-width="1" fill="none" fill-rule="evenodd" transform="translate(26.062992, 13.370079)">
                        <path d="M1.11023622,0.0472440945 L1.11023622,0.803149606 C1.11023622,1.27559055 1.44094488,1.60629921 1.81889764,1.60629921 L4.84251969,1.60629921 C5.26771654,1.60629921 5.5511811,1.22834646 5.5511811,0.803149606 L5.5511811,0.0472440945 L1.11023622,0.0472440945 Z" id="Path" fill="#FFFFFF" fill-rule="nonzero"></path>
                        <path d="M6.63779528,23.1968504 L6.63779528,22.3464567 C6.63779528,21.6850394 6.16535433,21.1653543 5.5511811,21.1653543 L1.15748031,21.1653543 C0.590551181,21.1653543 0.0708661417,21.6850394 0.0708661417,22.3464567 L0.0708661417,23.1968504 L6.63779528,23.1968504 Z" id="Path" fill="#FFFFFF" fill-rule="nonzero"></path>
                    </g>
                    <path d="M19.0472441,13.4173228 C18.1968504,17.8110236 17.9133858,29.3858268 18.1496063,34.2519685 C18.1496063,34.3464567 18.1496063,34.4409449 18.1496063,34.5354331 L22.2125984,34.5354331 C22.2125984,34.4409449 22.2125984,34.3464567 22.2125984,34.2519685 C22.4488189,29.3858268 22.1181102,17.8110236 21.3149606,13.4173228 L19.0472441,13.4173228 Z" id="Path" fill="#FFFFFF" fill-rule="nonzero"></path>
                    <g id="Group" stroke-width="1" fill="none" fill-rule="evenodd" transform="translate(16.850394, 13.370079)">
                        <path d="M1.11023622,0.0472440945 L1.11023622,0.803149606 C1.11023622,1.27559055 1.44094488,1.60629921 1.81889764,1.60629921 L4.84251969,1.60629921 C5.26771654,1.60629921 5.5511811,1.22834646 5.5511811,0.803149606 L5.5511811,0.0472440945 L1.11023622,0.0472440945 Z" id="Path" fill="#FFFFFF" fill-rule="nonzero"></path>
                        <path d="M6.59055118,23.1968504 L6.59055118,22.3464567 C6.59055118,21.6850394 6.11811024,21.1653543 5.50393701,21.1653543 L1.11023622,21.1653543 C0.543307087,21.1653543 0.0236220472,21.6850394 0.0236220472,22.3464567 L0.0236220472,23.1968504 L6.59055118,23.1968504 Z" id="Path" fill="#FFFFFF" fill-rule="nonzero"></path>
                    </g>
                    <path d="M9.83464567,13.4173228 C8.98425197,17.8110236 8.7007874,29.3858268 8.93700787,34.2519685 C8.93700787,34.3464567 8.93700787,34.4409449 8.93700787,34.5354331 L13,34.5354331 C13,34.4409449 13,34.3464567 13,34.2519685 C13.2362205,29.3858268 12.9055118,17.8110236 12.1023622,13.4173228 L9.83464567,13.4173228 Z" id="Path" fill="#FFFFFF" fill-rule="nonzero"></path>
                    <g id="Group" stroke-width="1" fill="none" fill-rule="evenodd" transform="translate(7.637795, 13.370079)">
                        <path d="M1.11023622,0.0472440945 L1.11023622,0.803149606 C1.11023622,1.27559055 1.44094488,1.60629921 1.81889764,1.60629921 L4.84251969,1.60629921 C5.26771654,1.60629921 5.5511811,1.22834646 5.5511811,0.803149606 L5.5511811,0.0472440945 L1.11023622,0.0472440945 Z" id="Path" fill="#FFFFFF" fill-rule="nonzero"></path>
                        <path d="M6.59055118,23.1968504 L6.59055118,22.3464567 C6.59055118,21.6850394 6.11811024,21.1653543 5.50393701,21.1653543 L1.11023622,21.1653543 C0.543307087,21.1653543 0.0236220472,21.6850394 0.0236220472,22.3464567 L0.0236220472,23.1968504 L6.59055118,23.1968504 Z" id="Path" fill="#FFFFFF" fill-rule="nonzero"></path>
                    </g>
                    <rect id="Rectangle" fill="#E6E9EE" fill-rule="nonzero" x="4.96850394" y="36.5669291" width="40.0629921" height="5.00787402"></rect>
                    <rect id="Rectangle" fill="#ACB3BA" fill-rule="nonzero" x="14.7007874" y="39.0708661" width="20.5984252" height="2.5511811"></rect>
                    <rect id="Rectangle" fill="#CED5E0" fill-rule="nonzero" x="14.7007874" y="36.5669291" width="20.5984252" height="2.5511811"></rect>
                    <g id="Group-7" stroke-width="1" fill="none" fill-rule="evenodd" transform="translate(21.000000, 2.200000)">
                        <path d="M4,0 C6.20916667,0 8,1.79083333 8,4 C8,6.20916667 6.20916667,8 4,8 C1.79083333,8 0,6.20916667 0,4 C0,1.79083333 1.79083333,0 4,0" id="Fill-1" fill="#FFDA2D"></path>
                        <path d="M4.15234444,3.57834444 C3.40106667,3.32812222 3.34506667,3.18684444 3.34506667,3.00001111 C3.34506667,2.8674 3.61112222,2.66667778 4.01173333,2.66667778 C4.41234444,2.66667778 4.6784,2.8674 4.6784,3.00001111 C4.6784,3.24545556 4.87717778,3.44445556 5.12284444,3.44445556 C5.36851111,3.44445556 5.56728889,3.24545556 5.56728889,3.00001111 C5.56728889,2.43401111 5.09817778,1.97445556 4.44445556,1.82978889 L4.44445556,1.77778889 C4.44445556,1.53234444 4.24567778,1.33334444 4.00001111,1.33334444 C3.75434444,1.33334444 3.55556667,1.53234444 3.55556667,1.77778889 L3.55556667,1.8354 C2.91428889,1.9859 2.45617778,2.44084444 2.45617778,3.00001111 C2.45617778,3.9499 3.34201111,4.24523333 3.87112222,4.42167778 C4.6224,4.6719 4.6784,4.81317778 4.6784,5.00001111 C4.6784,5.13262222 4.41234444,5.33334444 4.01173333,5.33334444 C3.61112222,5.33334444 3.34506667,5.13262222 3.34506667,5.00001111 C3.34506667,4.75456667 3.14628889,4.55556667 2.90062222,4.55556667 C2.65495556,4.55556667 2.45617778,4.75456667 2.45617778,5.00001111 C2.45617778,5.55917778 2.91428889,6.01412222 3.55556667,6.16462222 L3.55556667,6.22223333 C3.55556667,6.46767778 3.75434444,6.66667778 4.00001111,6.66667778 C4.24567778,6.66667778 4.44445556,6.46767778 4.44445556,6.22223333 L4.44445556,6.17023333 C5.09817778,6.02556667 5.56728889,5.56601111 5.56728889,5.00001111 C5.56728889,4.05012222 4.6814,3.75478889 4.15234444,3.57834444" id="Fill-3" fill="#FFFFFF"></path>
                        <path d="M4.66666667,7.33333333 C2.4575,7.33333333 0.666666667,5.54244444 0.666666667,3.33333333 C0.666666667,2.39877778 0.987444444,1.53877778 1.5245,0.857833333 C0.595888889,1.59033333 0,2.72544444 0,4 C0,6.20911111 1.79083333,8 4,8 C5.2745,8 6.40972222,7.40422222 7.14227778,6.47561111 C6.46127778,7.01266667 5.60122222,7.33333333 4.66666667,7.33333333" id="Fill-5" fill="#FDBF00"></path>
                    </g>
                </g>
            </g>
        </g>
    </g>
</svg>