<?xml version="1.0" encoding="UTF-8"?>
<svg width="40px" height="40px" viewBox="0 0 40 40" version="1.1" xmlns="http://www.w3.org/2000/svg" xmlns:xlink="http://www.w3.org/1999/xlink">
    <!-- Generator: Sketch 51.2 (57519) - http://www.bohemiancoding.com/sketch -->
    <title>notification_image_oeder_oversea</title>
    <desc>Created with Sketch.</desc>
    <defs></defs>
    <g id="notification_image_oeder_oversea" stroke="none" stroke-width="1" fill="none" fill-rule="evenodd">
        <g id="notification_image_oeder" fill="#FFFFFF">
            <path d="M13.7765957,11.9148936 C13.5291915,11.9148936 13.340766,11.9926383 13.1661277,12.1668936 C12.9930213,12.3411489 12.9148936,12.5295745 12.9148936,12.7765957 L12.9148936,27.7537447 C12.9148936,27.999617 12.9926383,28.1868936 13.1665106,28.3611489 C13.340766,28.5350213 13.5291915,28.6131489 13.7765957,28.6131489 L25.9871064,28.6131489 C26.2314468,28.6131489 26.4194894,28.5346383 26.5964255,28.359234 C26.768,28.1868936 26.8457447,27.999617 26.8457447,27.7537447 L26.8457447,12.7765957 C26.8457447,12.5295745 26.767617,12.3411489 26.5922128,12.1645957 C26.4194894,11.9930213 26.2314468,11.9148936 25.9871064,11.9148936 L13.7765957,11.9148936 Z M25.9871064,30.5280426 L13.7765957,30.5280426 C13.0240426,30.5280426 12.3450213,30.2469362 11.8130638,29.7153617 C11.2807234,29.1837872 11,28.5051489 11,27.7537447 L11,12.7765957 C11,12.0263404 11.2803404,11.3477021 11.810766,10.8145957 C12.3450213,10.2807234 13.0240426,10 13.7765957,10 L25.9871064,10 C26.7350638,10 27.4121702,10.2799574 27.9456596,10.810383 C28.4802979,11.3477021 28.7606383,12.0263404 28.7606383,12.7765957 L28.7606383,27.7537447 C28.7606383,28.5051489 28.4799149,29.1837872 27.9479574,29.7153617 C27.4121702,30.2477021 26.7350638,30.5280426 25.9871064,30.5280426 Z" id="Fill-1"></path>
            <path d="M23.7258356,16.3427021 L15.0504645,16.3427021 C14.6767625,16.3427021 14.3734681,15.9995532 14.3734681,15.5767447 C14.3734681,15.1539362 14.6767625,14.8107872 15.0504645,14.8107872 L23.7258356,14.8107872 C24.0995376,14.8107872 24.402832,15.1539362 24.402832,15.5767447 C24.402832,15.9995532 24.0995376,16.3427021 23.7258356,16.3427021" id="Fill-4"></path>
            <path d="M20.397044,19.2543362 L15.0504645,19.2543362 C14.6767625,19.2543362 14.3734681,18.9111872 14.3734681,18.4883787 C14.3734681,18.0655702 14.6767625,17.7224213 15.0504645,17.7224213 L20.397044,17.7224213 C20.7707461,17.7224213 21.0740405,18.0655702 21.0740405,18.4883787 C21.0740405,18.9111872 20.7707461,19.2543362 20.397044,19.2543362" id="Fill-6"></path>
            <path d="M23.7258356,22.8533404 L15.0504645,22.8533404 C14.6767625,22.8533404 14.3734681,22.5101915 14.3734681,22.087383 C14.3734681,21.6645745 14.6767625,21.3214255 15.0504645,21.3214255 L23.7258356,21.3214255 C24.0995376,21.3214255 24.402832,21.6645745 24.402832,22.087383 C24.402832,22.5101915 24.0995376,22.8533404 23.7258356,22.8533404" id="Fill-8"></path>
            <path d="M20.397044,25.7649745 L15.0504645,25.7649745 C14.6767625,25.7649745 14.3734681,25.4218255 14.3734681,24.999017 C14.3734681,24.5762085 14.6767625,24.2330596 15.0504645,24.2330596 L20.397044,24.2330596 C20.7707461,24.2330596 21.0740405,24.5762085 21.0740405,24.999017 C21.0740405,25.4218255 20.7707461,25.7649745 20.397044,25.7649745" id="Fill-10"></path>
        </g>
    </g>
</svg>