<?xml version="1.0" encoding="UTF-8"?>
<svg width="40px" height="40px" viewBox="0 0 40 40" version="1.1" xmlns="http://www.w3.org/2000/svg" xmlns:xlink="http://www.w3.org/1999/xlink">
    <!-- Generator: Sketch 51.2 (57519) - http://www.bohemiancoding.com/sketch -->
    <title>notification_image_sales_oversea</title>
    <desc>Created with Sketch.</desc>
    <defs></defs>
    <g id="notification_image_sales_oversea" stroke="none" stroke-width="1" fill="none" fill-rule="evenodd">
        <g id="notification_image_sales" transform="translate(0.000000, -0.200000)" fill="#FFFFFF">
            <g id="Group-14" transform="translate(8.080000, 8.080000)">
                <path d="M2.86251353,15.6594891 L10.069055,22.8659746 L12.1321212,20.8033187 L12.0576237,18.9137004 L13.9472567,18.9878031 L23.3169826,9.61893834 L16.1096527,2.41205869 L6.74071523,11.7813176 L6.81560682,13.6721184 L4.9251855,13.5968332 L2.86251353,15.6594891 Z M9.0568361,24.5857086 L1.14355453,16.6720943 C0.585020955,16.1135651 0.573590134,15.2164497 1.11832789,14.6721104 L4.15734965,11.6331122 L4.8025998,11.659127 L4.77697899,11.0130935 L15.1226605,0.667492444 C15.6670041,0.123153087 16.5641264,0.13458382 17.12266,0.693113051 L25.0359416,8.60633312 C25.594081,9.16446819 25.6055118,10.0615836 25.0611682,10.605923 L14.7154867,20.951524 L14.0702366,20.9259034 L14.0954632,21.5715427 L11.0568356,24.6101467 C10.5120979,25.1548802 9.6149755,25.1438437 9.0568361,24.5857086 Z" id="Fill-1"></path>
                <path d="M7.89656011,15.3017001 C7.60022878,15.5980314 7.11947848,15.5980314 6.82275309,15.3017001 C6.52642176,15.0049747 6.52642176,14.5242244 6.82275309,14.227499 C7.11947848,13.9311676 7.60022878,13.9311676 7.89656011,14.227499 C8.19289145,14.5242244 8.19289145,15.0049747 7.89656011,15.3017001" id="Fill-4"></path>
                <path d="M9.71352041,17.1184633 C9.41718908,17.4151887 8.93643878,17.4151887 8.63971339,17.1184633 C8.34338205,16.822132 8.34338205,16.3409876 8.63971339,16.0446563 C8.93643878,15.7479309 9.41718908,15.7479309 9.71352041,16.0446563 C10.0098517,16.3409876 10.0098517,16.822132 9.71352041,17.1184633" id="Fill-6"></path>
                <path d="M11.4942668,18.8994068 C11.1979355,19.1957381 10.7171852,19.1957381 10.4204598,18.8994068 C10.1241285,18.6026814 10.1241285,18.1219311 10.4204598,17.8252057 C10.7171852,17.5288743 11.1979355,17.5288743 11.4942668,17.8252057 C11.7905981,18.1219311 11.7905981,18.6026814 11.4942668,18.8994068" id="Fill-8"></path>
                <path d="M15.5187379,8.03165216 C15.5187379,8.25626501 15.4312571,8.46708583 15.27324,8.625497 C14.9461722,8.95256483 14.4134063,8.95256483 14.0863384,8.625497 C13.7592706,8.29842917 13.7588766,7.76566327 14.0859444,7.43859544 C14.2494783,7.27506152 14.4646338,7.19309754 14.6797892,7.19309754 C14.8945506,7.19309754 15.1097061,7.27506152 15.27324,7.43859544 C15.4312571,7.59661255 15.5187379,7.80703932 15.5187379,8.03165216 M16.0759354,6.63590006 C15.3063408,5.86591146 14.0532376,5.86591146 13.2836431,6.63590006 C12.9108646,7.00867857 12.7055605,7.50479712 12.7055605,8.03165216 C12.7055605,8.55929532 12.9108646,9.05501981 13.2840371,9.42779832 C13.6564216,9.80057683 14.1521461,10.0058809 14.6793952,10.0058809 L14.6797892,10.0058809 C15.2070383,10.0058809 15.7027628,9.80057683 16.0755413,9.42740426 C16.8451359,8.65780972 16.8455299,7.4054946 16.0759354,6.63590006" id="Fill-10"></path>
                <path d="M15.2732006,14.7183372 C14.9465268,15.045405 14.4133669,15.045799 14.085905,14.7187312 C13.7592312,14.3912693 13.7592312,13.8588975 14.0866931,13.5314356 C14.4137609,13.2043678 14.9457387,13.2047618 15.2728065,13.5318297 C15.5998744,13.8588975 15.6002684,14.3912693 15.2732006,14.7183372 M16.0755019,12.7291343 C15.7027234,12.3563558 15.2069989,12.1510517 14.6797498,12.1506577 L14.6793558,12.1506577 C14.1521067,12.1506577 13.6563822,12.3559617 13.2839977,12.7287402 C12.9108252,13.1015187 12.7055211,13.5976373 12.7051271,14.1252804 C12.7051271,14.6529236 12.9104311,15.1486481 13.2832096,15.5214266 C13.6682039,15.9064209 14.1737798,16.098721 14.6793558,16.098721 C15.1849317,16.098327 15.6912957,15.9060268 16.07629,15.5210325 C16.4490685,15.148254 16.6543726,14.6521355 16.6543726,14.1248864 C16.6539785,13.5976373 16.4482804,13.1019128 16.0755019,12.7291343" id="Fill-12"></path>
                <path d="M19.7228993,10.6771186 C19.6161097,10.570329 19.4734608,10.5112203 19.3213546,10.5108263 L10.0369629,10.5112203 C9.88525072,10.5116144 9.74299592,10.570329 9.63660036,10.6771186 C9.52941669,10.7843023 9.46991399,10.9269511 9.46991399,11.0786633 C9.46951993,11.2303755 9.52862857,11.3730244 9.63581224,11.480208 C9.74299592,11.5869977 9.88564478,11.6457122 10.0369629,11.6457122 L10.037751,11.6457122 L19.3221427,11.6461063 C19.4742489,11.6457122 19.6165037,11.5866036 19.7228993,11.480208 C19.9443597,11.2587477 19.9443597,10.898579 19.7228993,10.6771186" id="Fill-14"></path>
            </g>
        </g>
    </g>
</svg>