<?xml version="1.0" encoding="UTF-8"?>
<svg width="40px" height="40px" viewBox="0 0 40 40" version="1.1" xmlns="http://www.w3.org/2000/svg" xmlns:xlink="http://www.w3.org/1999/xlink">
    <!-- Generator: Sketch 51.2 (57519) - http://www.bohemiancoding.com/sketch -->
    <title>notification_image_paymeny_oversea</title>
    <desc>Created with Sketch.</desc>
    <defs></defs>
    <g id="notification_image_paymeny_oversea" stroke="none" stroke-width="1" fill="none" fill-rule="evenodd">
        <g id="notification_image_paymeny" fill="#FFFFFF">
            <path d="M19.05,28.9466077 C14.7107762,28.9466077 11.1537769,25.3895262 11.1537769,21.0502021 C11.1537769,16.7104738 14.7107762,13.1542008 19.05,13.1542008 C23.3892238,13.1542008 26.9462231,16.7104738 26.9462231,21.0502021 C26.9462231,25.3895262 23.3892238,28.9466077 19.05,28.9466077 M19.05,12.3 C14.2127397,12.3 10.3,16.21283 10.3,21.0502021 C10.3,25.8879785 14.2127397,29.8 19.05,29.8 C23.8161123,29.8 27.7288519,25.8879785 27.8,21.0502021 C27.8,16.21283 23.8872603,12.3 19.05,12.3" id="Fill-1"></path>
            <path d="M18.5719088,18.3621377 L18.5151719,19.6640763 C18.4219,19.6241026 18.3449614,19.5858482 18.2757596,19.5523219 C18.1162947,19.4457254 18.0513912,19.2884096 18.0513912,19.0103132 C18.0513912,18.8156026 18.1175842,18.6329272 18.2284789,18.5216026 C18.3088561,18.4412254 18.4240491,18.3879272 18.5719088,18.3621377 M20.0234263,22.8533746 C20.0234263,23.2170061 19.9529351,23.4448132 19.808514,23.5484009 C19.7087947,23.5986904 19.6202509,23.6408132 19.492593,23.663164 L19.492593,22.1256816 C19.5493298,22.1566289 19.6009088,22.1897254 19.6511982,22.2223921 C19.7113737,22.261936 19.7668211,22.2971816 19.7986281,22.3113658 C19.9585228,22.4183921 20.0234263,22.5752781 20.0234263,22.8533746 M21.2084526,20.7730237 C20.9230491,20.5589711 20.4747421,20.3496465 19.6301368,20.0384535 L19.6301368,18.4756114 C19.7410316,18.5173044 19.8338737,18.5933833 19.9039351,18.6965412 C19.9628211,18.8143132 20.0324526,19.010743 20.0324526,19.2811026 L20.0324526,19.4960149 L21.8239614,19.4960149 L21.8239614,19.2811026 C21.8239614,18.373743 21.4844,17.702357 20.8357947,17.2978921 C20.4695842,17.0056114 20.0659789,16.9054623 19.5549175,16.8268044 L19.5549175,16.1163044 L18.5955491,16.1163044 L18.5955491,16.8319623 C18.5121632,16.8452868 18.4339351,16.854743 18.3617246,16.8641991 C18.1743211,16.8882693 18.0238825,16.9076114 17.9052509,16.96005 C17.5132509,17.065357 17.1681018,17.3675237 17.0271193,17.513664 C16.7550404,17.69505 16.5723649,17.9671289 16.4833912,18.3238833 C16.4060228,18.633357 16.3260754,18.9531465 16.3260754,19.2811026 C16.3260754,19.8145149 16.3987158,20.2598132 16.7516018,20.701243 C17.1036281,21.1418132 17.620707,21.379936 18.2886544,21.6030149 L18.5955491,21.7048833 L18.5955491,23.4749009 C18.341093,23.3966728 18.2353561,23.288357 18.1704526,23.1937956 C18.1253211,23.1035325 18.0526807,22.8834623 17.9632772,22.3470412 L17.9331895,22.1673746 L16.0995579,22.1673746 L16.0995579,22.3822868 C16.0995579,23.4396553 16.4386895,24.1884096 17.0933123,24.596743 C17.3924702,24.8206816 17.8721544,24.9797167 18.5199,25.0686904 L18.5199,26.1522781 L19.6301368,26.1522781 L19.6301368,24.9853044 C20.1093912,24.8984798 20.5310491,24.7467518 20.8813561,24.5365675 C21.6275316,24.1217868 21.9748298,23.4611465 21.9748298,22.457936 C21.9748298,21.7736553 21.7130667,21.1933921 21.2084526,20.7730237" id="Fill-5"></path>
            <path d="M29.2297956,21.036764 C29.2297956,26.65715 24.6573219,31.2296237 19.0373658,31.2296237 C13.4169798,31.2296237 8.84493596,26.65715 8.84493596,21.036764 C8.84493596,15.4168079 13.4169798,10.844764 19.0373658,10.844764 C24.6573219,10.844764 29.2297956,15.4168079 29.2297956,21.036764 M19.0373658,8.99995702 C12.4000149,8.99995702 7.00012895,14.399843 7.00012895,21.036764 C7.00012895,27.6741149 12.4000149,33.0744307 19.0373658,33.0744307 C25.5771465,33.0744307 30.9770325,27.6754044 31.0746026,21.036764 C31.0746026,14.399843 25.6747167,8.99995702 19.0373658,8.99995702" id="Fill-7"></path>
        </g>
    </g>
</svg>