<?xml version="1.0" encoding="UTF-8"?>
<svg width="25px" height="25px" viewBox="0 0 25 25" version="1.1" xmlns="http://www.w3.org/2000/svg" xmlns:xlink="http://www.w3.org/1999/xlink">
    <!-- Generator: Sketch 51.3 (57544) - http://www.bohemiancoding.com/sketch -->
    <title>drawer_notificaiton_empaty</title>
    <desc>Created with Sketch.</desc>
    <defs></defs>
    <g id="drawer_notificaiton_empaty" stroke="none" stroke-width="1" fill="none" fill-rule="evenodd">
        <g id="Group-13" transform="translate(1.000000, 0.000000)" fill="#E2E2E2">
            <path d="M4.88322041,11.0477793 C4.88122758,11.0015141 4.88122758,10.9548284 4.88122758,10.9089838 C4.88122758,8.02119785 7.17815863,5.66882571 10.0011957,5.66588156 C12.8250299,5.66882571 15.1219609,8.02119785 15.1219609,10.9089838 C15.1219609,10.9581931 15.1211638,11.0052995 15.119171,11.0578735 L15.119171,11.0847914 C15.119171,11.1133917 15.0924671,14.1126346 15.4260662,16.3165377 L15.4938222,16.6509085 C15.6062176,17.1703398 15.7038661,17.6186911 15.8557194,18.0493775 C15.9457951,18.3034152 16.2730171,19.0213661 16.4045436,19.2644684 C16.5113591,19.4638291 16.6317258,19.6644515 16.7620566,19.8621299 L3.24113193,19.8621299 C3.37425269,19.6610868 3.49182941,19.4650908 3.59824631,19.2644684 C3.72777999,19.0247308 4.05420486,18.3076211 4.14587485,18.0497981 C4.29453966,17.6321501 4.38581108,17.214502 4.50059785,16.6845559 L4.55081706,16.4565949 L4.5755281,16.3199024 C4.80191311,14.8188089 4.86090076,12.9610532 4.87604623,11.9747645 L4.90673575,11.9432201 L4.88322041,11.0477793 Z M19.7500996,20.0656965 C19.7421283,20.0547611 19.6552411,19.9365747 19.4659227,19.771282 L19.4691112,19.771282 L19.3698685,19.6901077 C19.3037067,19.6354307 18.7078517,19.1315612 18.2227979,18.2331763 C18.1271423,18.0552658 17.8525309,17.4437248 17.8098844,17.3209118 C17.7034675,17.0214502 17.6257473,16.6614233 17.5181347,16.1634421 L17.4806696,15.9922611 C17.1821443,14.0137954 17.1980869,11.2202221 17.1984855,11.1024563 L17.2000797,11.0389468 C17.2008768,10.9952052 17.201674,10.9518843 17.201674,10.9077221 C17.201674,7.45970727 14.8222399,4.43564939 11.5384615,3.70381898 L11.5384615,3.57722073 C11.5384615,2.70785666 10.8493424,2 10.0019928,2 C9.15464328,2 8.46512555,2.70785666 8.46512555,3.57722073 L8.46512555,3.70466016 C5.18294141,4.43859354 2.80470307,7.46307201 2.80470307,10.9089838 L2.80669589,11.1032974 C2.80709446,11.1318977 2.82423276,14.0007571 2.5217218,15.9888964 L2.48066959,16.1794246 C2.37425269,16.6689939 2.29732961,17.0222914 2.19210841,17.3213324 C2.15025907,17.4420424 1.8752491,18.0535834 1.77879633,18.2331763 C1.28337983,19.1517497 0.658031088,19.6682369 0.632522917,19.6896871 C0.369469908,19.9004038 0.254683141,20.0593876 0.250697489,20.0644347 C0.0868872061,20.2764132 0,20.5325538 0,20.8038358 C0,21.463745 0.523714627,22 1.1681945,22 C1.19290554,22 1.21801515,21.9983176 1.24272619,21.9966353 L18.7381427,21.9949529 L18.755281,21.9962147 C18.7811877,21.9983176 18.8082902,22 18.8333998,22 C19.4762854,22 20,21.463745 20,20.8038358 C20,20.5359186 19.9135114,20.2806191 19.7500996,20.0656965 Z" id="Fill-1"></path>
            <path d="M13,22 C13,23.6564508 11.8799936,25 10.5002001,25 C9.12040669,25 8,23.6564508 8,22 L13,22 Z" id="Fill-3"></path>
            <polygon id="Fill-5" points="15.5779245 0 17 0.740011192 15.583425 4 15 3.75601567"></polygon>
            <polygon id="Fill-8" points="20.029828 3 21 4.28592375 18.5027747 6 18 5.15835777"></polygon>
            <polygon id="Fill-10" points="20 8.27548131 22.9534287 8 23 9 20.1235151 8.81879955"></polygon>
        </g>
    </g>
</svg>