<?xml version="1.0" encoding="UTF-8"?>
<svg width="40px" height="40px" viewBox="0 0 40 40" version="1.1" xmlns="http://www.w3.org/2000/svg" xmlns:xlink="http://www.w3.org/1999/xlink">
    <!-- Generator: Sketch 51.2 (57519) - http://www.bohemiancoding.com/sketch -->
    <title>notification_image_system_oversea</title>
    <desc>Created with Sketch.</desc>
    <defs></defs>
    <g id="notification_image_system_oversea" stroke="none" stroke-width="1" fill="none" fill-rule="evenodd">
        <g id="notification_image_system" fill="#FFFFFF">
            <path d="M25.5284211,16.9502316 C25.3149474,18.3565474 24.5271579,18.4298105 22.9124211,18.4310737 L23.3477895,15.5704421 L23.5014737,15.5704421 C24.2677895,15.5704421 25.1364211,15.5704421 25.4134737,15.8925474 C25.6071579,16.1182316 25.5831579,16.5919158 25.5284211,16.9502316 M23.5014737,14.3072842 L22.8050526,14.3072842 C22.4930526,14.3072842 22.2277895,14.5350737 22.1810526,14.8437053 L21.5532632,18.9674947 C21.5250526,19.1493895 21.5781053,19.3342316 21.6981053,19.4740211 C21.8181053,19.6138105 21.9932632,19.6942316 22.1772632,19.6942316 L22.8724211,19.6942316 C24.3570526,19.6942316 26.3894737,19.6942316 26.7772632,17.1405474 C26.9166316,16.2268632 26.7835789,15.5493895 26.3717895,15.0693895 C25.7166316,14.3072842 24.5903158,14.3072842 23.5014737,14.3072842" id="Fill-1"></path>
            <path d="M29.4342316,16.7541053 C28.9441263,19.9738947 27.2140211,21.4736842 23.9900211,21.4736842 L21.6489684,21.4736842 C21.1285474,21.4736842 20.6864421,21.8534737 20.6081263,22.368 L19.6834947,28.4458947 L17.6805474,28.4458947 L20.1041263,12.5263158 L25.5247579,12.5263158 C26.6140211,12.5263158 28.0776,12.7195789 28.8683368,13.6395789 C29.4544421,14.3212632 29.6447579,15.3692632 29.4342316,16.7541053 M14.7348632,19.4597895 C14.5146526,19.3368421 14.4363368,19.0585263 14.5592842,18.8387368 C14.6826526,18.6189474 14.9605474,18.5402105 15.1803368,18.6631579 C15.4005474,18.7865263 15.4784421,19.0644211 15.3554947,19.2846316 C15.2325474,19.5044211 14.9542316,19.5831579 14.7348632,19.4597895 M30.4649684,12.2673684 C29.4123368,11.0425263 27.7500211,10.4210526 25.5247579,10.4210526 L19.1992842,10.4210526 C18.6792842,10.4210526 18.2371789,10.8008421 18.1588632,11.3153684 L17.0485474,18.6084211 C16.8708632,18.5056842 16.6704421,18.4374737 16.4510737,18.4265263 C16.3912842,18.4235789 16.3336,18.4265263 16.2754947,18.4311579 L16.3256,18.8189474 C16.3601263,18.8164211 16.3954947,18.8155789 16.4312842,18.8172632 C16.6426526,18.8282105 16.8321263,18.9098947 16.9837053,19.0353684 L16.7407579,20.632 C16.6157053,20.6833684 16.4788632,20.7111579 16.3352842,20.704 C15.9618105,20.6850526 15.6519158,20.4509474 15.5150737,20.1284211 L15.7832842,20.0311579 C16.0586526,19.9536842 16.2203368,19.6644211 16.1428632,19.3894737 L15.9319158,17.3288421 C15.8914947,17.1865263 15.7946526,17.0757895 15.6725474,17.0113684 L10.4914947,13.872 C10.2418105,13.7322105 9.92307368,13.8223158 9.78328421,14.072 L8.06581053,16.8303158 C7.92602105,17.0795789 8.01612632,17.3978947 8.26581053,17.5376842 L13.4536,20.6808421 C13.4544421,20.6816842 13.4552842,20.6816842 13.4561263,20.6821053 C13.5727579,20.7482105 13.7146526,20.7701053 13.8531789,20.7309474 L15.1491789,20.2610526 C15.3378105,20.7271579 15.7799158,21.0673684 16.3154947,21.0947368 C16.4401263,21.1010526 16.5597053,21.0842105 16.6754947,21.0585263 L15.4148632,29.3402105 C15.3689684,29.6429474 15.4573895,29.9515789 15.6569684,30.184 C15.8573895,30.4168421 16.1487579,30.5511579 16.4557053,30.5511579 L20.5879158,30.5511579 C21.1083368,30.5511579 21.5504421,30.1709474 21.6287579,29.6568421 L22.5533895,23.5789474 L23.9900211,23.5789474 C28.2649684,23.5789474 30.8670737,21.3284211 31.5154947,17.0707368 C31.8228632,15.0517895 31.4691789,13.4353684 30.4649684,12.2673684" id="Fill-3"></path>
        </g>
    </g>
</svg>