<?xml version="1.0" encoding="UTF-8"?>
<svg width="25px" height="25px" viewBox="0 0 25 25" version="1.1" xmlns="http://www.w3.org/2000/svg" xmlns:xlink="http://www.w3.org/1999/xlink">
    <!-- Generator: Sketch 51.3 (57544) - http://www.bohemiancoding.com/sketch -->
    <title>drawer_account_nosignin</title>
    <desc>Created with Sketch.</desc>
    <defs></defs>
    <g id="drawer_account_nosignin" stroke="none" stroke-width="1" fill="none" fill-rule="evenodd">
        <path d="M6.10515469,19.7270476 C6.75388849,17.9731429 7.99713805,16.5198095 9.61351308,15.6672381 L10.7204645,15.083619 L9.82925566,14.1788571 C8.96440277,13.3022857 8.48848895,12.124 8.48848895,10.8622857 C8.48848895,8.324 10.4493744,6.25885714 12.8598177,6.25885714 C15.2706374,6.25885714 17.2315229,8.324 17.2315229,10.8622857 C17.2315229,12.124 16.7556091,13.3022857 15.8907562,14.1788571 L14.9991708,15.083619 L16.1061222,15.6672381 C17.7236268,16.5198095 18.9661233,17.9731429 19.6152337,19.7274286 C17.8516416,21.4161905 15.4743316,22.4546667 12.8601942,22.4546667 C10.2464333,22.4546667 7.86912325,21.4158095 6.10515469,19.7270476 M12.8601942,2.54533333 C18.2853859,2.54533333 22.6988841,7.0112381 22.6988841,12.5 C22.6988841,14.6352381 22.0290656,16.6135238 20.8938755,18.236381 C20.1935593,16.7731429 19.1502387,15.5167619 17.8475,14.604 C18.5850911,13.5198095 18.9830665,12.2264762 18.9830665,10.8622857 C18.9830665,7.308 16.2352666,4.41619048 12.8598177,4.41619048 C9.48436875,4.41619048 6.73694535,7.308 6.73694535,10.8622857 C6.73694535,12.2264762 7.13454424,13.5198095 7.87213537,14.604 C6.56977309,15.5167619 5.52645252,16.7727619 4.82651281,18.235619 C3.69169931,16.6127619 3.02188072,14.6348571 3.02188072,12.5 C3.02188072,7.0112381 7.43537901,2.54533333 12.8601942,2.54533333 M12.8601942,0.5 C6.32089727,0.5 1,5.8832381 1,12.5 C1,19.1167619 6.32089727,24.5 12.8601942,24.5 C19.4002441,24.5 24.7203883,19.1167619 24.7203883,12.5 C24.7203883,5.8832381 19.4002441,0.5 12.8601942,0.5" id="Fill-1" fill="#E2E2E2"></path>
    </g>
</svg>