<?xml version="1.0" encoding="UTF-8"?>
<svg width="59px" height="58px" viewBox="0 0 59 58" version="1.1" xmlns="http://www.w3.org/2000/svg" xmlns:xlink="http://www.w3.org/1999/xlink">
    <!-- Generator: Sketch 53.1 (72631) - https://sketchapp.com -->
    <title>logistic_kerry</title>
    <desc>Created with Sketch.</desc>
    <defs>
        <polygon id="path-1" points="0.6864 0 59.6864 0 59.6864 58 0.6864 58"></polygon>
        <polygon id="path-3" points="0 0.2892 17.6201764 0.2892 17.6201764 19.8092 0 19.8092"></polygon>
        <polygon id="path-5" points="0 0.10424323 47.9429929 0.10424323 47.9429929 6.40445947 0 6.40445947"></polygon>
    </defs>
    <g id="logistic_kerry" stroke="none" stroke-width="1" fill="none" fill-rule="evenodd">
        <g id="icon_logistic_kerry" transform="translate(-1.000000, 0.000000)">
            <g id="Group-3">
                <mask id="mask-2" fill="white">
                    <use xlink:href="#path-1"></use>
                </mask>
                <g id="Clip-2"></g>
                <path d="M59.5,29 C59.5,45.017 46.517,58 30.5,58 C14.484,58 1.5,45.017 1.5,29 C1.5,12.984 14.484,0 30.5,0 C46.517,0 59.5,12.984 59.5,29" id="Fill-1" fill="#ED6D00" mask="url(#mask-2)"></path>
            </g>
            <g id="Group-6" transform="translate(1.000000, 1.000000)">
                <mask id="mask-4" fill="white">
                    <use xlink:href="#path-3"></use>
                </mask>
                <g id="Clip-5"></g>
                <path d="M17.62,4.5972 C14.102,4.9602 10.685,3.2892 8.81,0.2892 C6.936,3.2892 3.518,4.9602 0,4.5972 C0,4.5972 -0.156,16.4722 8.81,19.8092 C17.776,16.4722 17.62,4.5972 17.62,4.5972" id="Fill-4" fill="#EC2123" mask="url(#mask-4)"></path>
            </g>
            <path d="M2.0033,6.209 C2.0033,6.209 1.8593,16.751 9.8113,19.684 L9.8113,2.416 C8.1423,5.063 5.1143,6.533 2.0033,6.209" id="Fill-7" fill="#EE4643"></path>
            <path d="M11.3466,6.1958 L6.8566,6.1958 L5.4316,15.5588 C6.1336,16.5018 6.9876,17.3188 7.9566,17.9798 L8.6076,14.0428 L10.2656,14.0428 C12.8236,14.0428 14.4446,12.8328 14.8656,10.0618 C15.2886,7.2898 13.7716,6.1958 11.3466,6.1958 M11.7626,10.1528 C11.7146,10.9808 11.0046,11.6148 10.1766,11.5668 C10.1636,11.5668 10.1516,11.5658 10.1406,11.5638 L9.4316,11.5638 L8.9376,11.5638 L9.3866,8.6358 L10.1406,8.6358 C11.1906,8.6688 11.9966,8.7848 11.7626,10.1528" id="Fill-9" fill="#FFFFFF"></path>
            <g id="Group-10" transform="translate(7.000000, 23.000000)">
                <g id="Group-3" transform="translate(0.000000, 0.009771)">
                    <mask id="mask-6" fill="white">
                        <use xlink:href="#path-5"></use>
                    </mask>
                    <g id="Clip-2"></g>
                    <path d="M40.0646081,0.10424323 L40.304038,0.10424323 C40.8969121,0.195454632 40.7828979,0.879540143 40.7828979,1.60923135 C40.7828979,2.06528836 40.7258907,2.55554964 41.0109264,2.73797245 C41.2617577,2.90899382 41.9344418,2.82918385 42.3790974,2.82918385 L46.7230404,2.82918385 C46.7572447,2.49854252 46.7458432,2.05388694 46.7458432,1.60923135 C46.7458432,0.868138717 46.6432304,0.218257482 47.2247031,0.10424323 L47.464133,0.10424323 C47.7149644,0.172651781 47.8745843,0.332271734 47.9429929,0.571701663 L47.9429929,5.09806746 C47.8289786,5.72514584 47.3957245,6.2496114 46.5748219,6.30661853 C45.6057007,6.37502708 44.568171,6.30661853 43.4736342,6.30661853 L41.911639,6.30661853 C41.1249406,6.30661853 40.0874109,6.50044276 40.0532067,5.80495582 C40.0304038,5.04106033 41.1933492,5.26908884 41.9230404,5.26908884 L45.0812352,5.26908884 C45.5258907,5.26908884 46.2783848,5.37170166 46.552019,5.15507458 C46.8598575,4.91564466 46.7002375,4.36837625 46.7344418,3.87811496 L43.8270784,3.87811496 C42.7895487,3.87811496 41.752019,3.93512209 40.919715,3.87811496 C40.3724466,3.83250926 39.9505938,3.52467078 39.7453682,3.15982518 C39.5743468,2.82918385 39.5743468,2.49854252 39.5743468,1.91706983 C39.5857482,1.11897007 39.4261283,0.206856057 40.0646081,0.10424323 M0.524465558,0.10424323 L0.741092637,0.10424323 C1.39097387,0.206856057 1.21995249,1.1303715 1.21995249,1.97407696 L1.21995249,3.45626223 C3.34061758,2.39592969 5.46128266,1.18737862 7.61615202,0.10424323 L7.82137767,0.10424323 C8.08361045,0.206856057 8.30023753,0.355074584 8.26603325,0.71992019 C8.23182898,1.10756865 7.75296912,1.24438575 7.41092637,1.42680855 C6.41900238,1.96267553 5.32446556,2.56695107 4.38954869,3.0344095 C5.37007126,3.69569216 6.35059382,4.33417197 7.38812352,4.99545463 C7.65035629,5.16647601 8.20902613,5.40590594 8.25463183,5.77075154 C8.30023753,6.13559715 8.02660333,6.45483705 7.62755344,6.39782993 C7.44513064,6.37502708 7.22850356,6.19260428 7.05748219,6.07859002 C5.83752969,5.28049026 4.43515439,4.36837625 3.27220903,3.62728361 C2.56532067,3.96932637 1.91543943,4.35697482 1.20855107,4.69901758 C1.16294537,5.15507458 1.27695962,5.58832874 1.18574822,5.96457577 C1.03752969,6.55744988 0.102612827,6.51184418 0,5.90756865 L0,0.583103088 C0.0912114014,0.332271734 0.262232779,0.172651781 0.524465558,0.10424323" id="Fill-1" fill="#FFFFFF" mask="url(#mask-6)"></path>
                </g>
                <path d="M34.4437283,3.84230309 C35.2532295,4.25275439 36.2223506,4.7544171 37.1685549,5.19907268 C37.4765074,5.33588979 37.8526404,5.48410831 37.8526404,5.87175677 C37.8526404,6.16807981 37.6361273,6.39610831 37.4080988,6.4304266 C37.1115477,6.4760323 36.8265121,6.27080665 36.609999,6.1567924 C35.1962223,5.40429834 33.873657,4.76581853 32.4142746,3.99052162 C32.1634432,3.85370451 31.9012105,3.72828884 31.8556048,3.48885891 C31.7301891,2.77056912 32.4939705,2.86178052 33.1667686,2.86178052 L35.321638,2.86178052 C35.9031107,2.86178052 36.4503791,2.91878765 36.6554907,2.54254062 C36.8380276,2.21189929 36.7582176,1.60762375 36.4731819,1.41379952 C36.1994337,1.2199753 35.6293625,1.28838385 35.1620181,1.28838385 L30.8180751,1.28838385 C30.7837568,2.61094917 30.7952722,3.61427458 30.7952722,4.8912342 C30.7952722,5.55251686 30.9206879,6.28209406 30.3847069,6.4304266 C30.065581,6.521638 29.7349397,6.36201805 29.6209254,6.09978527 C29.5183126,5.82603705 29.5866071,5.11926271 29.5866071,4.76581853 L29.5866071,2.01807506 C29.5866071,1.23137672 29.4155857,0.387671259 30.0541796,0.273657007 C30.5102366,0.193847031 31.1257995,0.273657007 31.6731819,0.273657007 L33.2693815,0.273657007 C34.3981226,0.273657007 35.4356523,0.193847031 36.4617805,0.273657007 C36.8722318,0.307861283 37.225562,0.43327696 37.4651059,0.649904038 C38.0009729,1.10596105 38.1491914,2.33731496 37.7956333,3.0784076 C37.3282888,4.05893017 35.9714052,3.87650736 34.4437283,3.84230309 M24.3419515,3.84230309 C25.185771,4.28695867 26.097885,4.72021283 27.0328019,5.17626983 C27.3406404,5.33588979 27.7168874,5.46130546 27.7510917,5.80334822 C27.785296,6.14539097 27.5572675,6.37341948 27.329239,6.41902518 C27.0328019,6.46463088 26.7591677,6.25940523 26.5311392,6.14539097 C25.0717568,5.38149549 23.7605929,4.69740998 22.289809,3.95631734 C22.0275762,3.83090166 21.7881463,3.67128171 21.7653435,3.42045036 C21.7083363,2.72496342 22.4608304,2.8503791 23.1791202,2.8503791 L24.3306641,2.8503791 C25.1173625,2.8503791 26.2689064,2.9871962 26.5425406,2.58814632 C26.7705691,2.24610356 26.7021606,1.5848209 26.3715192,1.37959525 C26.097885,1.2199753 25.5164124,1.265581 25.0375525,1.265581 L20.7506166,1.265581 C20.7164124,2.58814632 20.7278138,3.65988029 20.7278138,4.9368399 C20.7278138,5.37009406 20.7734195,5.83755249 20.6480038,6.08838385 C20.465581,6.46463088 19.8042983,6.54444086 19.5762698,6.12258812 C19.4622556,5.89455962 19.4964599,5.26748124 19.4964599,4.81142423 L19.4964599,2.02947648 C19.4964599,1.56201805 19.4280513,0.912136817 19.5306641,0.615699762 C19.6902841,0.171044181 20.1463411,0.239452732 20.7734195,0.239452732 L23.1677188,0.239452732 C24.3078613,0.239452732 25.3225881,0.159642755 26.3715192,0.239452732 C26.7021606,0.262255582 27.0442033,0.387671259 27.2380276,0.513086936 C27.8651059,0.946341093 28.0589302,2.22330071 27.6826831,3.0328019 C27.2152247,4.07033159 25.8128494,3.87650736 24.3419515,3.84230309 M10.9111867,2.74776627 L15.7111867,2.74776627 C16.3724694,2.74776627 17.0793577,2.66795629 16.9767449,3.37484466 C16.9083363,3.83090166 16.3382651,3.78529596 15.7567924,3.78529596 L10.9111867,3.78529596 C10.945391,4.35536722 10.785771,4.98244561 11.1506166,5.19907268 C11.4470537,5.37009406 12.2451534,5.26748124 12.7468162,5.26748124 L16.9197378,5.26748124 C17.4670062,5.26748124 17.9572675,5.24467838 17.9572675,5.79194679 C17.9572675,6.51012257 16.8399278,6.31641235 16.041828,6.31641235 L12.3705691,6.31641235 C11.7662936,6.31641235 11.0594052,6.3848209 10.6261511,6.23660238 C10.2042983,6.09978527 9.86225558,5.71213682 9.75964276,5.34729121 C9.61142423,4.86843135 9.70263563,3.94491591 9.70263563,3.3064361 C9.70263563,2.70216057 9.6000228,1.79004656 9.7368399,1.265581 C9.86225558,0.76391829 10.2955097,0.307861283 10.8997853,0.250854157 C11.4470537,0.193847031 12.0399278,0.250854157 12.6214005,0.250854157 L16.9425406,0.250854157 C17.5012105,0.250854157 17.9686689,0.239452732 17.945866,0.78672114 C17.9116618,1.47080665 16.8285264,1.265581 16.0532295,1.265581 L12.5985976,1.265581 C12.0741321,1.265581 11.2646309,1.18577102 11.0366024,1.41379952 C10.8199753,1.65322945 10.945391,2.28030784 10.9111867,2.74776627" id="Fill-4" fill="#FFFFFF"></path>
                <path d="M13.2484333,11.2417596 C13.214229,11.2075553 13.1686233,11.1847525 13.134419,11.1505482 C13.1002147,11.036534 13.1230176,10.9453226 13.2826375,10.7972181 C13.670286,10.4322584 14.3087658,10.0219211 14.9244428,9.55434869 C15.414704,9.18950309 16.1329938,8.50541758 16.4180295,8.80196865 C16.6346565,9.04128456 15.7339439,9.58855297 15.2778869,9.93059572 C14.6850128,10.3752513 14.1605473,10.8542252 13.6816874,11.1392608 C13.4992646,11.2417596 13.3852504,11.2417596 13.2484333,11.2417596 M24.262324,10.1929425 C24.6043667,10.3752513 24.9690983,10.5462727 25.3454594,10.7286955 C25.470761,10.7857026 25.6189796,10.8427097 25.6417824,10.9795268 C25.6531838,11.1163439 25.5619724,11.2075553 25.470761,11.2303582 C25.3454594,11.2532751 25.2427325,11.1620637 25.1515211,11.1163439 C24.558647,10.8085055 24.0341815,10.5349853 23.4299059,10.2271468 C23.3272931,10.1701397 23.2246803,10.1131325 23.2246803,10.0104057 C23.2018774,9.72537007 23.5097159,9.7823772 23.7947515,9.7823772 L24.262324,9.7823772 C24.5814499,9.7823772 25.0489083,9.83938432 25.1515211,9.67987838 C25.2427325,9.54306128 25.2199297,9.26931306 25.0831126,9.18950309 C24.9690983,9.12109454 24.7410698,9.1440114 24.5473596,9.1440114 L22.814229,9.1440114 C22.8028276,9.67987838 22.8028276,10.1131325 22.8028276,10.6261967 C22.8028276,10.7972181 22.8256304,10.9910423 22.7686233,11.0935411 C22.7002147,11.2417596 22.4265805,11.2760779 22.3353691,11.1050565 C22.2897634,11.0137311 22.3011648,10.7630138 22.3011648,10.5691895 L22.3011648,9.44033444 C22.3011648,9.25802565 22.278362,8.98427743 22.3125663,8.87026318 C22.3809748,8.68795439 22.5633976,8.72204466 22.814229,8.72204466 L23.7833501,8.72204466 C24.2394071,8.72204466 24.6613739,8.68795439 25.0831126,8.72204466 C25.2199297,8.73344608 25.3567468,8.77905178 25.4365568,8.83605891 C25.6875021,9.00708029 25.7671981,9.53154584 25.6189796,9.86218717 C25.4251553,10.2841539 24.8550841,10.2042299 24.262324,10.1929425 M27.6484333,9.79389264 L29.6550841,9.79389264 C29.9287183,9.79389264 30.2251553,9.75957435 30.1795496,10.0561254 C30.1453454,10.2499496 29.9173169,10.2271468 29.6664855,10.2271468 L27.6484333,10.2271468 C27.6598347,10.4664627 27.5914261,10.7286955 27.7510461,10.8200209 C27.8764618,10.8883154 28.2071031,10.8542252 28.4123287,10.8542252 L30.1567468,10.8542252 C30.3847753,10.8542252 30.590115,10.8427097 30.590115,11.0707382 C30.590115,11.3672893 30.1225425,11.2873653 29.7920152,11.2873653 L28.2641102,11.2873653 C28.0132789,11.2873653 27.7168418,11.3102822 27.534419,11.2532751 C27.3519962,11.1962679 27.2151791,11.036534 27.1696874,10.877028 C27.1126803,10.6716884 27.1467705,10.2954413 27.1467705,10.0219211 C27.1467705,9.77108979 27.1011648,9.39484276 27.158172,9.16681425 C27.2151791,8.96147458 27.3977159,8.76776437 27.6484333,8.74496152 C27.8764618,8.72204466 28.1272931,8.74496152 28.3668371,8.74496152 L30.1681482,8.74496152 C30.3961767,8.74496152 30.6014024,8.74496152 30.590115,8.97299002 C30.5785995,9.25802565 30.1225425,9.17810166 29.8033026,9.17810166 L28.3668371,9.17810166 C28.150096,9.17810166 27.8080532,9.1440114 27.7168418,9.23510879 C27.614229,9.33783563 27.6712361,9.60006841 27.6484333,9.79389264 M8.97289881,9.79389264 L10.9795496,9.79389264 C11.2531838,9.79389264 11.5496209,9.75957435 11.5040152,10.0561254 C11.4698109,10.2499496 11.2417824,10.2271468 10.9909511,10.2271468 L8.97289881,10.2271468 C8.98430024,10.4664627 8.91589169,10.7286955 9.07551164,10.8200209 C9.20092732,10.8883154 9.53156865,10.8542252 9.7367943,10.8542252 L11.4812124,10.8542252 C11.7092409,10.8542252 11.9144665,10.8427097 11.9144665,11.0707382 C11.9144665,11.3672893 11.4470081,11.2873653 11.1163667,11.2873653 L9.58857577,11.2873653 C9.33774442,11.2873653 9.04130736,11.3102822 8.85888456,11.2532751 C8.67646176,11.1962679 8.53964466,11.036534 8.49403895,10.877028 C8.43703183,10.6716884 8.4712361,10.2954413 8.4712361,10.0219211 C8.4712361,9.77108979 8.4256304,9.39484276 8.48263753,9.16681425 C8.53964466,8.96147458 8.72206746,8.76776437 8.97289881,8.74496152 C9.20092732,8.72204466 9.45175867,8.74496152 9.6911886,8.74496152 L11.4926138,8.74496152 C11.7206423,8.74496152 11.9258679,8.74496152 11.9144665,8.97299002 C11.9030651,9.25802565 11.4470081,9.17810166 11.1277682,9.17810166 L9.6911886,9.17810166 C9.47456152,9.17810166 9.13251876,9.1440114 9.04130736,9.23510879 C8.92729311,9.33783563 8.98430024,9.60006841 8.97289881,9.79389264" id="Fill-6" fill="#FFFFFF"></path>
                <path d="M20.568171,9.72539287 C20.4655582,9.88501283 20.0095012,9.8280057 19.6902613,9.8280057 L18.2650831,9.8280057 L18.2650831,9.81660428 C18.2650831,9.66838575 18.2650831,9.4631601 18.2764846,9.21232874 L19.9752969,9.21232874 C20.1691211,9.21232874 20.3971496,9.18952589 20.5111639,9.25793444 C20.6251781,9.32634299 20.647981,9.58857577 20.568171,9.72539287 M20.8532067,8.91589169 C20.7733967,8.85888456 20.6365796,8.81327886 20.5111639,8.80187743 C20.0893112,8.76778717 19.6902613,8.80187743 19.2342043,8.80187743 L18.287886,8.80187743 C18.0370546,8.80187743 17.8546318,8.77907458 17.7976247,8.95009596 C17.752019,9.06411021 17.7862233,9.32634299 17.7862233,9.50887981 L17.7862233,10.614704 C17.7862233,10.7971268 17.7634204,11.0480722 17.8204276,11.1391696 C17.911639,11.310191 18.1738717,11.2761007 18.2422803,11.1277682 C18.287886,11.0251553 18.287886,10.934058 18.2764846,10.6717112 C18.2650831,10.5234926 18.2650831,10.3752741 18.2650831,10.2270556 L19.9182898,10.2499724 C20.4199525,10.2726613 20.8760095,10.2840627 21.0356295,9.93061853 C21.183848,9.58857577 21.104038,9.07551164 20.8532067,8.91589169 M36.8950119,8.77907458 C37.2028504,8.75627173 37.7273159,8.75627173 38.2859857,8.75627173 C38.6622328,8.75627173 39.4261283,8.65377292 39.4489311,8.93880855 C39.4831354,9.31494157 38.5710214,9.17812447 38.1833729,9.17812447 L37.4194774,9.17812447 C37.1572447,9.17812447 36.8380048,9.14392019 36.7467933,9.25793444 C36.6441805,9.37194869 36.6897862,9.57717435 36.7239905,9.6455829 C36.8380048,9.85092257 37.4650831,9.77099857 37.943943,9.77099857 C38.4570071,9.77099857 38.935867,9.70259002 39.2095012,9.85092257 C39.6427553,10.0902385 39.5515439,10.9225425 39.2095012,11.1163667 C38.8788599,11.2987895 38.1719715,11.1961767 37.7045131,11.1961767 L36.9292162,11.1961767 C36.6555819,11.1961767 36.1881235,11.2873881 36.2565321,10.934058 C36.2907363,10.7630366 36.5187648,10.7857254 36.8494062,10.7857254 L38.3315914,10.7857254 C38.5824228,10.7857254 38.8788599,10.8085283 38.9586698,10.694514 C39.0612827,10.5462955 38.9814727,10.3410698 38.935867,10.2840627 C38.7990499,10.1016399 38.0693587,10.1929653 37.567696,10.1929653 C37.1002375,10.1929653 36.5301663,10.238457 36.3249406,9.98762565 C35.9942993,9.57717435 36.2907363,8.96149739 36.4389549,8.87028599 C36.575772,8.80187743 36.6555819,8.80187743 36.8950119,8.77907458 M32.4256532,8.79047601 C32.767696,8.75627173 33.223753,8.76778717 33.8166271,8.76778717 C34.1928741,8.76778717 34.9567696,8.66506033 34.9909739,8.95009596 C35.0251781,9.32634299 34.135867,9.18952589 33.7254157,9.18952589 C33.2807601,9.18952589 32.4484561,9.08691306 32.3002375,9.26933587 C32.231829,9.34914584 32.231829,9.53156865 32.2660333,9.62289406 C32.3572447,9.8736114 32.9501188,9.79391544 33.5429929,9.79391544 C34.056057,9.79391544 34.6033254,9.73690831 34.8427553,9.9192171 C35.2190024,10.2156542 35.0707838,10.9681482 34.7629454,11.1277682 C34.5577197,11.2417824 34.2612827,11.2075781 34.0218527,11.2075781 L32.3914489,11.2075781 C32.1292162,11.2075781 31.7985748,11.2417824 31.7985748,11.0023525 C31.7985748,10.6831126 32.7448931,10.7971268 33.0983373,10.7971268 L33.8394299,10.7971268 C34.2498812,10.7971268 34.7059382,10.8313311 34.5463183,10.3752741 C34.4551069,10.1130413 33.8622328,10.2042527 33.3263658,10.2042527 C32.8931116,10.2042527 32.3002375,10.2726613 32.0266033,10.1130413 C31.7187648,9.93061853 31.6389549,9.25793444 31.9125891,8.96149739 C32.0038005,8.84748314 32.1064133,8.8247943 32.4256532,8.79047601 M13.1230404,8.83608171 C13.1572447,8.80187743 13.2028504,8.77907458 13.2370546,8.74487031 C13.3852732,8.72206746 13.5106888,8.73346888 13.7045131,8.84748314 C14.1947743,9.14392019 14.7306413,9.62289406 15.3463183,10.0902385 C15.8365796,10.4550841 16.7372922,11.0023525 16.3382423,11.2190936 C16.0304038,11.390115 15.3007126,10.7060295 14.8446556,10.3639867 C14.2517815,9.9192171 13.6133017,9.52016722 13.2484561,9.15532162 C13.1230404,9.02990594 13.1230404,8.93880855 13.1230404,8.83608171" id="Fill-8" fill="#FFFFFF"></path>
            </g>
        </g>
    </g>
</svg>