<?xml version="1.0" encoding="UTF-8"?>
<svg width="59px" height="58px" viewBox="0 0 59 58" version="1.1" xmlns="http://www.w3.org/2000/svg" xmlns:xlink="http://www.w3.org/1999/xlink">
    <!-- Generator: Sketch 51.3 (57544) - http://www.bohemiancoding.com/sketch -->
    <title>payment_atm</title>
    <desc>Created with Sketch.</desc>
    <defs>
        <polygon id="path-1" points="0 58 59 58 59 0 0 0"></polygon>
    </defs>
    <g id="payment_atm" stroke="none" stroke-width="1" fill="none" fill-rule="evenodd">
        <g id="icon_payment_atm">
            <g>
                <path d="M59,29 C59,45.017 46.017,58 30,58 C13.984,58 1,45.017 1,29 C1,12.984 13.984,0 30,0 C46.017,0 59,12.984 59,29" id="Fill-1" fill="#73C8CE"></path>
                <path d="M45,50.7021 L15,50.7021 C12.8,50.7021 11,48.9011 11,46.7021 L11,11.5891 C11,9.3891 12.8,7.5891 15,7.5891 L45,7.5891 C47.2,7.5891 49,9.3891 49,11.5891 L49,46.7021 C49,48.9011 47.2,50.7021 45,50.7021" id="Fill-3" fill="#E2EAED"></path>
                <mask id="mask-2" fill="white">
                    <use xlink:href="#path-1"></use>
                </mask>
                <g id="Clip-6"></g>
                <polygon id="Fill-5" fill="#324A5E" mask="url(#mask-2)" points="16.979 47.978 43.022 47.978 43.022 40 16.979 40"></polygon>
                <polygon id="Fill-7" fill="#CDD6E0" mask="url(#mask-2)" points="32.105 43.689 41.696 43.689 41.696 40.882 32.105 40.882"></polygon>
                <polygon id="Fill-8" fill="#ACB3BA" mask="url(#mask-2)" points="32.105 42.051 41.696 42.051 41.696 40.882 32.105 40.882"></polygon>
                <polygon id="Fill-9" fill="#334A5E" mask="url(#mask-2)" points="32.807 42.519 40.995 42.519 40.995 42.051 32.807 42.051"></polygon>
                <polygon id="Fill-10" fill="#F2F2F2" mask="url(#mask-2)" points="19.317 43.455 21.656 43.455 21.656 41.115 19.317 41.115"></polygon>
                <polygon id="Fill-11" fill="#F2F2F2" mask="url(#mask-2)" points="22.904 43.455 25.243 43.455 25.243 41.115 22.904 41.115"></polygon>
                <polygon id="Fill-12" fill="#F2F2F2" mask="url(#mask-2)" points="26.491 43.455 28.83 43.455 28.83 41.115 26.491 41.115"></polygon>
                <polygon id="Fill-13" fill="#61B4E4" mask="url(#mask-2)" points="19.317 47.119 21.656 47.119 21.656 44.78 19.317 44.78"></polygon>
                <polygon id="Fill-14" fill="#F2F2F2" mask="url(#mask-2)" points="22.904 47.119 25.243 47.119 25.243 44.78 22.904 44.78"></polygon>
                <polygon id="Fill-15" fill="#C9D6DD" mask="url(#mask-2)" points="26.491 47.119 28.83 47.119 28.83 44.78 26.491 44.78"></polygon>
                <path d="M40.8379,42.2852 L32.9629,42.2852 L32.2609,46.5732 C32.0269,47.7432 32.1059,48.8352 33.2749,48.8352 L40.4479,48.8352 C41.6959,48.8352 41.6959,47.7432 41.4619,46.5732 L40.8379,42.2852 Z" id="Fill-16" fill="#61B4E4" mask="url(#mask-2)"></path>
                <path d="M32.6514,48.6006 C34.7564,47.7436 38.1874,45.5596 39.6694,42.2066 L32.9634,42.2066 L32.2614,46.4966 C32.1054,47.4316 32.1054,48.2886 32.6514,48.6006" id="Fill-17" fill="#84DBFF" mask="url(#mask-2)"></path>
                <path d="M39.2793,46.8857 L39.1233,45.1697 C39.1233,44.9367 39.2793,44.7807 39.4343,44.7807 C39.6693,44.7807 39.8243,44.9367 39.8243,45.1697 L39.9803,46.8857 C39.9803,47.1187 39.8243,47.3537 39.5913,47.3537 C39.5123,47.2757 39.2793,47.1187 39.2793,46.8857" id="Fill-18" fill="#FFFFFF" mask="url(#mask-2)"></path>
                <path d="M35.1465,43.6104 C35.6925,43.6104 36.0825,44.0004 36.0825,44.5464 C36.0825,45.0914 35.6145,45.5594 34.9905,45.5594 C34.4445,45.5594 33.9765,45.0914 34.0545,44.5464 C34.1325,44.0004 34.6785,43.6104 35.1465,43.6104" id="Fill-19" fill="#FF7058" mask="url(#mask-2)"></path>
                <path d="M35.0684,45.5596 C34.7564,45.5596 34.4444,45.4046 34.2884,45.1696 C34.1324,45.3266 34.0544,45.5596 34.0544,45.7936 C33.9764,46.4176 34.4444,46.8856 35.0684,46.8856 C35.6924,46.8856 36.1604,46.4176 36.1604,45.7936 C36.1604,45.5596 36.0824,45.3266 36.0044,45.1696 C35.6924,45.4046 35.3804,45.5596 35.0684,45.5596" id="Fill-20" fill="#FFD15C" mask="url(#mask-2)"></path>
                <polygon id="Fill-21" fill="#231F20" mask="url(#mask-2)" points="32.807 42.597 40.995 42.597 40.995 42.285 32.807 42.285"></polygon>
                <polygon id="Fill-22" fill="#CDD6E0" mask="url(#mask-2)" points="12 37.0254 12 11.2634 14.813 13.9634 14.813 34.3254"></polygon>
                <polygon id="Fill-23" fill="#ACB3BA" mask="url(#mask-2)" points="48 37.0254 48 11.2634 45.187 13.9634 45.187 34.3254"></polygon>
                <polygon id="Fill-24" fill="#CDD6E0" mask="url(#mask-2)" points="14.8125 13.9629 11.9995 11.2629 48.0005 11.2629 45.1875 13.9629"></polygon>
                <polygon id="Fill-25" fill="#ACB3BA" mask="url(#mask-2)" points="45.1875 34.3252 48.0005 37.0252 11.9995 37.0252 14.8125 34.3252"></polygon>
                <polygon id="Fill-26" fill="#FFFFFF" mask="url(#mask-2)" points="15.5 33.5 44.5 33.5 44.5 14.5 15.5 14.5"></polygon>
                <path d="M22.0156,25.0244 L20.7856,21.4414 L20.7576,21.4414 L19.4866,25.0244 L22.0156,25.0244 Z M21.8926,19.0364 L25.5426,28.7974 L23.3146,28.7974 L22.5766,26.6244 L18.9266,26.6244 L18.1606,28.7974 L15.9996,28.7974 L19.6916,19.0364 L21.8926,19.0364 Z" id="Fill-27" fill="#008AE5" mask="url(#mask-2)"></path>
                <polygon id="Fill-28" fill="#008AE5" mask="url(#mask-2)" points="24.3677 20.8408 24.3677 19.0358 32.3657 19.0358 32.3657 20.8408 29.4397 20.8408 29.4397 28.7978 27.2927 28.7978 27.2927 20.8408"></polygon>
                <polygon id="Fill-29" fill="#008AE5" mask="url(#mask-2)" points="36.5078 19.0361 38.7908 25.7481 38.8188 25.7481 40.9788 19.0361 43.9998 19.0361 43.9998 28.7981 41.9898 28.7981 41.9898 21.8801 41.9628 21.8801 39.5708 28.7981 37.9158 28.7981 35.5238 21.9481 35.4958 21.9481 35.4958 28.7981 33.4868 28.7981 33.4868 19.0361"></polygon>
                <path d="M17.3999,7.4644 C13.9259,7.8224 10.5509,6.1734 8.6999,3.2114 C6.8499,6.1734 3.4739,7.8224 -0.0001,7.4644 C-0.0001,7.4644 -0.1541,19.1914 8.6999,22.4864 C17.5539,19.1914 17.3999,7.4644 17.3999,7.4644" id="Fill-30" fill="#EC2123" mask="url(#mask-2)"></path>
                <path d="M0.9907,8.0688 C0.9907,8.0688 0.8487,18.4788 8.7007,21.3748 L8.7007,4.3228 C7.0527,6.9368 4.0637,8.3888 0.9907,8.0688" id="Fill-31" fill="#EE4643" mask="url(#mask-2)"></path>
                <path d="M10.2173,8.0562 L5.7833,8.0562 L4.3763,17.3022 C5.0693,18.2322 5.9123,19.0392 6.8693,19.6932 L7.5123,15.8052 L9.1503,15.8052 C11.6753,15.8052 13.2763,14.6102 13.6923,11.8732 C14.1103,9.1362 12.6123,8.0562 10.2173,8.0562 M10.6283,11.9632 C10.5803,12.7812 9.8793,13.4072 9.0613,13.3592 C9.0493,13.3592 9.0373,13.3582 9.0273,13.3572 L8.3263,13.3572 L7.8383,13.3572 L8.2813,10.4652 L9.0273,10.4652 C10.0633,10.4972 10.8603,10.6122 10.6283,11.9632" id="Fill-32" fill="#FFFFFF" mask="url(#mask-2)"></path>
            </g>
        </g>
    </g>
</svg>