<?xml version="1.0" encoding="UTF-8"?>
<svg width="80px" height="16px" viewBox="0 0 80 16" version="1.1" xmlns="http://www.w3.org/2000/svg" xmlns:xlink="http://www.w3.org/1999/xlink">
    <!-- Generator: Sketch 51.3 (57544) - http://www.bohemiancoding.com/sketch -->
    <title>icon_pchomepay</title>
    <desc>Created with Sketch.</desc>
    <defs></defs>
    <g id="icon_pchomepay" stroke="none" stroke-width="1" fill="none" fill-rule="evenodd">
        <g id="icon_pcpay">
            <g>
                <path d="M17.8665333,4.13333333 L18.3998667,0.666666667 C17.8665333,0.4 17.1998667,0.266666667 16.6665333,0.133333333 L16.2665333,2.93333333 C16.9332,3.06666667 17.4665333,3.46666667 17.8665333,4.13333333" id="Fill-1" fill="#0090EB"></path>
                <path d="M0,11.7336 L2.8,11.7336 L3.33333333,7.86693333 L4.93333333,7.86693333 C7.46666667,7.86693333 8.93333333,6.66693333 9.46666667,3.86693333 C9.86666667,1.06693333 8.4,0.000266666667 6,0.000266666667 L1.6,0.000266666667 L0,11.7336 Z M4.26666667,2.5336 L4.8,2.5336 C5.86666667,2.5336 6.8,2.5336 6.66666667,4.00026667 C6.4,5.46693333 5.46666667,5.46693333 4.4,5.46693333 L3.86666667,5.46693333 L4.26666667,2.5336 Z" id="Fill-3" fill="#01459A"></path>
                <path d="M21.3333333,0.666533333 L20.6666667,5.46653333 C21.2,4.79986667 22,4.39986667 22.8,4.39986667 C24.4,4.39986667 24.9333333,5.46653333 24.6666667,7.19986667 L24.1333333,11.1998667 L22,11.1998667 L22.5333333,7.86653333 C22.6666667,7.06653333 22.6666667,6.26653333 21.7333333,6.26653333 C20.8,6.26653333 20.5333333,7.06653333 20.2666667,7.86653333 L19.7333333,11.1998667 L17.6,11.1998667 L19.2,0.666533333 L21.3333333,0.666533333 Z" id="Fill-5" fill="#0090EB"></path>
                <path d="M29.6002667,4.53306667 C27.4669333,4.53306667 25.7336,5.99973333 25.3336,7.99973333 C25.0669333,10.2664 26.5336,11.4664 28.5336,11.4664 C30.6669333,11.4664 32.4002667,10.0010667 32.8002667,7.99973333 C33.0669333,5.73306667 31.6002667,4.53306667 29.6002667,4.53306667 M29.3336,6.53306667 C30.0002667,6.53306667 30.5336,7.0664 30.5336,7.59973333 L30.5336,7.99973333 C30.4002667,8.79973333 29.7336,9.4664 28.9336,9.4664 C28.2669333,9.4664 27.7336,9.0664 27.7336,8.39973333 L27.7336,7.99973333 C27.7336,7.19973333 28.4002667,6.53306667 29.3336,6.53306667" id="Fill-7" fill="#0090EB"></path>
                <path d="M36,5.60013333 C36.5333333,4.93346667 37.3333333,4.53346667 38.1333333,4.53346667 C38.9333333,4.40013333 39.7333333,4.93346667 40,5.73346667 C40.5333333,4.93346667 41.3333333,4.53346667 42.2666667,4.53346667 C43.8666667,4.53346667 44.2666667,5.60013333 44,7.0668 L43.3333333,11.2001333 L41.2,11.2001333 L41.6,8.13346667 C41.7333333,7.4668 41.8666667,6.40013333 40.9333333,6.40013333 C40,6.40013333 39.7333333,7.4668 39.6,8.13346667 L39.2,11.2001333 L37.0666667,11.2001333 L37.4666667,8.13346667 C37.6,7.4668 37.7333333,6.2668 36.8,6.2668 C35.8666667,6.2668 35.7333333,7.4668 35.6,8.13346667 L35.2,11.2001333 L33.0666667,11.2001333 L34,4.6668 L36.1333333,4.6668 L36,5.60013333 Z" id="Fill-9" fill="#0090EB"></path>
                <path d="M51.4661333,8.13333333 C51.7328,5.86666667 50.7994667,4.53333333 48.6661333,4.53333333 C46.6661333,4.53333333 44.9341333,6 44.7994667,8 C44.3994667,10.2666667 45.8674667,11.4666667 47.8674667,11.4666667 C49.3328,11.4666667 50.7994667,10.5333333 51.3328,9.2 L49.2008,9.2 C48.9341333,9.6 48.5341333,9.86666667 47.9994667,9.73333333 C47.0661333,9.73333333 46.6661333,9.2 46.7994667,8.26666667 L51.3328,8.26666667 L51.4661333,8.13333333 Z M47.0661333,7.06666667 C47.3328,6.4 47.8674667,6 48.5341333,6 C49.0661333,6 49.6008,6.4 49.6008,6.93333333 L47.0661333,6.93333333 L47.0661333,7.06666667 Z" id="Fill-11" fill="#0090EB"></path>
                <path d="M17.3333333,7.8664 C16.8,8.39973333 16,8.79973333 15.3333333,8.93306667 L14.9333333,11.7330667 C15.6,11.5997333 16.2666667,11.4664 16.9333333,11.1997333 L17.3333333,7.8664 Z" id="Fill-13" fill="#0090EB"></path>
                <path d="M14.8001333,11.7336 L15.2001333,8.93226667 L14.8001333,8.93226667 C13.0668,8.93226667 12.1334667,7.7336 12.4001333,5.86693333 C12.5334667,4.1336 14.0001333,2.9336 15.6001333,2.80026667 L16.1334667,2.80026667 L16.5334667,0.000266666667 L15.8668,0.000266666667 C14.2668,0.000266666667 12.8001333,0.666933333 11.6001333,1.7336 C10.4001333,2.80026667 9.73346667,4.26693333 9.4668,5.7336 C9.20013333,7.20026667 9.60013333,8.80026667 10.5334667,10.0002667 C11.8668,11.3336 13.3334667,12.0002667 14.8001333,11.7336" id="Fill-15" fill="#01459A"></path>
                <path d="M62.1328,3.8664 C61.9994667,4.39973333 61.8674667,4.93306667 61.6008,5.4664 C61.3328,5.8664 61.0661333,6.39973333 60.6661333,6.6664 C60.3994667,6.93306667 60.1328,7.0664 59.8674667,7.19973333 L59.0661333,7.59973333 C58.7994667,7.73306667 58.3994667,7.8664 58.1328,7.8664 C57.7328,7.99973333 57.3328,7.99973333 56.9341333,7.99973333 L55.4661333,7.99973333 L54.9341333,11.8664 L51.9994667,11.8664 L53.8674667,0.2664 L58.3994667,0.2664 C58.9341333,0.2664 59.6008,0.2664 60.1328,0.399733333 C60.5341333,0.533066667 60.9341333,0.6664 61.3328,0.933066667 C61.7328,1.19973333 61.9994667,1.59973333 62.1328,2.13306667 C62.1328,2.6664 62.2674667,3.19973333 62.1328,3.8664 M59.0661333,3.8664 C59.0661333,3.59973333 59.0661333,3.33306667 58.9341333,3.0664 C58.7994667,2.79973333 58.6661333,2.6664 58.3994667,2.53306667 C58.1328,2.39973333 57.8674667,2.39973333 57.6008,2.2664 L56.5341333,2.2664 L56.1328,2.2664 L55.6008,5.73306667 L56.5341333,5.73306667 C56.7994667,5.73306667 56.9341333,5.73306667 57.2008,5.59973333 C57.3328,5.59973333 57.6008,5.4664 57.7328,5.4664 C57.8674667,5.4664 57.9994667,5.33306667 58.1328,5.19973333 C58.3994667,5.0664 58.5341333,4.79973333 58.6661333,4.53306667 C58.9341333,4.53306667 59.0661333,4.13306667 59.0661333,3.8664" id="Fill-17" fill="#8FC31F"></path>
                <path d="M66.6666667,10.8 L66.1333333,11.2 C65.8666667,11.3333333 65.7333333,11.4666667 65.4666667,11.6 C65.2,11.7333333 64.9333333,11.8666667 64.6666667,11.8666667 C64.4,12 64,12 63.7333333,12 C63.0666667,12 62.4,11.7333333 61.8666667,11.2 C61.4666667,10.6666667 61.2,9.86666667 61.4666667,9.2 C61.6,8.66666667 61.7333333,8.13333333 62.1333333,7.6 C62.5333333,7.2 62.9333333,6.8 63.4666667,6.66666667 C64,6.4 64.6666667,6.26666667 65.3333333,6.13333333 C66,6 66.8,6 67.6,5.86666667 C67.7333333,5.46666667 67.6,5.06666667 67.2,4.8 C66.6666667,4.53333333 66.1333333,4.53333333 65.6,4.53333333 C65.2,4.53333333 64.8,4.66666667 64.4,4.66666667 C64,4.8 63.4666667,4.93333333 63.0666667,5.06666667 L62.8,5.06666667 L63.2,2.93333333 C63.4666667,2.8 63.8666667,2.8 64.5333333,2.66666667 C65.2,2.53333333 65.7333333,2.53333333 66.4,2.53333333 C67.8666667,2.53333333 68.9333333,2.8 69.6,3.33333333 C70.2666667,3.86666667 70.5333333,4.8 70.2666667,5.6 L69.3333333,11.6 L66.5333333,11.6 L66.6666667,10.8 Z M66.9333333,9.46666667 L67.2,7.6 L66,7.73333333 C65.7333333,7.73333333 65.4666667,7.86666667 65.0666667,7.86666667 C64.8,8 64.6666667,8.13333333 64.4,8.26666667 C64.2666667,8.4 64.1333333,8.66666667 64.1333333,8.93333333 C64.1333333,9.33333333 64.1333333,9.6 64.2666667,9.73333333 C64.5333333,9.86666667 64.9333333,10 65.2,10 C65.4666667,10 65.7333333,9.86666667 66,9.86666667 C66.4,9.86666667 66.6666667,9.73333333 66.9333333,9.46666667 Z" id="Fill-19" fill="#8FC31F"></path>
                <polygon id="Fill-21" fill="#8FC31F" points="79.9088 3.04666667 73.6421333 15.0466667 70.7088 15.0466667 72.5754667 11.58 70.7088 3.04666667 73.5088 3.04666667 74.4421333 8.51333333 77.1088 3.04666667"></polygon>
            </g>
        </g>
    </g>
</svg>