<?xml version="1.0" encoding="utf-8"?>
<!-- Generator: Adobe Illustrator 23.0.4, SVG Export Plug-In . SVG Version: 6.00 Build 0)  -->
<svg version="1.1" id="圖層_1" xmlns="http://www.w3.org/2000/svg" xmlns:xlink="http://www.w3.org/1999/xlink" x="0px" y="0px"
	 viewBox="0 0 20 14" style="enable-background:new 0 0 20 14;" xml:space="preserve">
<style type="text/css">
	.st0{fill:#FF3D00;}
	.st1{fill:#311B92;}
	.st2{fill:#FFFFFF;}
</style>
<title>icon-flag-taiwan</title>
<desc>Created with Sketch.</desc>
<g id="icon-flag-taiwan">
	<g>
		<rect id="Rectangle" class="st0" width="20" height="14"/>
		<rect class="st1" width="10" height="7.3"/>
		<polygon id="Path" class="st2" points="6.4,4 7.7,3.6 6.4,3.3 7.4,2.3 6,2.6 6.4,1.3 5.4,2.3 5,0.9 4.6,2.3 3.6,1.3 4,2.6 
			2.6,2.3 3.6,3.3 2.3,3.6 3.6,4 2.6,5 4,4.6 3.6,6 4.6,5 5,6.4 5.4,5 6.4,6 6,4.6 7.4,5 		"/>
		<circle id="Oval" class="st1" cx="5" cy="3.6" r="1.4"/>
		<circle class="st2" cx="5" cy="3.6" r="1"/>
	</g>
</g>
</svg>
