<?xml version="1.0" encoding="UTF-8"?>
<svg width="59px" height="58px" viewBox="0 0 59 58" version="1.1" xmlns="http://www.w3.org/2000/svg" xmlns:xlink="http://www.w3.org/1999/xlink">
    <!-- Generator: Sketch 51.3 (57544) - http://www.bohemiancoding.com/sketch -->
    <title>payment_counter</title>
    <desc>Created with Sketch.</desc>
    <defs>
        <polygon id="path-1" points="0.6864 0 58.686 0 58.686 58 0.6864 58"></polygon>
        <polygon id="path-3" points="0 0.2892 17.6201764 0.2892 17.6201764 19.8092 0 19.8092"></polygon>
        <polygon id="path-5" points="0 58 58.686 58 58.686 0 0 0"></polygon>
    </defs>
    <g id="payment_counter" stroke="none" stroke-width="1" fill="none" fill-rule="evenodd">
        <g id="icon_payment_counter">
            <g>
                <g id="Group-3">
                    <mask id="mask-2" fill="white">
                        <use xlink:href="#path-1"></use>
                    </mask>
                    <g id="Clip-2"></g>
                    <path d="M58.6864,29 C58.6864,45.017 45.7034,58 29.6864,58 C13.6704,58 0.6864,45.017 0.6864,29 C0.6864,12.984 13.6704,0 29.6864,0 C45.7034,0 58.6864,12.984 58.6864,29" id="Fill-1" fill="#85CBB3" mask="url(#mask-2)"></path>
                </g>
                <g id="Group-6" transform="translate(0.000000, 1.000000)">
                    <mask id="mask-4" fill="white">
                        <use xlink:href="#path-3"></use>
                    </mask>
                    <g id="Clip-5"></g>
                    <path d="M17.62,4.5972 C14.102,4.9602 10.685,3.2892 8.81,0.2892 C6.936,3.2892 3.518,4.9602 0,4.5972 C0,4.5972 -0.156,16.4722 8.81,19.8092 C17.776,16.4722 17.62,4.5972 17.62,4.5972" id="Fill-4" fill="#EC2123" mask="url(#mask-4)"></path>
                </g>
                <path d="M1.0033,6.209 C1.0033,6.209 0.8593,16.751 8.8113,19.684 L8.8113,2.416 C7.1423,5.063 4.1143,6.533 1.0033,6.209" id="Fill-7" fill="#EE4643"></path>
                <path d="M10.3466,6.1958 L5.8566,6.1958 L4.4316,15.5588 C5.1336,16.5018 5.9876,17.3188 6.9566,17.9798 L7.6076,14.0428 L9.2656,14.0428 C11.8236,14.0428 13.4446,12.8328 13.8656,10.0618 C14.2886,7.2898 12.7716,6.1958 10.3466,6.1958 M10.7626,10.1528 C10.7146,10.9808 10.0046,11.6148 9.1766,11.5668 C9.1636,11.5668 9.1516,11.5658 9.1406,11.5638 L8.4316,11.5638 L7.9376,11.5638 L8.3866,8.6358 L9.1406,8.6358 C10.1906,8.6688 10.9966,8.7848 10.7626,10.1528" id="Fill-9" fill="#FFFFFF"></path>
                <mask id="mask-6" fill="white">
                    <use xlink:href="#path-5"></use>
                </mask>
                <g id="Clip-12"></g>
                <polygon id="Fill-11" fill="#F7D1C1" mask="url(#mask-6)" points="32.02 31.519 37.775 31.519 37.775 24.013 32.02 24.013"></polygon>
                <path d="M37.8271,27.0942 L34.9351,30.0892 L31.9681,27.0932 C25.7441,27.2282 23.1651,29.8042 20.5351,39.0242 L49.2621,39.0242 C47.3141,30.2902 44.0901,27.2542 37.8271,27.0942" id="Fill-13" fill="#008AE5" mask="url(#mask-6)"></path>
                <polygon id="Fill-14" fill="#005CB9" mask="url(#mask-6)" points="31.996 26.4932 30.148 27.2772 33.586 32.0022 34.901 30.0252"></polygon>
                <polygon id="Fill-15" fill="#005CB9" mask="url(#mask-6)" points="37.7353 26.5146 39.6483 27.2776 36.2103 32.0016 34.8953 30.0256"></polygon>
                <path d="M42.1767,17.8667 C42.1767,13.7247 38.9127,10.3667 34.8867,10.3667 C30.8617,10.3667 27.5967,13.7247 27.5967,17.8667 C27.5967,18.4437 27.6667,19.0037 27.7857,19.5427 L28.6817,22.6597 C28.6817,22.6597 31.0807,26.4567 34.8867,26.4567 C38.6937,26.4567 41.0917,22.6597 41.0917,22.6597 L41.9877,19.5427 C42.1077,19.0037 42.1767,18.4437 42.1767,17.8667" id="Fill-16" fill="#FFDDCC" mask="url(#mask-6)"></path>
                <path d="M34.8358,9 C30.6838,9 27.3178,12.358 27.3178,16.5 C27.3178,17.077 27.3898,17.636 27.5128,18.176 L27.9518,20.308 C28.5708,16.506 28.3898,13.426 34.9768,13.426 C40.6128,13.426 41.0808,17.007 41.9028,20.261 L42.1578,18.176 C42.2818,17.636 42.3538,17.077 42.3538,16.5 C42.3538,12.358 38.9868,9 34.8358,9" id="Fill-17" fill="#212121" mask="url(#mask-6)"></path>
                <path d="M27.7533,17.3589 C26.7773,17.6059 26.1873,18.5979 26.4343,19.5729 C26.6823,20.5489 27.6733,21.1389 28.6493,20.8919 L27.7533,17.3589 Z" id="Fill-18" fill="#FFDDCC" mask="url(#mask-6)"></path>
                <path d="M41.9032,16.9692 C42.9012,17.0982 43.6052,18.0122 43.4762,19.0112 C43.3462,20.0092 42.4322,20.7132 41.4342,20.5842 L41.9032,16.9692 Z" id="Fill-19" fill="#FFDDCC" mask="url(#mask-6)"></path>
                <polygon id="Fill-20" fill="#C9D6DD" mask="url(#mask-6)" points="16.596 32.922 18.482 32.922 18.482 24.433 16.596 24.433"></polygon>
                <polygon id="Fill-21" fill="#455B64" mask="url(#mask-6)" points="11.417 25.376 23.751 25.376 23.751 20.66 11.417 20.66"></polygon>
                <polygon id="Fill-22" fill="#8CC3EF" mask="url(#mask-6)" points="12.922 24.433 22.246 24.433 22.246 21.603 12.922 21.603"></polygon>
                <polygon id="Fill-23" fill="#C9D6DD" mask="url(#mask-6)" points="46.6288 48.3809 12.3008 48.3809 12.3008 39.2489 50.5518 39.2489"></polygon>
                <polygon id="Fill-24" fill="#28363A" mask="url(#mask-6)" points="19.425 32.922 35.46 32.922 35.46 30.565 19.425 30.565"></polygon>
                <polygon id="Fill-25" fill="#324A5E" mask="url(#mask-6)" points="13.295 37.167 38.762 37.167 38.762 32.45 13.295 32.45"></polygon>
                <polygon id="Fill-26" fill="#E2EAED" mask="url(#mask-6)" points="11.408 40.064 52.456 40.064 52.456 37.167 11.408 37.167"></polygon>
            </g>
        </g>
    </g>
</svg>