<?xml version="1.0" encoding="UTF-8"?>
<svg width="59px" height="58px" viewBox="0 0 59 58" version="1.1" xmlns="http://www.w3.org/2000/svg" xmlns:xlink="http://www.w3.org/1999/xlink">
    <!-- Generator: Sketch 53.2 (72643) - https://sketchapp.com -->
    <title>selleracc-moneybox</title>
    <desc>Created with Sketch.</desc>
    <defs>
        <circle id="path-1" cx="29.5" cy="29" r="29"></circle>
    </defs>
    <g id="selleracc-moneybox" stroke="none" stroke-width="1" fill="none" fill-rule="evenodd">
        <mask id="mask-2" fill="white">
            <use xlink:href="#path-1"></use>
        </mask>
        <use id="Oval-5" fill="#E2F7BE" fill-rule="nonzero" xlink:href="#path-1"></use>
        <g id="Group-31" mask="url(#mask-2)">
            <g transform="translate(-2.000000, 9.000000)" id="Group-5">
                <g transform="translate(-0.000007, 0.013514)">
                    <rect id="Rectangle" fill="#BBCE9B" x="0.500006757" y="25.9864865" width="73" height="28"></rect>
                    <g id="Group-3" transform="translate(10.000007, 0.000000)">
                        <g id="Group-14" transform="translate(-0.000000, 0.986486)">
                            <polygon id="Fill-1" fill="#4398D1" points="13.9990121 -6.54205608e-06 -6.54205607e-06 5.33307757 -6.54205607e-06 7.99955421 27.9982271 7.99955421 27.9982271 5.33307757"></polygon>
                            <polygon id="Fill-2" fill="#4398D1" points="22.6650841 19.9987383 25.3315607 19.9987383 25.3315607 7.99949533 22.6650841 7.99949533"></polygon>
                            <polygon id="Fill-3" fill="#4398D1" points="15.9988598 19.9987383 18.6655327 19.9987383 18.6655327 7.99949533 15.9988598 7.99949533"></polygon>
                            <polygon id="Fill-4" fill="#4398D1" points="9.33276636 19.9987383 11.9991776 19.9987383 11.9991776 7.99949533 9.33276636 7.99949533"></polygon>
                            <polygon id="Fill-5" fill="#4398D1" points="2.66641121 19.9987383 5.33282243 19.9987383 5.33282243 7.99949533 2.66641121 7.99949533"></polygon>
                            <polygon id="Fill-6" fill="#3582BD" points="22.6650841 9.33270093 25.3315607 9.33270093 25.3315607 7.99949533 22.6650841 7.99949533"></polygon>
                            <polygon id="Fill-7" fill="#3582BD" points="15.9988598 9.33270093 18.6655327 9.33270093 18.6655327 7.99949533 15.9988598 7.99949533"></polygon>
                            <polygon id="Fill-8" fill="#3582BD" points="9.33276636 9.33270093 11.9991776 9.33270093 11.9991776 7.99949533 9.33276636 7.99949533"></polygon>
                            <polygon id="Fill-9" fill="#3582BD" points="2.66641121 9.33270093 5.33282243 9.33270093 5.33282243 7.99949533 2.66641121 7.99949533"></polygon>
                            <polygon id="Fill-10" fill="#3E8CC7" points="1.33320561 22.6651495 26.665028 22.6651495 26.665028 19.9987383 1.33320561 19.9987383"></polygon>
                            <polygon id="Fill-11" fill="#4398D1" points="0 25.3318224 27.9982336 25.3318224 27.9982336 22.6651495 0 22.6651495"></polygon>
                            <path d="M15.3321981,3.99963645 C15.3321981,4.73614112 14.7352355,5.33310374 13.9989925,5.33310374 C13.2627495,5.33310374 12.6657869,4.73614112 12.6657869,3.99963645 C12.6657869,3.26339346 13.2627495,2.66643084 13.9989925,2.66643084 C14.7352355,2.66643084 15.3321981,3.26339346 15.3321981,3.99963645" id="Fill-12" fill="#3582BD"></path>
                        </g>
                        <g id="Group-30" transform="translate(9.000000, 28.000000)" fill="#FFFFFF">
                            <polygon id="Fill-21" points="0.0985655001 4.95886693 1.54116715 4.95886693 1.54116715 3.51619449 0.0985655001 3.51619449"></polygon>
                            <polygon id="Fill-22" points="0.0985655001 2.07359284 1.54116715 2.07359284 1.54116715 0.630991191 0.0985655001 0.630991191"></polygon>
                            <polygon id="Fill-23" points="0.0985655001 7.84407023 1.54116715 7.84407023 1.54116715 6.40146858 0.0985655001 6.40146858"></polygon>
                            <polygon id="Fill-24" points="0.0985655001 10.7294859 1.54116715 10.7294859 1.54116715 9.28688425 0.0985655001 9.28688425"></polygon>
                            <polygon id="Fill-25" points="2.9837688 10.7294859 4.42637045 10.7294859 4.42637045 9.28688425 2.9837688 9.28688425"></polygon>
                            <polygon id="Fill-26" points="5.8689721 10.7294859 7.31157376 10.7294859 7.31157376 9.28688425 5.8689721 9.28688425"></polygon>
                            <polygon id="Fill-27" points="8.75445856 10.7294859 10.1970602 10.7294859 10.1970602 9.28688425 8.75445856 9.28688425"></polygon>
                        </g>
                        <g id="Group-6" transform="translate(26.000000, 10.986486)">
                            <g id="Group" transform="translate(9.931082, 17.573455) rotate(90.000000) translate(-9.931082, -17.573455) translate(-7.568918, 8.073455)">
                                <path d="M7.36805042e-06,17.1711415 L0.0612747271,0.86636556 C0.0631893321,0.400159249 0.437494604,-0.00190779497 0.934334594,6.80999679e-06 L33.3888035,0.122541528 C33.8550098,0.124456133 34.2580341,0.498761405 34.2561195,0.996558698 L34.1929376,17.3013346 C34.1919802,17.7665836 33.817675,18.1686507 33.320835,18.1667361 L0.866366118,18.0442014 C0.369526128,18.0422868 -0.00190723692,17.6689388 7.36805042e-06,17.1711415" id="Fill-11" fill="#3DB39E"></path>
                                <path d="M6.55618917,8.12731345 C6.0277582,8.12539885 5.62281925,8.52746589 5.62090464,9.05589686 C5.61899004,9.58337053 6.02105708,9.98830949 6.54948805,9.99118139 C7.07696172,9.993096 7.48190068,9.59007165 7.48477258,9.06259798 C7.48668719,8.53512431 7.08366284,8.12922806 6.55618917,8.12731345 M27.6675809,10.0706375 C28.1960119,10.0725521 28.6009508,9.67048506 28.6028654,9.14301139 C28.6057373,8.61458042 28.202713,8.20964147 27.6752393,8.20676956 C27.1468083,8.20581226 26.7409121,8.6078793 26.7389975,9.13535297 C26.7380402,9.66378394 27.1716982,10.0687229 27.6675809,10.0706375 M1.60980723,2.05227188 L1.55715559,16.0279309 C1.55619829,16.2768295 1.77254865,16.4941372 2.0214473,16.4960518 L7.30097051,16.5161551 C7.54986915,16.5171124 7.76717682,16.2998048 7.76813412,16.0509061 C7.76909142,15.8039221 7.55274106,15.5846998 7.30384241,15.5837425 L2.49052551,15.5665111 L2.54030524,2.5223074 L7.35362214,2.54049615 C7.60252079,2.54145345 7.82078576,2.32414578 7.82174306,2.07620444 C7.82270036,1.82730579 7.6053927,1.60904083 7.35745135,1.60808353 L2.07792814,1.58798017 C1.8290295,1.58702287 1.61076453,1.80433054 1.60980723,2.05227188 M26.4556359,2.14608752 C26.4546786,2.39498617 26.671029,2.61325114 26.9199276,2.61420844 L31.7332445,2.63239719 L31.6844221,15.6766009 L26.8701479,15.6584121 C26.6212493,15.6574548 26.4039416,15.8738052 26.4029843,16.1227038 C26.402027,16.3706452 26.6183774,16.5889101 26.8663187,16.5898674 L32.1467992,16.6099708 C32.3947406,16.6109281 32.6130055,16.3945777 32.6139628,16.1456791 L32.6675718,2.17002008 C32.6685291,1.92207874 32.4512214,1.70381377 32.2032801,1.70285647 L26.9237569,1.68275312 C26.6748582,1.68179582 26.4565932,1.89814618 26.4556359,2.14608752 M16.9438784,12.4217724 L16.945793,11.9555661 C16.1694207,11.8598358 15.581637,11.4223486 15.334653,10.9561423 C15.3040193,10.8939176 15.2724283,10.800102 15.2733856,10.7388346 C15.2743429,10.489936 15.4610169,10.3042193 15.6783246,10.3051766 C15.8649985,10.3051766 15.9578569,10.3989923 16.0200815,10.4928079 C16.3599239,10.8355222 16.7629483,11.1169691 17.3220129,11.1188837 C18.0361606,11.1207983 18.3788749,10.8747716 18.3807895,10.3779316 C18.3846187,9.16598665 15.4945225,9.71452097 15.5021809,7.72716101 C15.5050528,6.98142238 15.94254,6.36204767 16.9668537,6.24142756 L16.9687683,5.77522125 C16.9697256,5.55791358 17.1267232,5.3721969 17.3440309,5.3731542 C17.5613385,5.3741115 17.7154642,5.56078549 17.7145069,5.77809315 L17.7125923,6.24429946 C18.3338817,6.34002971 18.860398,6.58988566 19.138973,6.99482461 C19.2002404,7.05704927 19.2308741,7.14990762 19.2308741,7.27435694 C19.2299168,7.52325558 19.0422855,7.70897227 18.7943441,7.70801496 C18.6698948,7.70801496 18.5770365,7.644833 18.4535445,7.52038368 C18.2056031,7.27052773 17.8035361,7.08289644 17.3373298,7.08098184 C16.6854068,7.07906723 16.4355508,7.38827593 16.4336362,7.73003292 C16.429807,8.81752855 19.3199032,8.33121888 19.3122448,10.3808035 C19.3084156,11.2816251 18.7474363,11.8694089 17.6915317,11.990029 L17.6896171,12.455278 C17.6886598,12.673543 17.5326195,12.8583023 17.3153118,12.857345 C17.0980041,12.8257541 16.9438784,12.6390801 16.9438784,12.4217724 M17.0884311,15.3109113 C20.5356774,15.3243135 23.30994,12.5385633 23.3233422,9.12290804 C23.3367444,5.70629547 20.5519515,2.90044188 17.1353389,2.88799695 C13.7187264,2.87459471 10.9138301,5.65938764 10.9004279,9.07600022 C10.8870256,12.4916555 13.6718185,15.2975091 17.0884311,15.3109113" id="Fill-13" fill="#81CEC0"></path>
                            </g>
                            <g id="Group-2" transform="translate(9.975067, 15.850567)">
                                <path d="M12.7996802,3.47087869 L9.3284289,5.32907052e-15 L9.3284289,7.59273341 L4.5830753,2.84737982 C3.53437889,1.79831083 1.83535844,1.79831083 0.786662024,2.84737982 C-0.262220675,3.89588994 -0.262220675,5.59509668 0.786662024,6.64360681 L7.43036197,13.2873068 C5.60699569,15.1105799 4.5830753,17.5832456 4.5830753,20.1619081 L4.5830753,20.8803196 L15.0233748,20.8803196 L15.0233748,8.8398243 C15.0233748,6.82579441 14.2232769,4.89447545 12.7996802,3.47087869" id="Fill-28" fill="#FFB782"></path>
                                <path d="M11.2267194,10.440048 C10.9752334,10.440048 10.733248,10.3404782 10.5559039,10.1621095 L7.70861721,7.31472966 C7.34414886,6.93796645 7.35439459,6.33700818 7.73125094,5.97253983 C8.09963129,5.61757207 8.68251983,5.61757207 9.05062075,5.97253983 L11.8978143,8.81973336 C12.2680575,9.19118743 12.2680575,9.79177313 11.8978143,10.1621095 C11.7193524,10.3404782 11.4784847,10.440048 11.2267194,10.440048" id="Fill-29" fill="#F2A46F"></path>
                            </g>
                        </g>
                    </g>
                </g>
            </g>
        </g>
    </g>
</svg>