<?xml version="1.0" encoding="UTF-8"?>
<svg width="59px" height="58px" viewBox="0 0 59 58" version="1.1" xmlns="http://www.w3.org/2000/svg" xmlns:xlink="http://www.w3.org/1999/xlink">
    <!-- Generator: Sketch 53.1 (72631) - https://sketchapp.com -->
    <title>logistic_thaipost</title>
    <desc>Created with Sketch.</desc>
    <defs>
        <polygon id="path-1" points="0.6864 0 59.6864 0 59.6864 58 0.6864 58"></polygon>
        <polygon id="path-3" points="0 0.2892 17.6201764 0.2892 17.6201764 19.8092 0 19.8092"></polygon>
        <polygon id="path-5" points="2.16346154e-05 0 44.9783654 0 44.9783654 11.8125 2.16346154e-05 11.8125"></polygon>
    </defs>
    <g id="logistic_thaipost" stroke="none" stroke-width="1" fill="none" fill-rule="evenodd">
        <g id="icon_logistic_kerry" transform="translate(-1.000000, -16.000000)">
            <g id="Group-3" transform="translate(0.000000, 16.000000)">
                <mask id="mask-2" fill="white">
                    <use xlink:href="#path-1"></use>
                </mask>
                <g id="Clip-2"></g>
                <path d="M59.5,29 C59.5,45.017 46.517,58 30.5,58 C14.484,58 1.5,45.017 1.5,29 C1.5,12.984 14.484,0 30.5,0 C46.517,0 59.5,12.984 59.5,29" id="Fill-1" fill="#DC1E35" mask="url(#mask-2)"></path>
            </g>
            <g id="Group-6" transform="translate(1.000000, 17.000000)">
                <mask id="mask-4" fill="white">
                    <use xlink:href="#path-3"></use>
                </mask>
                <g id="Clip-5"></g>
                <path d="M17.62,4.5972 C14.102,4.9602 10.685,3.2892 8.81,0.2892 C6.936,3.2892 3.518,4.9602 0,4.5972 C0,4.5972 -0.156,16.4722 8.81,19.8092 C17.776,16.4722 17.62,4.5972 17.62,4.5972" id="Fill-4" fill="#EC2123" mask="url(#mask-4)"></path>
            </g>
            <path d="M2.0033,22.209 C2.0033,22.209 1.8593,32.751 9.8113,35.684 L9.8113,18.416 C8.1423,21.063 5.1143,22.533 2.0033,22.209" id="Fill-7" fill="#EE4643"></path>
            <path d="M11.3466,22.1958 L6.8566,22.1958 L5.4316,31.5588 C6.1336,32.5018 6.9876,33.3188 7.9566,33.9798 L8.6076,30.0428 L10.2656,30.0428 C12.8236,30.0428 14.4446,28.8328 14.8656,26.0618 C15.2886,23.2898 13.7716,22.1958 11.3466,22.1958 M11.7626,26.1528 C11.7146,26.9808 11.0046,27.6148 10.1766,27.5668 C10.1636,27.5668 10.1516,27.5658 10.1406,27.5638 L9.4316,27.5638 L8.9376,27.5638 L9.3866,24.6358 L10.1406,24.6358 C11.1906,24.6688 11.9966,24.7848 11.7626,26.1528" id="Fill-9" fill="#FFFFFF"></path>
        </g>
        <g id="Group-3" transform="translate(7.000000, 27.000000)">
            <mask id="mask-6" fill="white">
                <use xlink:href="#path-5"></use>
            </mask>
            <g id="Clip-2"></g>
            <path d="M30.2993005,4.17548077 C30.353387,4.33774038 30.3965481,4.48918269 30.4182909,4.62980769 L36.0865601,4.62980769 L36.7355986,4.17548077 L30.2993005,4.17548077 Z M30.7428101,3.41826923 L30.0072332,3.56971154 C30.0396851,3.62379808 30.0720288,3.66706731 30.0937716,3.72115385 L37.4170889,3.72115385 C37.5793486,3.62379808 37.7416082,3.515625 37.9038678,3.41826923 L30.7428101,3.41826923 Z M35.1779063,2.50961538 L33.4579543,2.85576923 L38.8557909,2.85576923 C39.072137,2.73677885 39.2884832,2.61778846 39.494012,2.50961538 L35.1779063,2.50961538 Z M30.5913678,11.0120192 L30.8077139,11.4122596 C30.8401659,11.2824519 30.8726178,11.1418269 30.9050697,11.0120192 L30.5913678,11.0120192 Z M39.3642043,1.65504808 L37.3954543,2.05528846 L40.3593966,2.05528846 C40.6514639,1.90384615 40.9327139,1.77403846 41.1923293,1.65504808 L39.3642043,1.65504808 Z M30.2019447,5.83052885 C30.0505024,6.02524038 29.8449736,6.15504808 29.6178101,6.23076923 L34.1069928,6.23076923 C34.2584351,6.09014423 34.3989519,5.96033654 34.5505024,5.83052885 L30.2019447,5.83052885 Z M30.4615601,5.07331731 C30.4615601,5.17067308 30.4506346,5.22475962 30.4506346,5.22475962 C30.4399255,5.27884615 30.4291082,5.32211538 30.4182909,5.37620192 L35.0913678,5.37620192 C35.2211755,5.27884615 35.3401659,5.17067308 35.4699736,5.07331731 L30.4615601,5.07331731 Z M29.6934231,9.34615385 L29.9423293,9.80048077 L31.3701058,9.80048077 L31.5973774,9.34615385 L29.6934231,9.34615385 Z M28.2548293,6.68509615 L28.5035192,7.13942308 L33.2090481,7.13942308 C33.3497812,6.98798077 33.4904063,6.83653846 33.6417404,6.68509615 L28.2548293,6.68509615 Z M31.0455865,10.5576923 C31.0889639,10.4603365 31.1214159,10.3521635 31.1646851,10.2548077 L30.1802019,10.2548077 L30.3424615,10.5576923 L31.0455865,10.5576923 Z M42.2091563,1.21153846 C42.5985793,1.04927885 42.8257428,0.962740385 42.8257428,0.962740385 L41.5924615,1.21153846 L42.2091563,1.21153846 Z M28.7416082,7.59375 L28.9902981,8.04807692 L32.4518365,8.04807692 C32.5709351,7.89663462 32.6899255,7.74519231 32.8197332,7.59375 L28.7416082,7.59375 Z M29.2392043,8.49158654 L29.4555505,8.89182692 L31.8568846,8.89182692 C31.9435313,8.75120192 32.0300697,8.62139423 32.1166082,8.49158654 L29.2392043,8.49158654 Z M0.605790865,0.649038462 L27.2920889,6.13341346 L30.353387,11.8125 L0.605790865,0.649038462 Z M27.8437716,0.0973557692 L29.650262,3.07211538 L44.978387,0.0973557692 L27.8437716,0.0973557692 Z M2.16346154e-05,-1.42108547e-14 L27.1406466,-1.42108547e-14 L29.8015962,4.37019231 C29.8015962,4.37019231 30.7103582,6.57692308 27.4435313,5.58173077 L2.16346154e-05,-1.42108547e-14 Z" id="Fill-1" fill="#FFFFFF" mask="url(#mask-6)"></path>
        </g>
    </g>
</svg>