<?xml version="1.0" encoding="UTF-8"?>
<svg width="59px" height="58px" viewBox="0 0 59 58" version="1.1" xmlns="http://www.w3.org/2000/svg" xmlns:xlink="http://www.w3.org/1999/xlink">
    <!-- Generator: Sketch 53.1 (72631) - https://sketchapp.com -->
    <title>logistic_sellerMethod</title>
    <desc>Created with Sketch.</desc>
    <defs>
        <path d="M59.5,29 C59.5,45.017 46.2931552,58 30,58 C13.7078621,58 0.5,45.017 0.5,29 C0.5,12.984 13.7078621,0 30,0 C46.2931552,0 59.5,12.984 59.5,29" id="path-1"></path>
        <polygon id="path-3" points="0 0.2892 17.6201764 0.2892 17.6201764 19.8092 0 19.8092"></polygon>
    </defs>
    <g id="logistic_sellerMethod" stroke="none" stroke-width="1" fill="none" fill-rule="evenodd">
        <g id="icon_logistic_kerry" transform="translate(-1.000000, 0.000000)">
            <g id="Group" transform="translate(0.500000, 0.000000)">
                <mask id="mask-2" fill="white">
                    <use xlink:href="#path-1"></use>
                </mask>
                <use id="Fill-1" fill="#DCEDF6" xlink:href="#path-1"></use>
                <g id="Group-24" mask="url(#mask-2)">
                    <g transform="translate(4.500000, 12.000000)">
                        <path d="M12.7536337,29.4158233 L12.7536337,12.6680791 C12.7536337,12.2309453 13.1083953,11.8761837 13.5464651,11.8761837 L37.9660465,11.8761837 C38.4527907,11.8752477 38.8861802,12.1878872 39.0406279,12.6512302 L41.6091395,20.3633174 L45.5704884,23.19205 L45.5704884,29.4158233 L12.7536337,29.4158233 Z" id="Fill-18" fill="#1D81B1"></path>
                        <polygon id="Fill-20" fill="#BBCCD4" points="43.3071279 27.7182093 45.5704884 27.7182093 45.5704884 26.5874651 43.3071279 26.5874651"></polygon>
                        <polygon id="Fill-22" fill="#BBCCD4" points="12.7536337 27.7182093 16.1486744 27.7182093 16.1486744 26.5874651 12.7536337 26.5874651"></polygon>
                        <polygon id="Fill-23" fill="#FFFFFF" points="35.9507384 23.1924244 38.2140988 23.1924244 38.2140988 22.0607442 35.9507384 22.0607442"></polygon>
                        <polygon id="Fill-24" fill="#FFFFFD" points="23.5031919 27.7182093 34.25275 27.7182093 34.25275 26.5874651 23.5031919 26.5874651"></polygon>
                        <polygon id="Fill-25" fill="#FFFFFD" points="12.7536337 20.9281279 15.0169942 20.9281279 15.0169942 19.7973837 12.7536337 19.7973837"></polygon>
                        <path d="M35.3850855,15.2709436 L35.3850855,19.2313564 C35.3850855,19.8566355 35.8914866,20.3630366 36.5167657,20.3630366 L41.6088587,20.3630366 L39.5327076,14.1392634 L36.5167657,14.1392634 C35.8914866,14.1392634 35.3850855,14.6456645 35.3850855,15.2709436" id="Fill-26" fill="#FFFFFF"></path>
                        <path d="M35.3850855,19.2317308 C35.3850855,19.8570099 35.8914866,20.363411 36.5167657,20.363411 L41.6088587,20.363411 L40.165475,16.0407483 L35.3850855,19.2317308 Z" id="Fill-27" fill="#E2EAED"></path>
                        <path d="M19.5426855,26.5870907 C21.1058831,26.5870907 22.371418,27.8535616 22.371418,29.4158233 C22.371418,30.9780849 21.1058831,32.2445558 19.5426855,32.2445558 C17.9804238,32.2445558 16.714889,30.9780849 16.714889,29.4158233 C16.714889,27.8535616 17.9804238,26.5870907 19.5426855,26.5870907" id="Fill-28" fill="#7C97A2"></path>
                        <path d="M38.7801262,26.5870907 C40.3423878,26.5870907 41.6088587,27.8535616 41.6088587,29.4158233 C41.6088587,30.9780849 40.3423878,32.2445558 38.7801262,32.2445558 C37.2178645,32.2445558 35.9513936,30.9780849 35.9513936,29.4158233 C35.9513936,27.8535616 37.2178645,26.5870907 38.7801262,26.5870907" id="Fill-29" fill="#7C97A2"></path>
                        <path d="M19.5426855,27.7183029 C20.4806041,27.7183029 21.2397378,28.4783727 21.2397378,29.4153552 C21.2397378,30.3532738 20.4806041,31.1133436 19.5426855,31.1133436 C18.6057029,31.1133436 17.8465692,30.3532738 17.8465692,29.4153552 C17.8465692,28.4783727 18.6057029,27.7183029 19.5426855,27.7183029" id="Fill-30" fill="#FCFCFC"></path>
                        <path d="M38.7801262,27.7183029 C39.7180448,27.7183029 40.4771785,28.4783727 40.4771785,29.4153552 C40.4771785,30.3532738 39.7180448,31.1133436 38.7801262,31.1133436 C37.8431436,31.1133436 37.0830738,30.3532738 37.0830738,29.4153552 C37.0830738,28.4783727 37.8431436,27.7183029 38.7801262,27.7183029" id="Fill-31" fill="#FCFCFC"></path>
                        <polygon id="Fill-32" fill="#E5E5E5" points="18.977407 29.9815698 20.1081512 29.9815698 20.1081512 28.8498895 18.977407 28.8498895"></polygon>
                        <polygon id="Fill-33" fill="#E5E5E5" points="38.2140988 29.9815698 39.3457791 29.9815698 39.3457791 28.8498895 38.2140988 28.8498895"></polygon>
                        <polygon id="Fill-34" fill="#F4A04D" points="15.9642733 12.7405291 30.1725233 12.7405291 30.1725233 0.308895349 15.9642733 0.308895349"></polygon>
                        <path d="M22.9440913,0.275010465 L21.1094401,0.275010465 L21.1094401,2.79859186 C21.1094401,3.07753372 21.3144343,3.30405698 21.5671669,3.30405698 L24.5700041,3.30405698 C24.8236727,3.30405698 25.0296029,3.07753372 25.0296029,2.79859186 L25.0296029,0.275010465 L22.9440913,0.275010465 Z" id="Fill-35" fill="#FFD2A6"></path>
                        <polygon id="Fill-36" fill="#CE7B36" points="24.3409535 12.7405291 29.6745465 12.7405291 29.6745465 3.8499593 24.3409535 3.8499593"></polygon>
                        <polygon id="Fill-37" fill="#FFB769" points="25.5110116 12.8331977 34.6908198 12.8331977 34.6908198 3.65619767 25.5110116 3.65619767"></polygon>
                        <path d="M31.2277285,3.6064936 L28.9727924,3.6064936 L28.9727924,5.41493547 C28.9727924,5.61431337 29.225525,5.77624942 29.5362924,5.77624942 L30.6642285,5.77624942 C30.9749959,5.77624942 31.2277285,5.61431337 31.2277285,5.41493547 L31.2277285,3.6064936 Z" id="Fill-38" fill="#FFD2A6"></path>
                        <path d="M9.82848837,23.166964 L3.51017442,23.166964 C3.12452326,23.166964 2.80813953,22.8515163 2.80813953,22.4649291 C2.80813953,22.0783419 3.12452326,21.7628942 3.51017442,21.7628942 L9.82848837,21.7628942 C10.2141395,21.7628942 10.5305233,22.0783419 10.5305233,22.4649291 C10.5305233,22.8515163 10.2141395,23.166964 9.82848837,23.166964" id="Fill-39" fill="#BBCCD4"></path>
                        <path d="M7.02034884,20.3588244 L0.702034884,20.3588244 C0.316383721,20.3588244 0,20.0433767 0,19.6567895 C0,19.2702023 0.316383721,18.9547547 0.702034884,18.9547547 L7.02034884,18.9547547 C7.406,18.9547547 7.72238372,19.2702023 7.72238372,19.6567895 C7.72238372,20.0433767 7.406,20.3588244 7.02034884,20.3588244" id="Fill-40" fill="#BBCCD4"></path>
                    </g>
                </g>
            </g>
            <g id="Group-6" transform="translate(1.000000, 1.000000)">
                <mask id="mask-4" fill="white">
                    <use xlink:href="#path-3"></use>
                </mask>
                <g id="Clip-5"></g>
            </g>
        </g>
    </g>
</svg>