<?xml version="1.0" encoding="UTF-8"?>
<svg width="59px" height="58px" viewBox="0 0 59 58" version="1.1" xmlns="http://www.w3.org/2000/svg" xmlns:xlink="http://www.w3.org/1999/xlink">
    <!-- Generator: Sketch 51.3 (57544) - http://www.bohemiancoding.com/sketch -->
    <title>payment_card</title>
    <desc>Created with Sketch.</desc>
    <defs>
        <polygon id="path-1" points="0 58 59 58 59 0 0 0"></polygon>
    </defs>
    <g id="payment_card" stroke="none" stroke-width="1" fill="none" fill-rule="evenodd">
        <g id="icon_payment_card">
            <g>
                <path d="M59,29 C59,45.017 45.7931552,58 29.5,58 C13.2078621,58 0,45.017 0,29 C0,12.984 13.2078621,0 29.5,0 C45.7931552,0 59,12.984 59,29" id="Fill-1" fill="#E58578"></path>
                <path d="M51.1491345,38.7314 L17.9972379,48.1394 C16.6046345,48.5354 15.1184448,47.7294 14.7166345,46.3594 L8.59894483,25.5294 C8.19713448,24.1604 9.01804828,22.6994 10.4106517,22.3034 L43.6113759,12.8824 C45.0039793,12.4864 46.490169,13.2934 46.8919793,14.6634 L53.0086517,35.4924 C53.3768931,36.9224 52.5427552,38.3364 51.1491345,38.7314" id="Fill-3" fill="#C9D6DD"></path>
                <mask id="mask-2" fill="white">
                    <use xlink:href="#path-1"></use>
                </mask>
                <g id="Clip-6"></g>
                <polygon id="Fill-5" fill="#324A5E" mask="url(#mask-2)" points="10.8753276 27.389 50.6820172 27.389 50.6820172 21.441 10.8753276 21.441"></polygon>
                <polygon id="Fill-7" fill="#324A5E" mask="url(#mask-2)" points="15.226069 33.386 26.5784828 33.386 26.5784828 31.273 15.226069 31.273"></polygon>
                <polygon id="Fill-8" fill="#FFD05B" mask="url(#mask-2)" points="39.0305345 41.203 47.3820862 41.203 47.3820862 32.994 39.0305345 32.994"></polygon>
                <polygon id="Fill-9" fill="#F9B54C" mask="url(#mask-2)" points="43.5317259 33.8291 43.5317259 36.1401 41.4809672 36.1401 41.4809672 32.9941 40.9804845 32.9941 40.9804845 37.2221 39.0304328 37.2221 39.0304328 37.7131 41.4809672 37.7131 41.4809672 36.6321 44.0311914 36.6321 44.0311914 34.3211 47.3819845 34.3211 47.3819845 33.8291"></polygon>
                <polygon id="Fill-10" fill="#F9B54C" mask="url(#mask-2)" points="44.7317655 38.4502 42.7308517 38.4502 42.7308517 37.4682 42.2313862 37.4682 42.2313862 39.3352 39.0311448 39.3352 39.0311448 39.8272 42.7308517 39.8272 42.7308517 38.9422 44.4815241 38.9422 44.4815241 41.1542 44.9809897 41.1542 44.9809897 38.9422 47.3816793 38.9422 47.3816793 38.4502 44.9809897 38.4502"></polygon>
                <polygon id="Fill-11" fill="#84DBFF" mask="url(#mask-2)" points="25.6283793 41.203 28.9293276 41.203 28.9293276 40.221 25.6283793 40.221"></polygon>
                <polygon id="Fill-12" fill="#84DBFF" mask="url(#mask-2)" points="31.6799483 41.203 34.9798793 41.203 34.9798793 40.221 31.6799483 40.221"></polygon>
                <path d="M48.024881,43.9668 L13.5129328,43.9408 C12.0277603,43.9398 10.8609845,42.7918 10.8976052,41.3658 L10.9148983,19.6748 C10.9159155,18.2148 12.0837086,17.0688 13.5332776,17.1048 L48.0462431,17.1308 C49.5303983,17.1318 50.6971741,18.2798 50.6605534,19.7048 L50.6432603,41.3968 C50.6778466,42.8208 49.5100534,43.9678 48.024881,43.9668" id="Fill-13" fill="#E2EAED" mask="url(#mask-2)"></path>
                <polygon id="Fill-14" fill="#324A5E" mask="url(#mask-2)" points="50.670319 27.3784 10.8646466 27.3484 10.8697328 21.4004 50.6754052 21.4304"></polygon>
                <polygon id="Fill-15" fill="#008AE5" mask="url(#mask-2)" points="26.5351483 33.4131 13.532769 33.4031 13.5348034 31.2901 26.5361655 31.3001"></polygon>
                <polygon id="Fill-16" fill="#FFFFFF" mask="url(#mask-2)" points="47.4169776 41.2207 39.0654259 41.2137 39.0725466 33.0047 47.4240983 33.0107"></polygon>
                <polygon id="Fill-17" fill="#008AE5" mask="url(#mask-2)" points="13.5346 39.6084 16.834531 39.6114 16.8335138 41.1844 13.5335828 41.1814"></polygon>
                <polygon id="Fill-18" fill="#008AE5" mask="url(#mask-2)" points="13.5499603 36.1035 22.9014603 36.1115 22.9004431 37.5365 13.5489431 37.5295"></polygon>
                <polygon id="Fill-19" fill="#008AE5" mask="url(#mask-2)" points="19.6151603 39.5928 22.9161086 39.5948 22.9140741 41.1678 19.6141431 41.1658"></polygon>
                <polygon id="Fill-20" fill="#008AE5" mask="url(#mask-2)" points="28.9377707 41.1494 25.6368224 41.1474 25.6378397 39.5744 28.9387879 39.5764"></polygon>
                <polygon id="Fill-21" fill="#008AE5" mask="url(#mask-2)" points="34.9885259 39.6357 34.9875086 41.2087 31.6875776 41.2057 31.6885948 39.6327"></polygon>
                <path d="M17.7405879,7.5503 C14.255519,7.9033 10.8701397,6.2773 9.0126569,3.3553 C7.15720862,6.2773 3.77081207,7.9033 0.285743103,7.5503 C0.285743103,7.5503 0.131122414,19.1133 9.0126569,22.3633 C17.8952086,19.1133 17.7405879,7.5503 17.7405879,7.5503" id="Fill-22" fill="#EC2123" mask="url(#mask-2)"></path>
                <path d="M1.27948621,8.146 C1.27948621,8.146 1.13707241,18.411 9.01458966,21.268 L9.01458966,4.452 C7.36055517,7.029 4.36172759,8.461 1.27948621,8.146" id="Fill-23" fill="#EE4643" mask="url(#mask-2)"></path>
                <path d="M10.5349586,8.1333 L6.08757931,8.1333 L4.67666552,17.2513 C5.37042414,18.1693 6.21676897,18.9653 7.17704483,19.6093 L7.82197586,15.7743 L9.46482069,15.7743 C11.9977517,15.7743 13.6039759,14.5963 14.0210448,11.8983 C14.4401483,9.1983 12.9376828,8.1333 10.5349586,8.1333 M10.9469414,11.9863 C10.899131,12.7923 10.1962172,13.4103 9.37632069,13.3633 C9.36309655,13.3633 9.3519069,13.3623 9.34173448,13.3613 L8.63882069,13.3613 L8.14851034,13.3613 L8.59304483,10.5093 L9.34173448,10.5093 C10.3803379,10.5413 11.1798897,10.6543 10.9469414,11.9863" id="Fill-24" fill="#FFFFFF" mask="url(#mask-2)"></path>
            </g>
        </g>
    </g>
</svg>