<?xml version="1.0" encoding="UTF-8"?>
<svg width="59px" height="58px" viewBox="0 0 59 58" version="1.1" xmlns="http://www.w3.org/2000/svg" xmlns:xlink="http://www.w3.org/1999/xlink">
    <!-- Generator: Sketch 53.2 (72643) - https://sketchapp.com -->
    <title>icon-selleracc-money</title>
    <desc>Created with Sketch.</desc>
    <defs>
        <circle id="path-1" cx="29.5" cy="29" r="29"></circle>
    </defs>
    <g id="icon-selleracc-money" stroke="none" stroke-width="1" fill="none" fill-rule="evenodd">
        <mask id="mask-2" fill="white">
            <use xlink:href="#path-1"></use>
        </mask>
        <use id="Oval-5" fill="#E2F7BE" fill-rule="nonzero" xlink:href="#path-1"></use>
        <g id="Group" mask="url(#mask-2)">
            <g transform="translate(12.000000, 17.000000)">
                <path d="M8.27224506,25.2419588 L5.39329268,10.3785302 C5.3073403,9.9379112 5.60229268,9.52805406 6.01305458,9.44210167 L33.744007,3.73486358 C34.1855308,3.6489112 34.5944832,3.94386358 34.6804355,4.35553025 L37.5602927,19.2479112 C37.6462451,19.6885302 37.3512927,20.0983874 36.9405308,20.1843398 L9.20957839,25.8626255 C8.76895934,25.9485779 8.3591022,25.6825779 8.27224506,25.2419588" id="Fill-3" fill="#2B8272"></path>
                <path d="M13.879326,9.61843977 L7.2700403,10.943916 C7.06465934,10.9719636 6.91718315,11.2062969 6.94523077,11.4116779 L9.39261173,23.9842493 C9.42156411,24.1896302 9.65589744,24.3380112 9.86127839,24.3090588 L16.4705641,22.9835826 C16.6759451,22.955535 16.8234212,22.7212017 16.7953736,22.514916 C16.7664212,22.309535 16.5320879,22.1620588 16.326707,22.1910112 L10.0992308,23.4287255 L7.79570696,11.650535 L14.0231832,10.4110112 C14.2285641,10.3829636 14.3760403,10.1486302 14.3479927,9.94324929 C14.2900879,9.73696358 14.084707,9.58948739 13.879326,9.61843977" id="Fill-5" fill="#4B9587"></path>
                <path d="M3.67867839,21.4382493 L2.26815458,6.34591596 C2.24010696,5.90529691 2.53505934,5.52529691 2.97567839,5.46829691 L32.5767736,1.96958263 C33.0173927,1.94153501 33.3982974,2.23648739 33.4254403,2.67710644 L34.8359641,17.7694398 C34.8640117,18.2109636 34.5690593,18.5909636 34.1275355,18.6479636 L4.5264403,22.1457731 C4.11567839,22.1738207 3.70582125,21.8490112 3.67867839,21.4382493" id="Fill-7" fill="#359685"></path>
                <path d="M4.08509744,7.08619215 C3.87971649,7.11514453 3.70328792,7.29066834 3.73133554,7.52500167 L4.91566887,20.2694779 C4.94462125,20.4739541 5.12014506,20.6512874 5.35447839,20.622335 L12.0786689,19.9736207 C12.2849546,19.9446683 12.4613832,19.7691445 12.4333355,19.5339064 C12.4043832,19.3285255 12.2288593,19.1511922 11.9936212,19.1810493 L5.68109744,19.7727636 L4.58090696,7.82176358 L10.8943355,7.23004929 C11.0997165,7.20109691 11.2770498,7.0255731 11.2480974,6.79033501 C11.2200498,6.58495406 11.044526,6.40762072 10.8092879,6.4365731 L4.08509744,7.08619215 Z" id="Fill-9" fill="#53A697"></path>
                <path d="M6.9636623e-06,16.2287207 L0.0579117256,0.81881596 C0.0597212494,0.378196912 0.413483154,-0.00180308757 0.883054583,6.43623698e-06 L31.5562927,0.11581596 C31.9969117,0.117625484 32.3778165,0.471387389 32.376007,0.941863579 L32.3162927,16.3517683 C32.3153879,16.7914826 31.961626,17.1714826 31.4920546,17.1696731 L0.818816487,17.0538636 C0.349245059,17.0520541 -0.00180256015,16.6991969 6.9636623e-06,16.2287207" id="Fill-11" fill="#3DB39E"></path>
                <path d="M6.19635934,7.68125406 C5.69693077,7.67944453 5.31421649,8.05944453 5.31240696,8.5588731 C5.31059744,9.05739691 5.69059744,9.4401112 6.19002601,9.44282548 C6.68854982,9.44463501 7.07126411,9.06373025 7.07397839,8.56520644 C7.07578792,8.06668263 6.69488315,7.68306358 6.19635934,7.68125406 M26.1490736,9.51792072 C26.6485022,9.51973025 27.0312165,9.13973025 27.033026,8.64120644 C27.0357403,8.14177786 26.6548355,7.75906358 26.1563117,7.75634929 C25.6568832,7.75544453 25.2732641,8.13544453 25.2714546,8.63396834 C25.2705498,9.13339691 25.680407,9.5161112 26.1490736,9.51792072 M1.52145458,1.93963501 L1.47169268,15.1482541 C1.47078792,15.3834922 1.67526411,15.5888731 1.9105022,15.5906826 L6.90026411,15.6096826 C7.1355022,15.6105874 7.34088315,15.4052064 7.34178792,15.1699683 C7.34269268,14.9365398 7.13821649,14.7293493 6.90297839,14.7284445 L2.35383554,14.7121588 L2.40088315,2.3838731 L6.95002601,2.40106358 C7.18526411,2.40196834 7.39154982,2.19658739 7.39245458,1.96225406 C7.39335934,1.72701596 7.18797839,1.52073025 6.95364506,1.51982548 L1.96388315,1.50082548 C1.72864506,1.49992072 1.52235934,1.70530167 1.52145458,1.93963501 M25.0036451,2.02830167 C25.0027403,2.26353977 25.2072165,2.46982548 25.4424546,2.47073025 L29.9915974,2.48792072 L29.9454546,14.8162064 L25.395407,14.799016 C25.1601689,14.7981112 24.9547879,15.0025874 24.9538832,15.2378255 C24.9529784,15.4721588 25.1574546,15.6784445 25.3917879,15.6793493 L30.3824546,15.6983493 C30.6167879,15.6992541 30.8230736,15.4947779 30.8239784,15.2595398 L30.8746451,2.05092072 C30.8755498,1.81658739 30.6701689,1.61030167 30.4358355,1.60939691 L25.4460736,1.59039691 C25.2108355,1.58949215 25.0045498,1.79396834 25.0036451,2.02830167 M16.0139308,11.740016 L16.0157403,11.2993969 C15.2819784,11.2089207 14.7264546,10.7954445 14.493026,10.3548255 C14.4640736,10.296016 14.4342165,10.2073493 14.4351212,10.1494445 C14.436026,9.91420644 14.6124546,9.73868263 14.8178355,9.73958739 C14.9942641,9.73958739 15.082026,9.82825406 15.1408355,9.91692072 C15.462026,10.2408255 15.8429308,10.5068255 16.3713117,10.508635 C17.0462641,10.5104445 17.3701689,10.2779207 17.3719784,9.80834929 C17.3755974,8.66292072 14.6441212,9.18134929 14.6513593,7.30306358 C14.6540736,6.59825406 15.0675498,6.0128731 16.0356451,5.8988731 L16.0374546,5.45825406 C16.0383593,5.2528731 16.1867403,5.07734929 16.3921212,5.07825406 C16.5975022,5.07915882 16.7431689,5.25558739 16.7422641,5.46096834 L16.7404546,5.90158739 C17.3276451,5.99206358 17.8252641,6.22820644 18.0885498,6.61092072 C18.1464546,6.66973025 18.175407,6.75749215 18.175407,6.8751112 C18.1745022,7.11034929 17.9971689,7.2858731 17.7628355,7.28496834 C17.6452165,7.28496834 17.5574546,7.22525406 17.4407403,7.10763501 C17.206407,6.87149215 16.826407,6.69415882 16.3857879,6.69234929 C15.7696451,6.69053977 15.5335022,6.98277786 15.5316927,7.30577786 C15.5280736,8.33358739 18.2595498,7.87396834 18.2523117,9.81106358 C18.2486927,10.6624445 17.7185022,11.2179683 16.7205498,11.3319683 L16.7187403,11.7716826 C16.7178355,11.9779683 16.5703593,12.1525874 16.3649784,12.1516826 C16.1595974,12.1218255 16.0139308,11.9453969 16.0139308,11.740016 M16.1505498,14.4705874 C19.4085974,14.4832541 22.0305974,11.8503969 22.0432641,8.62220644 C22.0559308,5.3931112 19.4239784,2.74125406 16.1948832,2.72949215 C12.9657879,2.71682548 10.3148355,5.34877786 10.3021689,8.5778731 C10.2895022,11.8060636 12.9214546,14.4579207 16.1505498,14.4705874" id="Fill-13" fill="#81CEC0"></path>
            </g>
        </g>
        <g id="Group-7" mask="url(#mask-2)" fill-rule="nonzero">
            <g transform="translate(42.644630, 35.644630) rotate(25.000000) translate(-42.644630, -35.644630) translate(37.644630, 30.644630)">
                <path d="M5,0 C7.76145834,0 10,2.23854166 10,5 C10,7.76145834 7.76145834,10 5,10 C2.23854166,10 0,7.76145834 0,5 C0,2.23854166 2.23854166,0 5,0" id="Fill-1" fill="#FFDA2D"></path>
                <path d="M5.19043055,4.47293055 C4.25133334,4.16015278 4.18133334,3.98355555 4.18133334,3.75001389 C4.18133334,3.58425 4.51390278,3.33334722 5.01466666,3.33334722 C5.51543055,3.33334722 5.848,3.58425 5.848,3.75001389 C5.848,4.05681945 6.09647223,4.30556945 6.40355555,4.30556945 C6.71063889,4.30556945 6.95911111,4.05681945 6.95911111,3.75001389 C6.95911111,3.04251389 6.37272223,2.46806945 5.55556945,2.28723611 L5.55556945,2.22223611 C5.55556945,1.91543055 5.30709722,1.66668055 5.00001389,1.66668055 C4.69293055,1.66668055 4.44445834,1.91543055 4.44445834,2.22223611 L4.44445834,2.29425 C3.64286111,2.482375 3.07022223,3.05105555 3.07022223,3.75001389 C3.07022223,4.937375 4.17751389,5.30654166 4.83890278,5.52709722 C5.778,5.839875 5.848,6.01647222 5.848,6.25001389 C5.848,6.41577777 5.51543055,6.66668055 5.01466666,6.66668055 C4.51390278,6.66668055 4.18133334,6.41577777 4.18133334,6.25001389 C4.18133334,5.94320834 3.93286111,5.69445834 3.62577777,5.69445834 C3.31869445,5.69445834 3.07022223,5.94320834 3.07022223,6.25001389 C3.07022223,6.94897222 3.64286111,7.51765277 4.44445834,7.70577777 L4.44445834,7.77779166 C4.44445834,8.08459722 4.69293055,8.33334722 5.00001389,8.33334722 C5.30709722,8.33334722 5.55556945,8.08459722 5.55556945,7.77779166 L5.55556945,7.71279166 C6.37272223,7.53195834 6.95911111,6.95751389 6.95911111,6.25001389 C6.95911111,5.06265278 5.85175,4.69348611 5.19043055,4.47293055" id="Fill-3" fill="#FFFFFF"></path>
                <path d="M5.83333334,9.16666666 C3.071875,9.16666666 0.833333334,6.92805555 0.833333334,4.16666666 C0.833333334,2.99847222 1.23430555,1.92347222 1.905625,1.07229167 C0.744861111,1.98791666 0,3.40680555 0,5 C0,7.76138889 2.23854166,10 5,10 C6.593125,10 8.01215277,9.25527777 8.92784722,8.09451389 C8.07659722,8.76583334 7.00152778,9.16666666 5.83333334,9.16666666" id="Fill-5" fill="#FDBF00"></path>
            </g>
        </g>
        <g id="Group-7-Copy" mask="url(#mask-2)" fill-rule="nonzero">
            <g transform="translate(37.644630, 41.644630) rotate(-15.000000) translate(-37.644630, -41.644630) translate(32.644630, 36.644630)">
                <path d="M5,0 C7.76145834,0 10,2.23854166 10,5 C10,7.76145834 7.76145834,10 5,10 C2.23854166,10 0,7.76145834 0,5 C0,2.23854166 2.23854166,0 5,0" id="Fill-1" fill="#FFDA2D"></path>
                <path d="M5.19043055,4.47293055 C4.25133334,4.16015278 4.18133334,3.98355555 4.18133334,3.75001389 C4.18133334,3.58425 4.51390278,3.33334722 5.01466666,3.33334722 C5.51543055,3.33334722 5.848,3.58425 5.848,3.75001389 C5.848,4.05681945 6.09647223,4.30556945 6.40355555,4.30556945 C6.71063889,4.30556945 6.95911111,4.05681945 6.95911111,3.75001389 C6.95911111,3.04251389 6.37272223,2.46806945 5.55556945,2.28723611 L5.55556945,2.22223611 C5.55556945,1.91543055 5.30709722,1.66668055 5.00001389,1.66668055 C4.69293055,1.66668055 4.44445834,1.91543055 4.44445834,2.22223611 L4.44445834,2.29425 C3.64286111,2.482375 3.07022223,3.05105555 3.07022223,3.75001389 C3.07022223,4.937375 4.17751389,5.30654166 4.83890278,5.52709722 C5.778,5.839875 5.848,6.01647222 5.848,6.25001389 C5.848,6.41577777 5.51543055,6.66668055 5.01466666,6.66668055 C4.51390278,6.66668055 4.18133334,6.41577777 4.18133334,6.25001389 C4.18133334,5.94320834 3.93286111,5.69445834 3.62577777,5.69445834 C3.31869445,5.69445834 3.07022223,5.94320834 3.07022223,6.25001389 C3.07022223,6.94897222 3.64286111,7.51765277 4.44445834,7.70577777 L4.44445834,7.77779166 C4.44445834,8.08459722 4.69293055,8.33334722 5.00001389,8.33334722 C5.30709722,8.33334722 5.55556945,8.08459722 5.55556945,7.77779166 L5.55556945,7.71279166 C6.37272223,7.53195834 6.95911111,6.95751389 6.95911111,6.25001389 C6.95911111,5.06265278 5.85175,4.69348611 5.19043055,4.47293055" id="Fill-3" fill="#FFFFFF"></path>
                <path d="M5.83333334,9.16666666 C3.071875,9.16666666 0.833333334,6.92805555 0.833333334,4.16666666 C0.833333334,2.99847222 1.23430555,1.92347222 1.905625,1.07229167 C0.744861111,1.98791666 0,3.40680555 0,5 C0,7.76138889 2.23854166,10 5,10 C6.593125,10 8.01215277,9.25527777 8.92784722,8.09451389 C8.07659722,8.76583334 7.00152778,9.16666666 5.83333334,9.16666666" id="Fill-5" fill="#FDBF00"></path>
            </g>
        </g>
        <g id="Group-7-Copy" mask="url(#mask-2)" fill-rule="nonzero">
            <g transform="translate(14.000000, 36.000000) rotate(10.000000) translate(-14.000000, -36.000000) translate(10.000000, 32.000000)">
                <path d="M4,0 C6.20916667,0 8,1.79083333 8,4 C8,6.20916667 6.20916667,8 4,8 C1.79083333,8 0,6.20916667 0,4 C0,1.79083333 1.79083333,0 4,0" id="Fill-1" fill="#FFDA2D"></path>
                <path d="M4.15234444,3.57834444 C3.40106667,3.32812222 3.34506667,3.18684444 3.34506667,3.00001111 C3.34506667,2.8674 3.61112222,2.66667778 4.01173333,2.66667778 C4.41234444,2.66667778 4.6784,2.8674 4.6784,3.00001111 C4.6784,3.24545556 4.87717778,3.44445556 5.12284444,3.44445556 C5.36851111,3.44445556 5.56728889,3.24545556 5.56728889,3.00001111 C5.56728889,2.43401111 5.09817778,1.97445556 4.44445556,1.82978889 L4.44445556,1.77778889 C4.44445556,1.53234444 4.24567778,1.33334444 4.00001111,1.33334444 C3.75434444,1.33334444 3.55556667,1.53234444 3.55556667,1.77778889 L3.55556667,1.8354 C2.91428889,1.9859 2.45617778,2.44084444 2.45617778,3.00001111 C2.45617778,3.9499 3.34201111,4.24523333 3.87112222,4.42167778 C4.6224,4.6719 4.6784,4.81317778 4.6784,5.00001111 C4.6784,5.13262222 4.41234444,5.33334444 4.01173333,5.33334444 C3.61112222,5.33334444 3.34506667,5.13262222 3.34506667,5.00001111 C3.34506667,4.75456667 3.14628889,4.55556667 2.90062222,4.55556667 C2.65495556,4.55556667 2.45617778,4.75456667 2.45617778,5.00001111 C2.45617778,5.55917778 2.91428889,6.01412222 3.55556667,6.16462222 L3.55556667,6.22223333 C3.55556667,6.46767778 3.75434444,6.66667778 4.00001111,6.66667778 C4.24567778,6.66667778 4.44445556,6.46767778 4.44445556,6.22223333 L4.44445556,6.17023333 C5.09817778,6.02556667 5.56728889,5.56601111 5.56728889,5.00001111 C5.56728889,4.05012222 4.6814,3.75478889 4.15234444,3.57834444" id="Fill-3" fill="#FFFFFF"></path>
                <path d="M4.66666667,7.33333333 C2.4575,7.33333333 0.666666667,5.54244444 0.666666667,3.33333333 C0.666666667,2.39877778 0.987444444,1.53877778 1.5245,0.857833333 C0.595888889,1.59033333 0,2.72544444 0,4 C0,6.20911111 1.79083333,8 4,8 C5.2745,8 6.40972222,7.40422222 7.14227778,6.47561111 C6.46127778,7.01266667 5.60122222,7.33333333 4.66666667,7.33333333" id="Fill-5" fill="#FDBF00"></path>
            </g>
        </g>
    </g>
</svg>