<?xml version="1.0" encoding="UTF-8"?>
<svg width="156px" height="153px" viewBox="0 0 156 153" version="1.1" xmlns="http://www.w3.org/2000/svg" xmlns:xlink="http://www.w3.org/1999/xlink">
    <!-- Generator: Sketch 53.1 (72631) - https://sketchapp.com -->
    <title>shop_avatar_default</title>
    <desc>Created with Sketch.</desc>
    <defs>
        <rect id="path-1" x="0" y="0" width="155" height="153"></rect>
        <polygon id="path-3" points="0.36964663 0.11596201 13.0067305 0.11596201 13.0067305 34.9911817 0.36964663 34.9911817"></polygon>
        <polygon id="path-5" points="0.68325968 0.282956376 23.4963735 0.282956376 23.4963735 31.6562618 0.68325968 31.6562618"></polygon>
    </defs>
    <g id="電腦版＿大量上傳" stroke="none" stroke-width="1" fill="none" fill-rule="evenodd">
        <g id="賣家中心_大量上傳" transform="translate(-1093.000000, -376.000000)">
            <g id="shop_avatar_default" transform="translate(1093.000000, 376.000000)">
                <g id="Group-2" transform="translate(0.384639, 0.000000)">
                    <g id="excel" transform="translate(0.572151, 0.000000)">
                        <rect id="Rectangle" fill="#FDFCE6" x="0" y="0" width="155" height="153"></rect>
                        <g id="Group-11" transform="translate(23.487654, 25.740484)" fill-rule="nonzero">
                            <path d="M87.1875,73.1287899 L47.8125,73.1287899 C46.26,73.1287899 45,71.8687899 45,70.3162899 C45,68.7637899 45,15.6187899 45,14.0662899 C45,12.5137899 46.26,11.2537899 47.8125,11.2537899 L87.1875,11.2537899 C88.74,11.2537899 90,12.5137899 90,14.0662899 L90,70.3162899 C90,71.8687899 88.74,73.1287899 87.1875,73.1287899 Z" id="Path" fill="#ECEFF1"></path>
                            <g id="Group" transform="translate(45.000000, 22.501856)" fill="#74B677">
                                <path d="M14.0625,5.62693359 L2.8125,5.62693359 C1.26,5.62693359 0,4.36693359 0,2.81443359 C0,1.26193359 1.26,0.00193359375 2.8125,0.00193359375 L14.0625,0.00193359375 C15.615,0.00193359375 16.875,1.26193359 16.875,2.81443359 C16.875,4.36693359 15.615,5.62693359 14.0625,5.62693359 Z" id="Path"></path>
                                <path d="M14.0625,16.8769336 L2.8125,16.8769336 C1.26,16.8769336 0,15.6169336 0,14.0644336 C0,12.5119336 1.26,11.2519336 2.8125,11.2519336 L14.0625,11.2519336 C15.615,11.2519336 16.875,12.5119336 16.875,14.0644336 C16.875,15.6169336 15.615,16.8769336 14.0625,16.8769336 Z" id="Path"></path>
                                <path d="M14.0625,28.1269336 L2.8125,28.1269336 C1.26,28.1269336 0,26.8669336 0,25.3144336 C0,23.7619336 1.26,22.5019336 2.8125,22.5019336 L14.0625,22.5019336 C15.615,22.5019336 16.875,23.7619336 16.875,25.3144336 C16.875,26.8669336 15.615,28.1269336 14.0625,28.1269336 Z" id="Path"></path>
                                <path d="M14.0625,39.3769336 L2.8125,39.3769336 C1.26,39.3769336 0,38.1169336 0,36.5644336 C0,35.0119336 1.26,33.7519336 2.8125,33.7519336 L14.0625,33.7519336 C15.615,33.7519336 16.875,35.0119336 16.875,36.5644336 C16.875,38.1169336 15.615,39.3769336 14.0625,39.3769336 Z" id="Path"></path>
                                <path d="M30.9375,5.62693359 L25.3125,5.62693359 C23.76,5.62693359 22.5,4.36693359 22.5,2.81443359 C22.5,1.26193359 23.76,0.00193359375 25.3125,0.00193359375 L30.9375,0.00193359375 C32.49,0.00193359375 33.75,1.26193359 33.75,2.81443359 C33.75,4.36693359 32.49,5.62693359 30.9375,5.62693359 Z" id="Path"></path>
                                <path d="M30.9375,16.8769336 L25.3125,16.8769336 C23.76,16.8769336 22.5,15.6169336 22.5,14.0644336 C22.5,12.5119336 23.76,11.2519336 25.3125,11.2519336 L30.9375,11.2519336 C32.49,11.2519336 33.75,12.5119336 33.75,14.0644336 C33.75,15.6169336 32.49,16.8769336 30.9375,16.8769336 Z" id="Path"></path>
                                <path d="M30.9375,28.1269336 L25.3125,28.1269336 C23.76,28.1269336 22.5,26.8669336 22.5,25.3144336 C22.5,23.7619336 23.76,22.5019336 25.3125,22.5019336 L30.9375,22.5019336 C32.49,22.5019336 33.75,23.7619336 33.75,25.3144336 C33.75,26.8669336 32.49,28.1269336 30.9375,28.1269336 Z" id="Path"></path>
                                <path d="M30.9375,39.3769336 L25.3125,39.3769336 C23.76,39.3769336 22.5,38.1169336 22.5,36.5644336 C22.5,35.0119336 23.76,33.7519336 25.3125,33.7519336 L30.9375,33.7519336 C32.49,33.7519336 33.75,35.0119336 33.75,36.5644336 C33.75,38.1169336 32.49,39.3769336 30.9375,39.3769336 Z" id="Path"></path>
                            </g>
                            <path d="M49.606875,0.650664879 C48.965625,0.116289879 48.105,-0.114335121 47.295,0.0544148795 L2.295,8.49191488 C0.961875,8.73941488 0,9.89816488 0,11.2537899 L0,73.1287899 C0,74.4787899 0.961875,75.6431649 2.295,75.8906649 L47.295,84.3281649 C47.46375,84.3619149 47.638125,84.3787899 47.8125,84.3787899 C48.465,84.3787899 49.100625,84.1537899 49.606875,83.7319149 C50.25375,83.1975399 50.625,82.3987899 50.625,81.5662899 L50.625,2.81628988 C50.625,1.97816488 50.25375,1.18503988 49.606875,0.650664879 Z" id="Path" fill="#74B677"></path>
                            <path d="M38.6775,51.5906649 L29.784375,41.4262899 L38.77875,29.8612899 C39.735,28.6350399 39.51,26.8687899 38.289375,25.9125399 C37.06875,24.9562899 35.3025,25.1812899 34.340625,26.4019149 L26.01,37.1119149 L18.99,29.0906649 C17.960625,27.9094149 16.183125,27.8025399 15.024375,28.8262899 C13.854375,29.8500399 13.73625,31.6275399 14.76,32.7919149 L22.494375,41.6344149 L14.653125,51.7144149 C13.696875,52.9406649 13.921875,54.7069149 15.1425,55.6631649 C15.66,56.0625399 16.273125,56.2537899 16.875,56.2537899 C17.713125,56.2537899 18.54,55.8825399 19.096875,55.1681649 L26.26875,45.9431649 L34.4475,55.2862899 C35.004375,55.9275399 35.780625,56.2537899 36.5625,56.2537899 C37.220625,56.2537899 37.87875,56.0231649 38.413125,55.5562899 C39.583125,54.5325399 39.70125,52.7550399 38.6775,51.5906649 Z" id="Path" fill="#FAFAFA"></path>
                        </g>
                        <g id="Group-3">
                            <mask id="mask-2" fill="white">
                                <use xlink:href="#path-1"></use>
                            </mask>
                            <g id="Rectangle"></g>
                            <g id="Group-4" mask="url(#mask-2)">
                                <g transform="translate(87.024691, 51.839506)" id="Group-23">
                                    <g transform="translate(11.000000, 0.000000)">
                                        <path d="M22.962963,78.0700834 L9.35039715,107.219736 L1.09347443,108.253968 C1.09347443,108.253968 3.58165064,104.698609 7.15183435,105.429832 L11.6945017,89.3110653 L15.9085975,73.0545 C15.9085975,73.0545 22.6902559,69.0516644 22.962963,78.0700834" id="Fill-1" fill="#F9CFC1"></path>
                                        <g id="Group-5" transform="translate(21.869489, 74.356261)">
                                            <mask id="mask-4" fill="white">
                                                <use xlink:href="#path-3"></use>
                                            </mask>
                                            <g id="Clip-4"></g>
                                            <path d="M12.8728441,1.75983774 C12.8728441,1.75983774 14.2884432,22.317157 7.91361594,34.9912546 C7.91361594,34.9912546 -0.344560224,32.4981329 0.419585434,32.0512663 C0.419585434,32.0512663 2.976,31.0700553 4.65403299,32.3370276 C4.65403299,32.3370276 8.51181077,16.969338 6.1630277,6.98737449 C3.85052225,-2.84296061 9.18333271,0.33394709 12.8728441,1.75983774" id="Fill-3" fill="#F9CFC1" mask="url(#mask-4)"></path>
                                        </g>
                                        <path d="M19.7304554,22.7249604 L17.216059,29.7881164 C17.216059,29.7881164 20.0948188,32.0260503 19.8873341,35.4058477 C19.6415334,39.4260043 12.0282187,67.6439144 12.0282187,67.6439144 C12.0282187,67.6439144 26.8008397,76.2765786 34.813942,69.6957232 C35.221682,69.3604024 34.7987602,65.855783 34.7951455,65.3476317 C34.7712884,61.8865892 34.7279118,58.4262854 34.6570633,54.9667201 C34.6187473,53.0449035 33.3817916,49.9908253 33.1143026,48.0867349 C32.9350127,46.8104478 31.5766024,42.9284079 31.4941869,41.6329174 C31.2332044,37.5337314 31.6561262,38.653437 33.6037351,31.3753507 C34.5919984,27.9327731 33.6637394,22.521109 30.2883177,20.6495167 C26.7632467,18.6959406 22.267263,19.8607003 19.7304554,22.7249604" id="Fill-6" fill="#E4E9F6"></path>
                                        <path d="M28.9125354,13.9507066 C28.1502285,17.8510827 22.4844333,16.4973794 21.5236518,14.0347601 C19.6776328,9.29901044 21.8313217,5.66406637 21.8313217,5.66406637 C22.9061058,1.91483907 23.8833697,1.25863213 26.4484296,1.09347443 C26.4484296,1.09347443 31.1699256,2.4117868 28.9125354,13.9507066" id="Fill-8" fill="#F8C9BA"></path>
                                        <path d="M18.7399335,40.4585538 C18.7399335,40.4585538 11.6376562,55.3657439 11.1197585,56.5696517 C9.66144805,59.9523428 8.33428868,63.5038338 7.02128767,66.9824508 C5.64196594,70.6395347 4.63597765,74.9041496 6.44228552,78.6021322 C8.40508045,82.6191243 14.5989876,81.7171229 17.8524283,83.6125899 C21.3264412,85.6381891 27.69621,86.1074083 31.0532302,83.4623803 C36.705394,79.0118624 36.2299714,84.1584012 40.057198,81.0047426 C43.8866601,77.851084 39.339593,68.6912712 37.7203244,61.3421537 C35.5496253,49.5120301 31.7089855,40.8474629 31.7089855,40.8474629 C31.7089855,40.8474629 24.0835943,43.4582847 18.7399335,40.4585538" id="Fill-10" fill="#71B0CF"></path>
                                        <path d="M22.917129,19.8149546 C20.6169221,18.478214 14.6393189,28.0919815 13.0933744,27.9201885 C11.245138,27.7152167 6.38865642,18.7502809 5.99611712,17.4120657 C5.63806258,16.1903453 5.79654574,12.3976296 4.6534126,11.839487 C3.51174689,11.280607 5.10905167,13.700454 4.43549825,13.8221099 C3.76121112,13.9437658 1.06479629,8.5075892 0.489561123,8.75606221 C-0.0864077587,9.00306061 2.47060059,13.5434073 2.13309016,13.6016546 C1.79631345,13.6606393 1.38469748,13.9909536 1.05599167,14.1561107 C0.727285859,14.3212679 0.234227148,14.4038464 0.0691405253,14.7341607 C-0.0944786603,15.064475 -0.124561111,16.5081253 1.83520052,17.6118764 C3.92189543,18.7878836 10.4475862,33.4905554 11.4491117,33.8680574 C12.8218987,34.3863854 21.3271614,27.9371466 21.3271614,27.9371466 C21.3271614,27.9371466 28.7428525,23.2021505 22.917129,19.8149546" id="Fill-12" fill="#F9CFC1"></path>
                                        <g id="Group-16" transform="translate(19.682540, 0.000000)">
                                            <mask id="mask-6" fill="white">
                                                <use xlink:href="#path-5"></use>
                                            </mask>
                                            <g id="Clip-15"></g>
                                            <path d="M1.49608488,7.42142365 C1.49608488,7.42142365 2.86354299,8.41994381 4.91510604,7.17142488 C4.91510604,7.17142488 5.7352802,8.29605061 4.77828505,9.54456954 C4.77828505,9.54456954 6.12995613,8.57776014 6.4035981,10.3262766 C6.52237676,11.0777478 4.64221583,12.0416074 4.64221583,12.0416074 C4.64221583,12.0416074 1.22169114,19.0349358 1.22169114,22.9058607 C1.22169114,26.8254579 5.56087103,33.7915003 13.2581792,31.0223399 C13.2581792,31.0223399 17.0162458,29.6602522 17.1846409,25.5290041 C17.1846409,25.5290041 21.0584791,27.0164599 22.2379963,24.3719302 C26.9056969,13.9073799 17.0884151,8.29531315 17.0884151,8.29531315 C17.0884151,8.29531315 16.5426347,-0.195795496 7.78759502,0.304202043 C2.01329828,0.633846438 -0.830623677,5.54827653 1.49608488,7.42142365" id="Fill-14" fill="#656A82" mask="url(#mask-6)"></path>
                                        </g>
                                    </g>
                                </g>
                            </g>
                        </g>
                    </g>
                </g>
                <path d="M30.486,121.548 L32.026,121.548 C32.2753346,121.548 32.5173322,121.507667 32.752,121.427 C32.9866678,121.346333 33.1956658,121.212501 33.379,121.0255 C33.5623342,120.838499 33.7089995,120.594668 33.819,120.294 C33.9290005,119.993332 33.984,119.626669 33.984,119.194 C33.984,118.797998 33.9455004,118.440502 33.8685,118.1215 C33.7914996,117.802498 33.6650009,117.529334 33.489,117.302 C33.3129991,117.074666 33.0801681,116.900501 32.7905,116.7795 C32.5008319,116.658499 32.1433355,116.598 31.718,116.598 L30.486,116.598 L30.486,121.548 Z M28.759,115.146 L32.147,115.146 C32.6530025,115.146 33.1241645,115.226666 33.5605,115.388 C33.9968355,115.549334 34.3744984,115.791332 34.6935,116.114 C35.0125016,116.436668 35.2618324,116.839998 35.4415,117.324 C35.6211676,117.808002 35.711,118.37633 35.711,119.029 C35.711,119.601003 35.6376674,120.128998 35.491,120.613 C35.3443326,121.097002 35.1225015,121.514998 34.8255,121.867 C34.5284985,122.219002 34.1581689,122.495832 33.7145,122.6975 C33.2708311,122.899168 32.7483363,123 32.147,123 L28.759,123 L28.759,115.146 Z M37.9476667,120.162 C37.9476667,120.389334 37.9696664,120.611166 38.0136667,120.8275 C38.0576669,121.043834 38.1328328,121.238166 38.2391667,121.4105 C38.3455005,121.582834 38.4866658,121.720333 38.6626667,121.823 C38.8386675,121.925667 39.0586653,121.977 39.3226667,121.977 C39.586668,121.977 39.8084991,121.925667 39.9881667,121.823 C40.1678342,121.720333 40.3108328,121.582834 40.4171667,121.4105 C40.5235005,121.238166 40.5986664,121.043834 40.6426667,120.8275 C40.6866669,120.611166 40.7086667,120.389334 40.7086667,120.162 C40.7086667,119.934666 40.6866669,119.711001 40.6426667,119.491 C40.5986664,119.270999 40.5235005,119.076668 40.4171667,118.908 C40.3108328,118.739332 40.1678342,118.601834 39.9881667,118.4955 C39.8084991,118.389166 39.586668,118.336 39.3226667,118.336 C39.0586653,118.336 38.8386675,118.389166 38.6626667,118.4955 C38.4866658,118.601834 38.3455005,118.739332 38.2391667,118.908 C38.1328328,119.076668 38.0576669,119.270999 38.0136667,119.491 C37.9696664,119.711001 37.9476667,119.934666 37.9476667,120.162 Z M36.3856667,120.162 C36.3856667,119.707331 36.4553326,119.294835 36.5946667,118.9245 C36.7340007,118.554165 36.9319987,118.238835 37.1886667,117.9785 C37.4453346,117.718165 37.7533315,117.516501 38.1126667,117.3735 C38.4720018,117.230499 38.8753311,117.159 39.3226667,117.159 C39.7700022,117.159 40.1751648,117.230499 40.5381667,117.3735 C40.9011685,117.516501 41.2109987,117.718165 41.4676667,117.9785 C41.7243346,118.238835 41.9223326,118.554165 42.0616667,118.9245 C42.2010007,119.294835 42.2706667,119.707331 42.2706667,120.162 C42.2706667,120.616669 42.2010007,121.027332 42.0616667,121.394 C41.9223326,121.760669 41.7243346,122.074165 41.4676667,122.3345 C41.2109987,122.594835 40.9011685,122.794666 40.5381667,122.934 C40.1751648,123.073334 39.7700022,123.143 39.3226667,123.143 C38.8753311,123.143 38.4720018,123.073334 38.1126667,122.934 C37.7533315,122.794666 37.4453346,122.594835 37.1886667,122.3345 C36.9319987,122.074165 36.7340007,121.760669 36.5946667,121.394 C36.4553326,121.027332 36.3856667,120.616669 36.3856667,120.162 Z M49.6003333,123 L47.9943333,123 L46.9823333,119.183 L46.9603333,119.183 L45.9923333,123 L44.3753333,123 L42.5713333,117.313 L44.2213333,117.313 L45.2663333,121.174 L45.2883333,121.174 L46.2343333,117.313 L47.7523333,117.313 L48.7203333,121.163 L48.7423333,121.163 L49.7873333,117.313 L51.3933333,117.313 L49.6003333,123 Z M51.87,117.313 L53.355,117.313 L53.355,118.105 L53.388,118.105 C53.586001,117.774998 53.8426651,117.534834 54.158,117.3845 C54.4733349,117.234166 54.7959983,117.159 55.126,117.159 C55.5440021,117.159 55.886832,117.215833 56.1545,117.3295 C56.422168,117.443167 56.6329992,117.600832 56.787,117.8025 C56.9410008,118.004168 57.0491663,118.249832 57.1115,118.5395 C57.1738336,118.829168 57.205,119.149998 57.205,119.502 L57.205,123 L55.643,123 L55.643,119.788 C55.643,119.318664 55.5696674,118.968501 55.423,118.7375 C55.2763326,118.506499 55.0160019,118.391 54.642,118.391 C54.2166645,118.391 53.9086676,118.517499 53.718,118.7705 C53.5273324,119.023501 53.432,119.439664 53.432,120.019 L53.432,123 L51.87,123 L51.87,117.313 Z M58.2536667,115.146 L59.8156667,115.146 L59.8156667,123 L58.2536667,123 L58.2536667,115.146 Z M62.2503333,120.162 C62.2503333,120.389334 62.2723331,120.611166 62.3163333,120.8275 C62.3603335,121.043834 62.4354994,121.238166 62.5418333,121.4105 C62.6481672,121.582834 62.7893324,121.720333 62.9653333,121.823 C63.1413342,121.925667 63.361332,121.977 63.6253333,121.977 C63.8893346,121.977 64.1111657,121.925667 64.2908333,121.823 C64.4705009,121.720333 64.6134994,121.582834 64.7198333,121.4105 C64.8261672,121.238166 64.9013331,121.043834 64.9453333,120.8275 C64.9893335,120.611166 65.0113333,120.389334 65.0113333,120.162 C65.0113333,119.934666 64.9893335,119.711001 64.9453333,119.491 C64.9013331,119.270999 64.8261672,119.076668 64.7198333,118.908 C64.6134994,118.739332 64.4705009,118.601834 64.2908333,118.4955 C64.1111657,118.389166 63.8893346,118.336 63.6253333,118.336 C63.361332,118.336 63.1413342,118.389166 62.9653333,118.4955 C62.7893324,118.601834 62.6481672,118.739332 62.5418333,118.908 C62.4354994,119.076668 62.3603335,119.270999 62.3163333,119.491 C62.2723331,119.711001 62.2503333,119.934666 62.2503333,120.162 Z M60.6883333,120.162 C60.6883333,119.707331 60.7579993,119.294835 60.8973333,118.9245 C61.0366673,118.554165 61.2346654,118.238835 61.4913333,117.9785 C61.7480013,117.718165 62.0559982,117.516501 62.4153333,117.3735 C62.7746684,117.230499 63.1779977,117.159 63.6253333,117.159 C64.0726689,117.159 64.4778315,117.230499 64.8408333,117.3735 C65.2038351,117.516501 65.5136654,117.718165 65.7703333,117.9785 C66.0270013,118.238835 66.2249993,118.554165 66.3643333,118.9245 C66.5036673,119.294835 66.5733333,119.707331 66.5733333,120.162 C66.5733333,120.616669 66.5036673,121.027332 66.3643333,121.394 C66.2249993,121.760669 66.0270013,122.074165 65.7703333,122.3345 C65.5136654,122.594835 65.2038351,122.794666 64.8408333,122.934 C64.4778315,123.073334 64.0726689,123.143 63.6253333,123.143 C63.1779977,123.143 62.7746684,123.073334 62.4153333,122.934 C62.0559982,122.794666 61.7480013,122.594835 61.4913333,122.3345 C61.2346654,122.074165 61.0366673,121.760669 60.8973333,121.394 C60.7579993,121.027332 60.6883333,120.616669 60.6883333,120.162 Z M67.336,119.062 C67.3580001,118.695331 67.4496658,118.391001 67.611,118.149 C67.7723341,117.906999 67.9776654,117.712667 68.227,117.566 C68.4763346,117.419333 68.7568318,117.314834 69.0685,117.2525 C69.3801682,117.190166 69.6936651,117.159 70.009,117.159 C70.2950014,117.159 70.5846652,117.179166 70.878,117.2195 C71.1713348,117.259834 71.4389988,117.338666 71.681,117.456 C71.9230012,117.573334 72.1209992,117.736499 72.275,117.9455 C72.4290007,118.154501 72.506,118.431332 72.506,118.776 L72.506,121.735 C72.506,121.991668 72.5206665,122.237332 72.55,122.472 C72.5793335,122.706668 72.6306663,122.882666 72.704,123 L71.12,123 C71.0906665,122.912 71.0668334,122.822167 71.0485,122.7305 C71.0301666,122.638833 71.0173333,122.545334 71.01,122.45 C70.7606654,122.706668 70.467335,122.886333 70.13,122.989 C69.792665,123.091667 69.4480017,123.143 69.096,123.143 C68.8246653,123.143 68.5716678,123.11 68.337,123.044 C68.1023321,122.978 67.8970009,122.875334 67.721,122.736 C67.5449991,122.596666 67.4075005,122.420668 67.3085,122.208 C67.2094995,121.995332 67.16,121.742335 67.16,121.449 C67.16,121.126332 67.2168327,120.860501 67.3305,120.6515 C67.4441672,120.442499 67.5908324,120.275667 67.7705,120.151 C67.9501675,120.026333 68.1554988,119.932834 68.3865,119.8705 C68.6175011,119.808166 68.8503321,119.758667 69.085,119.722 C69.3196678,119.685333 69.5506655,119.656 69.778,119.634 C70.0053344,119.612 70.2069991,119.579 70.383,119.535 C70.5590009,119.491 70.6983328,119.426834 70.801,119.3425 C70.9036672,119.258166 70.9513333,119.135334 70.944,118.974 C70.944,118.805332 70.9165003,118.6715 70.8615,118.5725 C70.8064997,118.4735 70.7331671,118.3965 70.6415,118.3415 C70.5498329,118.2865 70.4435006,118.249833 70.3225,118.2315 C70.2014994,118.213167 70.071334,118.204 69.932,118.204 C69.6239984,118.204 69.3820009,118.269999 69.206,118.402 C69.0299991,118.534001 68.9273335,118.753998 68.898,119.062 L67.336,119.062 Z M70.944,120.217 C70.8779996,120.275667 70.7955005,120.3215 70.6965,120.3545 C70.5974995,120.3875 70.4911672,120.415 70.3775,120.437 C70.2638327,120.459 70.1446673,120.477333 70.02,120.492 C69.8953327,120.506667 69.7706673,120.525 69.646,120.547 C69.5286661,120.569 69.4131672,120.598333 69.2995,120.635 C69.1858327,120.671667 69.0868337,120.721166 69.0025,120.7835 C68.9181662,120.845834 68.8503336,120.924666 68.799,121.02 C68.7476664,121.115334 68.722,121.236333 68.722,121.383 C68.722,121.522334 68.7476664,121.639666 68.799,121.735 C68.8503336,121.830334 68.9199995,121.9055 69.008,121.9605 C69.0960004,122.0155 69.1986661,122.054 69.316,122.076 C69.4333339,122.098 69.5543327,122.109 69.679,122.109 C69.9870015,122.109 70.2253325,122.057667 70.394,121.955 C70.5626675,121.852333 70.6873329,121.729501 70.768,121.5865 C70.848667,121.443499 70.8981666,121.298667 70.9165,121.152 C70.9348334,121.005333 70.944,120.888 70.944,120.8 L70.944,120.217 Z M77.5696666,120.14 C77.5696666,119.905332 77.5476669,119.679834 77.5036666,119.4635 C77.4596664,119.247166 77.3845005,119.056501 77.2781666,118.8915 C77.1718328,118.726499 77.0343341,118.592667 76.8656666,118.49 C76.6969991,118.387333 76.4843346,118.336 76.2276666,118.336 C75.9709987,118.336 75.7546675,118.387333 75.5786666,118.49 C75.4026658,118.592667 75.2615005,118.728332 75.1551666,118.897 C75.0488328,119.065668 74.9718335,119.258166 74.9241666,119.4745 C74.8764997,119.690834 74.8526666,119.916332 74.8526666,120.151 C74.8526666,120.371001 74.878333,120.590999 74.9296666,120.811 C74.9810002,121.031001 75.0634994,121.227166 75.1771666,121.3995 C75.2908339,121.571834 75.4338324,121.711166 75.6061666,121.8175 C75.7785008,121.923834 75.9856654,121.977 76.2276666,121.977 C76.4843346,121.977 76.6988324,121.925667 76.8711666,121.823 C77.0435008,121.720333 77.1809995,121.582834 77.2836666,121.4105 C77.3863338,121.238166 77.4596664,121.042001 77.5036666,120.822 C77.5476669,120.601999 77.5696666,120.374668 77.5696666,120.14 Z M77.5916666,122.274 L77.5696666,122.274 C77.3863324,122.582002 77.1461681,122.803833 76.8491666,122.9395 C76.5521652,123.075167 76.2166685,123.143 75.8426666,123.143 C75.4173312,123.143 75.0433349,123.060501 74.7206666,122.8955 C74.3979984,122.730499 74.1321677,122.506835 73.9231666,122.2245 C73.7141656,121.942165 73.5565005,121.617669 73.4501666,121.251 C73.3438328,120.884332 73.2906666,120.503002 73.2906666,120.107 C73.2906666,119.725665 73.3438328,119.357168 73.4501666,119.0015 C73.5565005,118.645832 73.7141656,118.332335 73.9231666,118.061 C74.1321677,117.789665 74.3943317,117.571501 74.7096666,117.4065 C75.0250015,117.241499 75.3916645,117.159 75.8096666,117.159 C76.1470017,117.159 76.4678318,117.230499 76.7721666,117.3735 C77.0765015,117.516501 77.3166658,117.727332 77.4926666,118.006 L77.5146666,118.006 L77.5146666,115.146 L79.0766666,115.146 L79.0766666,123 L77.5916666,123 L77.5916666,122.274 Z M83.011,121.306 L84.738,121.306 L84.738,123 L83.011,123 L83.011,121.306 Z M87.2716666,120.008 L85.4016666,117.313 L87.1836666,117.313 L88.1846666,118.798 L89.1746666,117.313 L90.9016666,117.313 L89.0316666,119.975 L91.1326666,123 L89.3506666,123 L88.1626666,121.207 L86.9746666,123 L85.2256666,123 L87.2716666,120.008 Z M91.5873333,115.146 L93.1493333,115.146 L93.1493333,123 L91.5873333,123 L91.5873333,115.146 Z M95.408,121.152 C95.408,121.320668 95.4428329,121.465499 95.5125,121.5865 C95.582167,121.707501 95.6719994,121.8065 95.782,121.8835 C95.8920005,121.9605 96.0184992,122.017333 96.1615,122.054 C96.3045007,122.090667 96.4529992,122.109 96.607,122.109 C96.7170005,122.109 96.8324993,122.096167 96.9535,122.0705 C97.0745006,122.044833 97.1844995,122.0045 97.2835,121.9495 C97.3825004,121.8945 97.4649996,121.821167 97.531,121.7295 C97.5970003,121.637833 97.63,121.522334 97.63,121.383 C97.63,121.148332 97.4741682,120.972334 97.1625,120.855 C96.8508317,120.737666 96.4163361,120.620334 95.859,120.503 C95.6316655,120.451666 95.4098344,120.391167 95.1935,120.3215 C94.9771655,120.251833 94.7846675,120.160167 94.616,120.0465 C94.4473324,119.932833 94.3116671,119.789834 94.209,119.6175 C94.1063328,119.445166 94.055,119.234335 94.055,118.985 C94.055,118.618331 94.1264992,118.317668 94.2695,118.083 C94.4125007,117.848332 94.6013321,117.663167 94.836,117.5275 C95.0706678,117.391833 95.3346652,117.2965 95.628,117.2415 C95.9213348,117.1865 96.2219984,117.159 96.53,117.159 C96.8380015,117.159 97.1368318,117.188333 97.4265,117.247 C97.7161681,117.305667 97.9746655,117.404666 98.202,117.544 C98.4293344,117.683334 98.6181659,117.868499 98.7685,118.0995 C98.918834,118.330501 99.0086665,118.621998 99.038,118.974 L97.553,118.974 C97.5309998,118.673332 97.4173343,118.469834 97.212,118.3635 C97.0066656,118.257166 96.764668,118.204 96.486,118.204 C96.3979995,118.204 96.3026671,118.2095 96.2,118.2205 C96.0973328,118.2315 96.0038337,118.255333 95.9195,118.292 C95.8351662,118.328667 95.7636669,118.381833 95.705,118.4515 C95.646333,118.521167 95.617,118.614666 95.617,118.732 C95.617,118.871334 95.6683328,118.985 95.771,119.073 C95.8736671,119.161 96.0074991,119.2325 96.1725,119.2875 C96.3375008,119.3425 96.5263322,119.392 96.739,119.436 C96.9516677,119.48 97.1679989,119.527666 97.388,119.579 C97.6153344,119.630334 97.8371655,119.692666 98.0535,119.766 C98.2698344,119.839334 98.4623324,119.936499 98.631,120.0575 C98.7996675,120.178501 98.9353328,120.328832 99.038,120.5085 C99.1406671,120.688168 99.192,120.909999 99.192,121.174 C99.192,121.548002 99.116834,121.861499 98.9665,122.1145 C98.8161659,122.367501 98.6200012,122.570999 98.378,122.725 C98.1359987,122.879001 97.8591682,122.987166 97.5475,123.0495 C97.2358317,123.111834 96.9186682,123.143 96.596,123.143 C96.2659983,123.143 95.9433349,123.11 95.628,123.044 C95.312665,122.978 95.0321678,122.868001 94.7865,122.714 C94.5408321,122.559999 94.3391674,122.356501 94.1815,122.1035 C94.0238325,121.850499 93.9376667,121.533335 93.923,121.152 L95.408,121.152 Z" id="Download.xls" fill="#959595" fill-rule="nonzero"></path>
            </g>
        </g>
    </g>
</svg>