<?xml version="1.0" encoding="UTF-8"?>
<svg width="25px" height="25px" viewBox="0 0 25 25" version="1.1" xmlns="http://www.w3.org/2000/svg" xmlns:xlink="http://www.w3.org/1999/xlink">
    <!-- Generator: Sketch 51.3 (57544) - http://www.bohemiancoding.com/sketch -->
    <title>icon-overseas-tw</title>
    <desc>Created with Sketch.</desc>
    <defs>
        <linearGradient x1="-2.22044605e-14%" y1="50%" x2="100%" y2="50%" id="linearGradient-1">
            <stop stop-color="#D21D30" offset="0%"></stop>
            <stop stop-color="#F74658" offset="100%"></stop>
        </linearGradient>
    </defs>
    <g id="icon-overseas-tw" stroke="none" stroke-width="1" fill="none" fill-rule="evenodd">
        <g id="icon_link_twflag">
            <g id="Group-15">
                <g>
                    <circle id="Oval-3" fill="url(#linearGradient-1)" fill-rule="nonzero" cx="12.5" cy="12.5" r="12.5"></circle>
                    <path d="M0,12.5 C0,5.59644063 5.59644063,0 12.5,0 L12.5,12.5 L-8.8817842e-16,12.5 Z" id="Combined-Shape" fill="#41479B" fill-rule="nonzero"></path>
                    <g id="Group" transform="translate(2.840909, 3.409091)" fill="#F5F5F5">
                        <path d="M2.44424892,3.85495346 C2.44424892,3.30562519 2.66718798,2.808022 3.02685766,2.44795135 L1.35922534,1.9707976 C1.26219072,1.9431307 1.19282299,2.06342156 1.26539847,2.13359123 L2.51321568,3.34010858 L0.829143613,3.76112659 C0.731708015,3.78558573 0.731708015,3.92432119 0.829143613,3.94878034 L2.51321568,4.36979835 L1.26539847,5.5763157 C1.19282299,5.64648537 1.26259168,5.76677623 1.35922534,5.73910933 L3.02685766,5.26195558 C2.66718798,4.90188493 2.44424892,4.40428173 2.44424892,3.85495346" id="Fill-5"></path>
                        <path d="M3.0276997,2.44706922 C3.38777034,2.08739954 3.88537354,1.86446048 4.43470181,1.86446048 C4.98403008,1.86446048 5.48163328,2.08739954 5.84210489,2.44706922 L6.31885768,0.779436902 C6.34652457,0.682803243 6.22663468,0.613034543 6.15646501,0.685610029 L4.9495467,1.93342724 L4.52852868,0.24935517 C4.50447051,0.151518603 4.36533408,0.151518603 4.34087494,0.24935517 L3.92025789,1.93342724 L2.71333958,0.685610029 C2.64316991,0.613034543 2.52287904,0.682803243 2.55094691,0.779436902 L3.0276997,2.44706922 Z" id="Fill-7"></path>
                        <path d="M5.84190441,5.26283771 C5.48183376,5.62250739 4.98382959,5.84544645 4.43450132,5.84544645 C3.88517306,5.84544645 3.38797083,5.62250739 3.02749921,5.26283771 L2.55074643,6.93047003 C2.52307953,7.02750466 2.64296942,7.09687239 2.71313909,7.0242969 L3.92005741,5.77647969 L4.34107542,7.46055176 C4.36513359,7.55838833 4.50427002,7.55838833 4.52872917,7.46055176 L4.94934621,5.77647969 L6.15626453,7.0242969 C6.22603323,7.09687239 6.34672506,7.02750466 6.31865719,6.93047003 L5.84190441,5.26283771 Z" id="Fill-9"></path>
                        <path d="M8.04021991,3.76116669 L6.35614784,3.34014867 L7.60436602,2.13323036 C7.67654054,2.06346166 7.60717281,1.9431708 7.51053915,1.97083769 L5.84290683,2.44799145 C6.20257651,2.80846306 6.42551557,3.30566529 6.42551557,3.85499356 C6.42551557,4.40432183 6.20257651,4.90192503 5.84290683,5.26199568 L7.51053915,5.73914943 C7.60717281,5.76681633 7.67654054,5.64652546 7.60436602,5.57635579 L6.35614784,4.36983845 L8.04021991,3.94882043 C8.13805648,3.92436129 8.13805648,3.78562583 8.04021991,3.76116669" id="Fill-11"></path>
                        <path d="M4.43462162,2.27008126 C5.31033909,2.27008126 6.01965421,2.97979735 6.01965421,3.85511385 C6.01965421,4.73043036 5.31033909,5.43974547 4.43462162,5.43974547 C3.55930511,5.43974547 2.84999,4.73043036 2.84999,3.85511385 C2.84999,2.97979735 3.55930511,2.27008126 4.43462162,2.27008126" id="Fill-13"></path>
                    </g>
                </g>
            </g>
        </g>
    </g>
</svg>