<?xml version="1.0" encoding="utf-8"?>
<!-- Generator: Adobe Illustrator 24.0.0, SVG Export Plug-In . SVG Version: 6.00 Build 0)  -->
<svg version="1.1" id="圖層_1" xmlns="http://www.w3.org/2000/svg" xmlns:xlink="http://www.w3.org/1999/xlink" x="0px" y="0px"
	 viewBox="0 0 360 120" style="enable-background:new 0 0 360 120;" xml:space="preserve">
<style type="text/css">
	.st0{fill:#FFFFFF;}
</style>
<title>420x60</title>
<g id="圖層_1-2">
	<path id="Fill_1" class="st0" d="M17.3,83.2H5.8l7-47.1h17.7c5.3,0,9.1,1.4,11.5,4.1c2.4,2.7,3.1,6.5,2.3,11.4
		c-0.8,5.4-2.8,9.5-5.9,12.2c-3,2.5-7.1,3.8-12.2,3.8h-6.5L17.3,83.2z M22.9,46l-1.8,11.7H23c2,0.1,3.9-0.1,5.8-0.7
		c1.9-0.9,3.2-2.8,3.3-5c0.4-1.5,0.1-3.2-0.7-4.5C30.2,46,27.6,46,24.9,46H22.9z"/>
	<path id="Fill_4" class="st0" d="M92.5,38.3l-3,19.7h0.1c2-2.7,5.2-4.2,8.6-4.2c6.3,0,8.7,4.4,7.7,11.1l-2.4,16.2h-8.9l2-13.6
		c0.5-3.1,0.5-6.3-3-6.3s-5.1,3.2-5.6,6.3l-2,13.6h-8.8l6.4-42.8C83.6,38.3,92.5,38.3,92.5,38.3z"/>
	<path id="Fill_6" class="st0" d="M121.4,82c-3.9,0.2-7.8-1.3-10.5-4.2c-2.2-2.8-3.1-6.3-2.4-9.8c0.6-4.1,2.8-7.9,6.1-10.4
		c3.2-2.4,7.1-3.7,11.1-3.7c3.9-0.2,7.8,1.3,10.5,4.2c2.2,2.8,3.1,6.4,2.4,9.9c-0.6,4.1-2.8,7.9-6.1,10.4
		C129.3,80.8,125.4,82.1,121.4,82z M124.4,62c-3.4,0-6.2,2.6-6.6,6c-0.3,1.5,0,3.2,1,4.4c1,1,2.4,1.6,3.8,1.5c3.4,0,6.2-2.6,6.6-5.9
		c0.3-1.5-0.1-3.1-1-4.4C127.3,62.5,125.8,61.9,124.4,62z"/>
	<path id="Fill_8" class="st0" d="M151.9,58L151.9,58c2.1-2.6,5.2-4.2,8.6-4.2c3.5-0.3,6.7,1.8,7.8,5.1c2-3.1,5.5-5,9.2-5.1
		c6.3,0,7.9,4.4,7,10.5l-2.5,16.9h-8.9l1.9-12.6c0.4-2.7,1.2-7.2-2.6-7.2c-4.1,0-4.8,4.1-5.3,7.2l-1.9,12.6h-8.9l1.9-12.6
		c0.4-2.9,1.1-7.4-2.8-7.4c-3.9,0-4.6,4.5-5,7.4l-1.9,12.6h-8.9l4-26.5h8.9L151.9,58z"/>
	<path id="Fill_10" class="st0" d="M199.1,82c-4.4,0-7.8-1.3-10-3.9c-2.2-2.6-2.9-6-2.3-10.2c0.5-4,2.4-7.7,5.4-10.4
		c2.9-2.5,6.7-3.8,10.5-3.8c3.4-0.2,6.8,1.1,9.2,3.6c2.2,2.6,3,6.4,2.3,11.1l-0.1,1h-18.6c-0.4,1.6-0.1,3.2,0.9,4.5
		c1,1,2.4,1.5,3.8,1.4c1.9,0.1,3.6-0.8,4.6-2.4h8.5c-1.1,2.9-3.1,5.3-5.8,6.9C205,81.3,202.1,82.1,199.1,82z M202.3,59.9
		c-2.7-0.1-5.1,1.6-5.9,4.2h10.3C206.7,61.8,204.7,59.9,202.3,59.9L202.3,59.9L202.3,59.9z"/>
	<path id="Fill_12" class="st0" d="M73.1,36.1L73.1,36.1C72.3,36,71.5,36,70.7,36c-6.4,0.2-12.6,2.8-17.2,7.3
		c-4.7,4.3-7.7,10.1-8.7,16.4c-1,6.7,0.3,12.5,4.3,16.9c4.3,4.8,10.6,7.2,17,6.5l0,0c2.7-0.4,5.4-1,7.9-2l2.1-14
		c-2.2,2.4-5.1,4-8.3,4.6l0,0c-0.6,0.1-1.3,0.2-1.9,0.2c-6.8,0-10.7-5.1-9.6-12.2s6.4-12.4,13.1-12.4c0.7,0,1.3,0.1,2,0.2
		c2.9,0.4,5.4,2.2,6.9,4.7l2.1-14C78.1,37.2,75.6,36.5,73.1,36.1"/>
	<path id="Fill_14" class="st0" d="M141.6,46.7c-1.2,0-2.4-0.5-3.2-1.4c-0.9-1.1-1.2-2.5-1-3.9c0.4-2.9,2.8-5.2,5.8-5.3
		c1.2,0,2.4,0.5,3.2,1.4c0.9,1.1,1.3,2.5,1,3.9C147,44.3,144.6,46.6,141.6,46.7z M142.9,38c-2,0.1-3.6,1.9-3.4,3.9
		c0.1,0.8,0.3,1.5,0.8,2.1c0.4,0.5,1,0.8,1.7,0.8c1.8-0.3,3.2-1.7,3.5-3.5c0.1-0.9-0.1-1.8-0.7-2.5C144.3,38.3,143.6,38,142.9,38z"
		/>
	<path id="Fill_16" class="st0" d="M154.5,36.1h1.4l4.3,7.1l0,0l1-6.8h2l-1.5,10.3h-1.4l-4.3-7.1l0,0l-1,6.9h-2L154.5,36.1z"/>
	<path id="Fill_18" class="st0" d="M172.9,44.4h2.8l-0.3,1.7h-4.8l1.5-10.1h2L172.9,44.4z"/>
	<path id="Fill_20" class="st0" d="M184.3,46.1h-2l1.5-10.1h2L184.3,46.1z"/>
	<path id="Fill_22" class="st0" d="M193.7,36.1h1.4l4.3,7.1l0,0l1-6.8h2l-1.5,10.3h-1.4l-4.3-7.1l0,0l-1,6.9h-2L193.7,36.1z"/>
	<path id="Fill_24" class="st0" d="M213,37.8l-0.3,2.2h3.1l-0.3,1.7h-3.1l-0.4,2.7h3.3l-0.3,1.7h-5.2l1.5-10.1h5.2l-0.3,1.7
		L213,37.8z"/>
	<path id="Fill_26" class="st0" d="M267.6,44.8H255L247.5,83H237l7.5-38.2h-12.6l1.8-8.7h35.7L267.6,44.8z"/>
	<path id="Fill_28" class="st0" d="M298.7,56.8c0,0.6,0,1.3-0.1,1.9c-0.1,0.8-0.2,1.5-0.4,2.3l-4.5,22.1h-9.9l3.5-16.8
		c0.2-1.3,0.5-2.4,0.6-3.3c0.1-0.8,0.2-1.6,0.2-2.4c0.1-1.1-0.2-2.1-0.9-2.9c-1-0.7-2.1-1-3.3-0.9c-0.9,0-1.9,0.2-2.7,0.6
		c-1.2,0.5-2.3,1-3.4,1.7l-5,24H263l9.7-47h9.9l-3.5,16.8c1.7-1.3,3.6-2.5,5.5-3.4c1.7-0.8,3.6-1.3,5.5-1.2c2.4-0.1,4.7,0.7,6.4,2.3
		C298.1,52.3,298.9,54.5,298.7,56.8"/>
	<path id="Fill_30" class="st0" d="M307.9,84c-4.5,0.2-8.4-3.3-8.6-7.8c0-0.3,0-0.5,0-0.8c-0.3-4.8,2.4-9.3,6.8-11.3
		c2.4-1.1,4.9-1.9,7.5-2.3c3.1-0.5,6.3-0.8,9.4-1c0-0.2,0.1-0.4,0.1-0.6c0.1-0.3,0.1-0.6,0.1-0.9c0.1-1.3-0.6-2.5-1.8-3
		c-1.7-0.7-3.6-1-5.4-0.9c-1.8,0-3.6,0.3-5.3,0.9c-1.9,0.6-3.4,1.1-4.4,1.5h-0.9l1.4-8c1.1-0.3,2.9-0.7,5.3-1.1
		c2.4-0.4,4.8-0.6,7.2-0.6c4.8,0,8.3,0.7,10.5,2.1c2.2,1.4,3.5,3.9,3.4,6.5c0,0.5,0,1.1-0.1,1.6c-0.1,0.6-0.2,1.1-0.3,1.7L328,83.1
		h-9.7l0.7-3.6l-1,0.7l-1.2,0.9c-0.8,0.6-1.6,1.1-2.4,1.5c-0.9,0.4-1.9,0.8-2.9,1.1C310.3,83.9,309.1,84,307.9,84z M321.7,67
		c-1.8,0.2-3.4,0.4-4.9,0.6c-1.3,0.2-2.6,0.5-3.9,1c-1,0.4-1.9,1-2.5,1.9c-0.6,1-0.9,2.1-0.9,3.2c-0.1,1,0.4,2,1.2,2.5
		c1,0.5,2.2,0.8,3.4,0.7c1.1,0,2.1-0.3,3.1-0.7c1.1-0.5,2.2-1.1,3.1-1.9L321.7,67z"/>
	<path id="Fill_33" class="st0" d="M344.1,83.1h-9.9l7.1-33.9h9.9L344.1,83.1z M352.5,44.3h-10.4l1.7-8.2h10.4L352.5,44.3z"/>
</g>
</svg>
