<?xml version="1.0" encoding="utf-8"?>
<!-- Generator: Adobe Illustrator 24.0.0, SVG Export Plug-In . SVG Version: 6.00 Build 0)  -->
<svg version="1.1" xmlns="http://www.w3.org/2000/svg" xmlns:xlink="http://www.w3.org/1999/xlink" x="0px" y="0px"
	 viewBox="0 0 720 96" style="enable-background:new 0 0 720 96;" xml:space="preserve">
<style type="text/css">
	.st0{opacity:0;}
	.st1{fill:#FFFFFF;}
	.st2{fill:#C9E8F9;}
</style>
<g id="圖層_2" class="st0">
	<rect class="st1" width="720" height="96"/>
</g>
<g id="圖層_1">
	<g id="PChomeSEA_2_">
		<g id="SEA_1_">
			<path id="S_1_" class="st1" d="M492.2,17.9h36.1L531.2,0c-7.9,0.2-35.7-0.1-39.3,0c-12.8,0.2-24.3,9.6-26,21.4
				c-2.8,19.1,15.4,28.3,24.2,32.7c6,3,13,7.8,12,12.9c-0.9,4.7-3.7,10.1-16.9,10.8l-41.2,0l-10.3,18H473c5.9,0,11,0,13.2-0.2
				c25-1.3,31.7-16.3,33.5-25.1c1.8-9-0.4-21.9-21.4-32.5c-13-6.6-15.2-10-14.5-14.1C484,21.2,487.8,18,492.2,17.9z"/>
			<polygon id="E_3_" class="st1" points="545.2,79.8 549.2,54.6 589.2,54.6 597.8,38.9 551.7,38.9 555.3,16.1 610.4,16.1 619.3,0 
				538.3,0 523.1,95.9 566.4,95.9 575.3,79.8 			"/>
			<g>
				<g>
					<path class="st2" d="M598,95.9c21.9-41.9,83.1-49.5,112-54.2c-26.8-1-60.6-1.8-89.7,11.1L598,95.9"/>
				</g>
				<g>
					<path class="st1" d="M634.9,24.9l4.7,21.4c6.5-1.6,13.2-2.8,19.8-3.6L649.2,0h-21.8l-52.9,95.9H598L634.9,24.9z"/>
					<path class="st1" d="M642.3,58.4l8.3,37.5H672l-10.5-44.3C655,53.5,648.6,55.7,642.3,58.4z"/>
				</g>
			</g>
		</g>
		<g id="PChome_2_">
			<g id="PChome_3_">
				<path id="P_1_" class="st1" d="M44.8,20.1h3.9c9.1,0,16.9,0.1,15.1,12.2C62,43.9,53.6,43.9,45.2,43.9h-4L44.8,20.1z M10,96h23.5
					l4.8-31.8h13.3c20.5,0,33.5-9.9,36.9-32.6C91.8,9.6,79.8,0,60.4,0h-36L10,96z"/>
				<path class="st1" d="M146.8,0.3L146.8,0.3c-1.6-0.2-3.3-0.3-5-0.3c-12.1,0-25.1,5.6-34.9,14.8c-9.5,8.9-15.8,20.9-17.6,33.4
					c-2,13.5,0.5,25.4,8.7,34.5c7.6,8.6,18.3,13.4,30.3,13.4c1.4,0,2.8-0.1,4.2-0.2l0,0c5.2-0.6,10-2.1,16.2-4l4.3-28.4
					c-4.6,4.9-10.8,8.3-16.9,9.3l0,0c-1.3,0.2-2.5,0.4-3.8,0.4c-13.9,0-21.7-10.4-19.6-24.8c2.1-14.1,13-25.3,26.7-25.3
					c1.4,0,2.8,0.2,4.1,0.4c5.9,1,11.1,4.3,14,9.6l4.2-28.4C156.8,2.4,152,0.9,146.8,0.3z"/>
				<path id="h_1_" class="st1" d="M186,4.9l-6,40h0.2c5-5.9,10.5-8.6,17.5-8.6c12.8,0,17.7,9,15.7,22.6l-4.9,32.9h-18l4.1-27.5
					c0.9-6.3,1-12.8-6.2-12.8c-7.1,0-10.4,6.5-11.3,12.8L173,91.8h-18l13-86.9H186z"/>
				<path id="o_1_" class="st1" d="M251,52.9c7.3,0,10.7,5.6,9.7,12.1c-1,6.8-6,12.1-13.4,12.1c-7.3,0-10.8-5.2-9.7-12.1
					C238.6,58.4,243.7,52.9,251,52.9z M253.4,36.3c-16.3,0-32.1,10.4-34.8,28.7c-2.7,18.3,10.1,28.6,26.3,28.6
					c16.3,0,32.1-10.4,34.8-28.6C282.4,46.7,269.8,36.3,253.4,36.3z"/>
				<path id="m_1_" class="st1" d="M306.8,44.8h0.2c5.2-6,10.8-8.5,17.3-8.5c7.3,0,13.2,3.1,15.8,10.3c4.5-6.7,11.8-10.3,18.7-10.3
					c12.9,0,16,8.9,14.1,21.3l-5.1,34.3h-18l3.8-25.6c0.8-5.6,2.4-14.7-5.2-14.7c-8.3,0-9.8,8.3-10.8,14.7l-3.8,25.6h-18l3.8-25.6
					c0.9-6,2.3-15.1-5.8-15.1c-8,0-9.4,9.1-10.3,15.1l-3.8,25.6h-18l8-53.7h18L306.8,44.8z"/>
				<path id="e_1_" class="st1" d="M397.3,57.2c1.9-5.6,6.7-8.5,11.9-8.5c4.8,0,8.8,3.4,8.9,8.5H397.3z M433.5,66.2
					c2.7-18.3-5.7-29.9-23.3-29.9c-16.5,0-29.7,10.8-32.4,28.7c-2.8,18.6,8.3,28.6,25.1,28.6c11.6,0,23.8-5.8,28.6-18.4h-17.3
					c-2.5,3.6-5.5,4.9-9.3,4.9c-7.4,0-10.6-4.2-9.5-12h37.9L433.5,66.2z"/>
			</g>
			<g id="ONLINE_1_">
				<path id="O_1_" class="st1" d="M287.8,4c3.5,0,5.5,3.3,5,6.7c-0.5,3.1-3.7,7-7,7c-3.4,0-5.4-4-5-7C281.3,7.3,284.3,4,287.8,4z
					 M285.2,21.6c6,0,10.9-4.9,11.7-10.8C297.8,5,294.3,0,288.4,0c-6,0-10.9,5-11.7,10.8C275.8,16.6,279.2,21.6,285.2,21.6z"/>
				<path id="N_3_" class="st1" d="M314,0h2.9l8.7,14.3h0.1l2-13.8h4l-3.1,20.9h-2.9L317,7.1h0L314.9,21h-4L314,0z"/>
				<path id="L_1_" class="st1" d="M349.7,17.6h5.7l-0.5,3.5h-9.7l3-20.5h4L349.7,17.6z"/>
				<path id="I_1_" class="st1" d="M373.7,21h-4l3-20.5h4L373.7,21z"/>
				<path id="N_2_" class="st1" d="M393.2,0h2.9l8.7,14.3h0.1l2-13.8h4l-3.1,20.9h-2.9l-8.7-14.3h0L394.1,21h-4L393.2,0z"/>
				<path id="E_2_" class="st1" d="M430.9,4l-0.7,4.5h6.4L436,12h-6.4l-0.8,5.5h6.6l-0.5,3.5h-10.6l3-20.5H438L437.5,4L430.9,4
					L430.9,4z"/>
			</g>
		</g>
	</g>
	<g>
	</g>
	<g>
	</g>
	<g>
	</g>
	<g>
	</g>
	<g>
	</g>
	<g>
	</g>
	<g>
	</g>
	<g>
	</g>
	<g>
	</g>
	<g>
	</g>
	<g>
	</g>
	<g>
	</g>
	<g>
	</g>
	<g>
	</g>
	<g>
	</g>
</g>
</svg>
