<?xml version="1.0" encoding="utf-8"?>
<!-- Generator: Adobe Illustrator 22.1.0, SVG Export Plug-In . SVG Version: 6.00 Build 0)  -->
<svg version="1.1" xmlns="http://www.w3.org/2000/svg" xmlns:xlink="http://www.w3.org/1999/xlink" x="0px" y="0px"
	 viewBox="0 0 150 150" style="enable-background:new 0 0 150 150;" xml:space="preserve">
<style type="text/css">
	.st0{display:none;}
	.st1{display:inline;}
	.st2{fill:#F1F8EE;}
	.st3{fill:#324A5E;}
	.st4{fill:#E2EAED;}
	.st5{fill:#C9D6DD;}
	.st6{fill:#FFFFFD;}
	.st7{fill:#004DA0;}
	.st8{fill:#007ED3;}
	.st9{fill:#005CB9;}
	.st10{fill:#008AE5;}
	.st11{fill:#FFCF59;}
	.st12{fill:#FFC033;}
	.st13{fill:#E24B10;}
	.st14{fill:#FFFFFF;}
	.st15{fill:#F2AA0A;}
	.st16{fill:#0068B6;}
	.st17{fill:#009CE1;}
	.st18{fill:#9E9E9F;}
	.st19{fill:#D7000F;}
	.st20{fill:#F7F7F7;}
	.st21{fill:#F4A04D;}
	.st22{fill:#FFD2A6;}
	.st23{fill:#CE7B36;}
	.st24{fill:#FFB769;}
	.st25{fill:#8D9CA3;}
	.st26{fill:#FCFCFC;}
	.st27{fill:#E5E5E5;}
	.st28{fill:#EEF8FF;}
	.st29{fill:#CFCFCF;}
	.st30{fill:#DE4C3C;}
	.st31{fill:#CF4737;}
	.st32{fill:#C4C4C4;}
	.st33{fill:#2B3B4E;}
	.st34{fill:#ACB3BA;}
	.st35{fill:#AF652E;}
	.st36{fill:#8C8471;}
	.st37{fill:#DB2140;}
	.st38{fill:#1C2833;}
	.st39{fill:#FAD7A5;}
	.st40{fill:#F0C891;}
	.st41{fill:#FFE1B3;}
	.st42{fill:#53515E;}
	.st43{fill:#E9EBF2;}
	.st44{fill:#DFE2EA;}
	.st45{fill:#966D50;}
	.st46{fill:#888888;}
</style>
<g id="圖層_1" class="st0">
	<g class="st1">
		<circle class="st2" cx="75" cy="75" r="66.5"/>
	</g>
</g>
<g id="圖層_2" class="st0">
	<g class="st1">
		<g>
			<path class="st3" d="M101.6,50.1H76H51.2c-1.6,0-2.9,1.3-2.9,2.9v35.8c0,1.6,1.3,2.9,2.9,2.9H76h25.6c1.6,0,2.9-1.3,2.9-2.9V53.1
				C104.6,51.4,103.2,50.1,101.6,50.1z"/>
			<rect x="50.4" y="52.5" class="st4" width="51.9" height="34.4"/>
			<g>
				<polygon class="st5" points="100.8,72.2 100.8,69.2 84.7,85.3 87.7,85.3 				"/>
			</g>
			<g>
				<polygon class="st5" points="52,84.2 52,85.3 56.1,85.3 68.4,73 68.4,67.8 				"/>
				<polygon class="st5" points="58.2,85.3 60.1,85.3 68.4,76.9 68.4,75.1 				"/>
			</g>
			<g>
				<rect x="72.9" y="87.7" class="st5" width="7" height="0.7"/>
				<path class="st5" d="M76.6,51.3c0-0.3-0.2-0.5-0.5-0.5c-0.3,0-0.5,0.2-0.5,0.5c0,0.3,0.2,0.5,0.5,0.5
					C76.3,51.8,76.6,51.6,76.6,51.3z"/>
			</g>
			<path class="st4" d="M43.1,90.5v0.7c0,1,0.8,1.7,1.7,1.7H108c1,0,1.7-0.8,1.7-1.7v-0.7H43.1z"/>
			<path class="st5" d="M72.1,90.5c0.2,0.6,0.7,1,1.4,1h5.9c0.6,0,1.2-0.4,1.4-1H72.1z"/>
			<g>
				<g>
					<path class="st6" d="M102.4,52.5H50.4v34.4h51.9V52.5z M100.8,85.3H52V54h48.8V85.3z"/>
				</g>
				<g>
					<rect x="68.4" y="52.5" class="st6" width="1.6" height="34.4"/>
				</g>
			</g>
			<rect x="50.4" y="52.5" class="st7" width="51.9" height="3.5"/>
			<g>
				<path class="st7" d="M90.4,63.9c1.9,0,3.5-1.6,3.5-3.5h-7C86.9,62.4,88.4,63.9,90.4,63.9z"/>
				<path class="st8" d="M97.3,63.8c1.9,0,3.4-1.5,3.4-3.4h-6.8C93.9,62.3,95.4,63.8,97.3,63.8z"/>
				<path class="st7" d="M104.2,63.8c1.9,0,3.4-1.5,3.4-3.4h-6.8C100.7,62.3,102.3,63.8,104.2,63.8z"/>
				<path class="st7" d="M48.7,63.9c1.9,0,3.5-1.6,3.5-3.5h-7C45.2,62.4,46.8,63.9,48.7,63.9z"/>
				<path class="st8" d="M55.8,63.9c1.9,0,3.5-1.6,3.5-3.5h-7C52.2,62.4,53.8,63.9,55.8,63.9z"/>
				<path class="st7" d="M62.7,63.8c1.9,0,3.4-1.5,3.4-3.4h-6.8C59.3,62.3,60.8,63.8,62.7,63.8z"/>
				<path class="st8" d="M83.3,63.9c1.9,0,3.5-1.6,3.5-3.5h-7C79.8,62.4,81.4,63.9,83.3,63.9z"/>
				<path class="st8" d="M69.5,63.8c1.9,0,3.4-1.5,3.4-3.4h-6.8C66.1,62.3,67.7,63.8,69.5,63.8z"/>
				<path class="st7" d="M76.4,63.8c1.9,0,3.4-1.5,3.4-3.4H73C73,62.3,74.5,63.8,76.4,63.8z"/>
			</g>
			<polygon class="st9" points="107.6,60.5 45.2,60.5 50.4,54.8 102.4,54.8 			"/>
			<polygon class="st10" points="52.2,60.5 55.8,54.8 61.3,54.8 59.3,60.5 			"/>
			<polygon class="st10" points="66.1,60.5 67.3,54.8 72.9,54.8 73,60.5 			"/>
			<polygon class="st10" points="79.8,60.5 78.8,54.8 84.8,54.8 86.9,60.5 			"/>
			<polygon class="st10" points="93.9,60.5 90.9,54.8 96.6,54.8 100.7,60.5 			"/>
			<rect x="55.8" y="52.5" class="st8" width="5.6" height="2.3"/>
			<rect x="67.3" y="52.5" class="st8" width="5.6" height="2.3"/>
			<rect x="78.8" y="52.5" class="st8" width="6" height="2.3"/>
			<rect x="90.9" y="52.5" class="st8" width="5.8" height="2.3"/>
		</g>
		<g>
			<g>
				<path class="st11" d="M80.3,105v1.9c0,0.9-0.4,1.7-0.9,2.2s-1.4,0.9-2.2,0.9c-1.7,0-3.2-1.4-3.2-3.2V105H80.3L80.3,105z"/>
				<path class="st12" d="M77.2,106.9V105H74v1.9c0,1.7,1.4,3.2,3.2,3.2c0.6,0,1.1-0.2,1.6-0.4C77.8,109.1,77.2,108.1,77.2,106.9z"
					/>
				<path class="st11" d="M90.1,98.9L90.1,98.9l0-10.6c0-1.8-0.4-3.4-1-4.9c-2.5-6.3-9.1-7.5-9.1-7.5c-0.9-0.2-1.7-0.3-2.6-0.3
					c-3.5,0-6.7,1.4-9,3.7c-2.3,2.3-3.7,5.5-3.7,9v10.6h0l-1.2,3.7v1.5h27.9v-1.5L90.1,98.9z"/>
				<path class="st12" d="M89.1,83.4c-2.2-5.5-7.6-7.2-8.9-7.5l0,0c0,0,0,0,0,0c-0.2,0-0.3-0.1-0.3-0.1c-0.1,0-0.2,0-0.3-0.1
					c0,0,0,0,0,0c-0.1,0-0.2,0-0.3-0.1c0,0,0,0,0,0c-0.6-0.1-1.3-0.1-1.9-0.1c-3.5,0-6.7,1.4-9,3.7c-2.3,2.3-3.7,5.5-3.7,9v10.6h0
					l-1.2,3.7v1.5h5.8v-1.5l1.2-3.7h0V88.3c0-3.5,1.4-6.7,3.7-9c0.8-0.8,1.6-1.4,2.6-2c0.6-0.4,1.4,0.1,1.3,0.8c0,0.3,0,0.5,0,0.8
					c0.2,3.8,3.3,6.9,7.2,7c1.6,0.1,3.1-0.4,4.4-1.2C89.4,84.2,89.3,83.8,89.1,83.4z"/>
				<path class="st13" d="M85.4,72.4c3.4,0,6.1,2.7,6.1,6.1c0,2-1,3.8-2.5,4.9c-1,0.8-2.3,1.2-3.6,1.2c-3.4,0-6.1-2.7-6.1-6.1
					c0-1,0.2-1.9,0.6-2.7h0C80.9,73.8,83,72.4,85.4,72.4z"/>
				<path class="st14" d="M85.8,82.3c-0.4,0-0.7-0.3-0.7-0.7v-4.3l-0.3,0.3c-0.3,0.3-0.8,0.3-1,0c-0.3-0.3-0.3-0.8,0-1l1.6-1.5
					c0.2-0.2,0.5-0.3,0.8-0.1c0.3,0.1,0.4,0.4,0.4,0.7v6C86.5,81.9,86.2,82.3,85.8,82.3z"/>
			</g>
			<path class="st15" d="M92.9,104v0.4c0,0.7-0.6,1.3-1.3,1.3H80.3H74h-11c-0.7,0-1.3-0.6-1.3-1.3V104c0-0.7,0.6-1.3,1.3-1.3h0.3
				h27.9h0.3C92.3,102.6,92.9,103.2,92.9,104z"/>
		</g>
		<g>
			<path class="st9" d="M109.6,49.8c-0.3,0-0.6-0.2-0.7-0.4c-0.8-1.4-1.9-2.7-3.2-3.6c-0.4-0.3-0.5-0.8-0.2-1.2
				c0.3-0.4,0.8-0.5,1.2-0.2c1.5,1.1,2.8,2.5,3.7,4.2c0.2,0.4,0.1,0.9-0.3,1.1C109.8,49.8,109.7,49.8,109.6,49.8z"/>
			<path class="st9" d="M114,48.2c-0.3,0-0.6-0.2-0.8-0.5c-1.2-2.6-3.2-4.8-5.7-6.3c-0.4-0.2-0.5-0.8-0.3-1.1
				c0.2-0.4,0.8-0.5,1.1-0.3c2.7,1.7,4.9,4.1,6.3,7c0.2,0.4,0,0.9-0.4,1.1C114.2,48.2,114.1,48.2,114,48.2z"/>
		</g>
		<g>
			<path class="st9" d="M38.4,92.2c0.3,0,0.6,0.2,0.7,0.4c0.8,1.4,1.9,2.7,3.2,3.6c0.4,0.3,0.5,0.8,0.2,1.2
				c-0.3,0.4-0.8,0.5-1.2,0.2c-1.5-1.1-2.8-2.5-3.7-4.2c-0.2-0.4-0.1-0.9,0.3-1.1C38.2,92.2,38.3,92.2,38.4,92.2z"/>
			<path class="st9" d="M34,93.8c0.3,0,0.6,0.2,0.8,0.5c1.2,2.6,3.2,4.8,5.7,6.3c0.4,0.2,0.5,0.8,0.3,1.1c-0.2,0.4-0.8,0.5-1.1,0.3
				c-2.7-1.7-4.9-4.1-6.3-7c-0.2-0.4,0-0.9,0.4-1.1C33.8,93.8,33.9,93.8,34,93.8z"/>
		</g>
	</g>
</g>
<g id="圖層_3" class="st0">
	<g class="st1">
		<path class="st4" d="M98.4,89.6V50.3c0-1.2-1-2.2-2.2-2.2H58.4c-1.2,0-2.2,1-2.2,2.2v39.3c0,1.2,1,2.2,2.2,2.2h37.8
			C97.4,91.8,98.4,90.8,98.4,89.6z"/>
		<g>
			<path class="st14" d="M95.9,85.5V46.3c0-1.2-1-2.2-2.2-2.2H55.9c-1.2,0-2.2,1-2.2,2.2v39.3c0,1.2,1,2.2,2.2,2.2h37.8
				C94.9,87.7,95.9,86.7,95.9,85.5z"/>
		</g>
		<g>
			<path class="st16" d="M59.1,49.5h0.2c0.4,0,0.7,0,0.6,0.5c-0.1,0.5-0.4,0.5-0.8,0.5H59L59.1,49.5z M57.7,52.7h1l0.2-1.3h0.6
				c0.9,0,1.4-0.4,1.6-1.4c0.1-0.9-0.4-1.3-1.2-1.3h-1.5L57.7,52.7z"/>
			<path class="st17" d="M65.1,48.8l-0.3,1.7h0c0.2-0.2,0.4-0.4,0.7-0.4c0.5,0,0.7,0.4,0.7,1l-0.2,1.4h-0.8l0.2-1.2
				c0-0.3,0-0.5-0.3-0.5c-0.3,0-0.4,0.3-0.5,0.5l-0.2,1.2h-0.8l0.5-3.7H65.1z"/>
			<path class="st17" d="M67.9,50.8c0.3,0,0.5,0.2,0.4,0.5c0,0.3-0.3,0.5-0.6,0.5c-0.3,0-0.5-0.2-0.4-0.5
				C67.3,51.1,67.6,50.8,67.9,50.8z M68,50.1c-0.7,0-1.4,0.4-1.5,1.2c-0.1,0.8,0.4,1.2,1.1,1.2c0.7,0,1.4-0.4,1.5-1.2
				C69.2,50.6,68.7,50.1,68,50.1z"/>
			<path class="st17" d="M70.2,50.5L70.2,50.5c0.2-0.3,0.5-0.4,0.7-0.4c0.3,0,0.6,0.1,0.7,0.4c0.2-0.3,0.5-0.4,0.8-0.4
				c0.5,0,0.7,0.4,0.6,0.9l-0.2,1.4H72l0.2-1.1c0-0.2,0.1-0.6-0.2-0.6c-0.4,0-0.4,0.3-0.5,0.6l-0.2,1.1h-0.8l0.2-1.1
				c0-0.3,0.1-0.6-0.2-0.6c-0.3,0-0.4,0.4-0.4,0.6l-0.2,1.1h-0.8l0.3-2.3h0.8L70.2,50.5z"/>
			<path class="st17" d="M74,51c0.1-0.2,0.3-0.4,0.5-0.4c0.2,0,0.4,0.1,0.4,0.4H74z M75.6,51.4c0.1-0.8-0.2-1.3-1-1.3
				c-0.7,0-1.3,0.5-1.4,1.2c-0.1,0.8,0.4,1.2,1.1,1.2c0.5,0,1-0.2,1.2-0.8h-0.7c-0.1,0.2-0.2,0.2-0.4,0.2c-0.3,0-0.4-0.2-0.4-0.5
				L75.6,51.4L75.6,51.4z"/>
			<g>
				<path class="st17" d="M63.9,50l0.2-1.2c-0.2-0.1-0.4-0.2-0.6-0.2l-0.1,1C63.6,49.6,63.8,49.8,63.9,50z"/>
				<path class="st17" d="M63.7,51.3c-0.2,0.2-0.5,0.3-0.7,0.4l-0.1,1c0.2,0,0.4-0.1,0.7-0.2L63.7,51.3z"/>
			</g>
			<path class="st16" d="M62.8,52.6l0.1-1c-0.1,0-0.1,0-0.2,0c-0.6,0-0.9-0.4-0.8-1c0.1-0.6,0.5-1.1,1.1-1.1c0.1,0,0.1,0,0.2,0
				l0.1-1c-0.1,0-0.1,0-0.2,0c-0.5,0-1.1,0.2-1.5,0.6c-0.4,0.4-0.7,0.9-0.7,1.4c-0.1,0.6,0,1.1,0.4,1.5c0.3,0.4,0.8,0.6,1.3,0.6
				C62.7,52.7,62.8,52.7,62.8,52.6z"/>
		</g>
		<path class="st18" d="M69.4,48.8c0.1,0,0.2,0.1,0.2,0.3c0,0.1-0.2,0.3-0.3,0.3c-0.1,0-0.2-0.2-0.2-0.3
			C69.1,48.9,69.3,48.8,69.4,48.8z M69.3,49.5c0.3,0,0.5-0.2,0.5-0.5c0-0.2-0.1-0.5-0.4-0.5c-0.3,0-0.5,0.2-0.5,0.5
			C68.9,49.3,69.1,49.5,69.3,49.5z"/>
		<path class="st18" d="M70.5,48.6h0.1l0.4,0.6h0l0.1-0.6h0.2l-0.1,0.9H71l-0.4-0.6h0l-0.1,0.6h-0.2L70.5,48.6z"/>
		<path class="st18" d="M72,49.3h0.2l0,0.1h-0.4l0.1-0.9h0.2L72,49.3z"/>
		<path class="st18" d="M73,49.5h-0.2l0.1-0.9h0.2L73,49.5z"/>
		<path class="st18" d="M73.9,48.6H74l0.4,0.6h0l0.1-0.6h0.2l-0.1,0.9h-0.1L74,48.9h0l-0.1,0.6h-0.2L73.9,48.6z"/>
		<path class="st18" d="M75.5,48.8l0,0.2h0.3l0,0.1h-0.3l0,0.2h0.3l0,0.1h-0.4l0.1-0.9h0.4l0,0.1L75.5,48.8L75.5,48.8z"/>
		<g>
			<path class="st19" d="M79.8,49.5h-1.2L78,52.8h-1l0.7-3.3h-1.2l0.2-0.8H80L79.8,49.5z"/>
			<path class="st19" d="M82.7,50.4c0,0,0,0.1,0,0.2c0,0.1,0,0.1,0,0.2l-0.4,2h-0.9l0.3-1.5c0-0.1,0-0.2,0.1-0.3c0-0.1,0-0.2,0-0.2
				c0-0.1,0-0.2-0.1-0.3c-0.1-0.1-0.2-0.1-0.3-0.1c-0.1,0-0.2,0-0.2,0.1c-0.1,0-0.2,0.1-0.3,0.2l-0.5,2.2h-0.9l0.9-4.3h0.9L80.9,50
				c0.2-0.1,0.4-0.2,0.5-0.3c0.2-0.1,0.3-0.1,0.5-0.1c0.3,0,0.5,0.1,0.6,0.2C82.6,50,82.7,50.2,82.7,50.4z"/>
			<path class="st19" d="M84.6,52.5c-0.1,0-0.1,0.1-0.2,0.1c-0.1,0.1-0.2,0.1-0.2,0.1c-0.1,0-0.2,0.1-0.3,0.1c-0.1,0-0.2,0-0.3,0
				c-0.2,0-0.4-0.1-0.6-0.2c-0.1-0.1-0.2-0.3-0.2-0.6c0-0.2,0.1-0.5,0.2-0.6c0.1-0.2,0.3-0.3,0.5-0.4c0.2-0.1,0.4-0.2,0.7-0.2
				c0.3,0,0.6-0.1,0.9-0.1c0,0,0,0,0-0.1c0,0,0-0.1,0-0.1c0-0.1-0.1-0.2-0.2-0.3c-0.1-0.1-0.3-0.1-0.5-0.1c-0.1,0-0.3,0-0.5,0.1
				c-0.2,0.1-0.3,0.1-0.4,0.1h-0.1l0.1-0.7c0.1,0,0.3-0.1,0.5-0.1c0.2,0,0.4-0.1,0.7-0.1c0.4,0,0.8,0.1,1,0.2
				c0.2,0.1,0.3,0.3,0.3,0.6c0,0,0,0.1,0,0.1c0,0.1,0,0.1,0,0.2l-0.4,2.1h-0.9L84.6,52.5z M84.8,51.3c-0.2,0-0.3,0-0.5,0.1
				c-0.1,0-0.3,0-0.4,0.1c-0.1,0-0.2,0.1-0.2,0.2c-0.1,0.1-0.1,0.2-0.1,0.3c0,0.1,0,0.2,0.1,0.2c0.1,0,0.2,0.1,0.3,0.1
				c0.1,0,0.2,0,0.3-0.1c0.1,0,0.2-0.1,0.3-0.2L84.8,51.3z"/>
			<path class="st19" d="M87.5,49.7l-0.7,3.1H86l0.7-3.1H87.5z M87.8,48.5l-0.2,0.8h-1l0.2-0.8H87.8z"/>
		</g>
		<path class="st20" d="M91.9,81.8c0,0.5-0.4,0.9-0.9,0.9H58.2c-0.5,0-0.9-0.4-0.9-0.9c0-0.5,0.4-0.9,0.9-0.9h32.9
			C91.5,80.9,91.9,81.3,91.9,81.8z"/>
		<path class="st20" d="M91.9,79.2c0,0.5-0.4,0.9-0.9,0.9H58.2c-0.5,0-0.9-0.4-0.9-0.9c0-0.5,0.4-0.9,0.9-0.9h32.9
			C91.5,78.3,91.9,78.7,91.9,79.2z"/>
		<path class="st20" d="M91.9,76.6c0,0.5-0.4,0.9-0.9,0.9H58.2c-0.5,0-0.9-0.4-0.9-0.9c0-0.5,0.4-0.9,0.9-0.9h32.9
			C91.5,75.7,91.9,76.1,91.9,76.6z"/>
		<path class="st20" d="M91.9,74c0,0.5-0.4,0.9-0.9,0.9H58.2c-0.5,0-0.9-0.4-0.9-0.9c0-0.5,0.4-0.9,0.9-0.9h32.9
			C91.5,73.1,91.9,73.5,91.9,74z"/>
		<path class="st20" d="M91.9,71.4c0,0.5-0.4,0.9-0.9,0.9H58.2c-0.5,0-0.9-0.4-0.9-0.9c0-0.5,0.4-0.9,0.9-0.9h32.9
			C91.5,70.5,91.9,70.9,91.9,71.4z"/>
		<path class="st20" d="M91.9,68.8c0,0.5-0.4,0.9-0.9,0.9H58.2c-0.5,0-0.9-0.4-0.9-0.9s0.4-0.9,0.9-0.9h32.9
			C91.5,67.9,91.9,68.3,91.9,68.8z"/>
		<path class="st20" d="M91.9,64.5c0,0.5-0.4,0.9-0.9,0.9H58.2c-0.5,0-0.9-0.4-0.9-0.9c0-0.5,0.4-0.9,0.9-0.9h32.9
			C91.5,63.6,91.9,64,91.9,64.5z"/>
		<path class="st20" d="M91.9,61.9c0,0.5-0.4,0.9-0.9,0.9H58.2c-0.5,0-0.9-0.4-0.9-0.9c0-0.5,0.4-0.9,0.9-0.9h32.9
			C91.5,61,91.9,61.4,91.9,61.9z"/>
		<path class="st20" d="M91.9,59.3c0,0.5-0.4,0.9-0.9,0.9H58.2c-0.5,0-0.9-0.4-0.9-0.9c0-0.5,0.4-0.9,0.9-0.9h32.9
			C91.5,58.4,91.9,58.8,91.9,59.3z"/>
		<path class="st20" d="M91.9,56.7c0,0.5-0.4,0.9-0.9,0.9H58.2c-0.5,0-0.9-0.4-0.9-0.9c0-0.5,0.4-0.9,0.9-0.9h32.9
			C91.5,55.8,91.9,56.2,91.9,56.7z"/>
		<g>
			<rect x="49.2" y="71.4" class="st21" width="39.1" height="34.2"/>
			<path class="st22" d="M68.4,71.3h-5.1v7c0,0.8,0.6,1.4,1.3,1.4h8.3c0.7,0,1.3-0.6,1.3-1.4v-7H68.4z"/>
			<g>
				<rect x="72.3" y="81.2" class="st23" width="14.7" height="24.5"/>
				<rect x="75.5" y="80.7" class="st24" width="25.3" height="25.3"/>
				<path class="st22" d="M91.3,80.5H85v5c0,0.6,0.7,1,1.6,1h3.1c0.9,0,1.6-0.4,1.6-1V80.5L91.3,80.5z"/>
			</g>
		</g>
	</g>
</g>
<g id="圖層_8" class="st0">
	<g class="st1">
		<g>
			<g id="XMLID_38_">
				<rect id="XMLID_39_" x="69" y="99.9" class="st4" width="45.7" height="5.4"/>
			</g>
			<g id="XMLID_36_">
				<rect id="XMLID_37_" x="75.7" y="37.8" class="st5" width="32.2" height="67.5"/>
			</g>
			<g id="XMLID_34_">
				<rect id="XMLID_35_" x="82.6" y="37.8" class="st4" width="18.4" height="67.5"/>
			</g>
			<g id="XMLID_32_">
				<rect id="XMLID_33_" x="82.6" y="94.6" class="st25" width="18.4" height="10.7"/>
			</g>
			<g id="XMLID_25_">
				<g id="XMLID_30_">
					<rect id="XMLID_31_" x="80.3" y="47" class="st10" width="4.6" height="6.1"/>
				</g>
				<g id="XMLID_28_">
					<rect id="XMLID_29_" x="89.5" y="47" class="st10" width="4.6" height="6.1"/>
				</g>
				<g id="XMLID_26_">
					<rect id="XMLID_27_" x="98.7" y="47" class="st9" width="4.6" height="6.1"/>
				</g>
			</g>
			<g id="XMLID_18_">
				<g id="XMLID_23_">
					<rect id="XMLID_24_" x="80.3" y="57.7" class="st9" width="4.6" height="6.1"/>
				</g>
				<g id="XMLID_21_">
					<rect id="XMLID_22_" x="89.5" y="57.7" class="st9" width="4.6" height="6.1"/>
				</g>
				<g id="XMLID_19_">
					<rect id="XMLID_20_" x="98.7" y="57.7" class="st10" width="4.6" height="6.1"/>
				</g>
			</g>
			<g id="XMLID_11_">
				<g id="XMLID_16_">
					<rect id="XMLID_17_" x="80.3" y="68.5" class="st10" width="4.6" height="6.1"/>
				</g>
				<g id="XMLID_14_">
					<rect id="XMLID_15_" x="89.5" y="68.5" class="st10" width="4.6" height="6.1"/>
				</g>
				<g id="XMLID_12_">
					<rect id="XMLID_13_" x="98.7" y="68.5" class="st10" width="4.6" height="6.1"/>
				</g>
			</g>
			<g id="XMLID_4_">
				<g id="XMLID_9_">
					<rect id="XMLID_10_" x="80.3" y="79.2" class="st8" width="4.6" height="6.1"/>
				</g>
				<g id="XMLID_7_">
					<rect id="XMLID_8_" x="89.5" y="79.2" class="st8" width="4.6" height="6.1"/>
				</g>
				<g id="XMLID_5_">
					<rect id="XMLID_6_" x="98.7" y="79.2" class="st8" width="4.6" height="6.1"/>
				</g>
			</g>
			<g id="XMLID_1_">
				<g id="XMLID_2_">
					<rect id="XMLID_3_" x="89.5" y="94.6" class="st14" width="4.6" height="10.7"/>
				</g>
			</g>
		</g>
		<path class="st10" d="M48.9,109.2V91.3c0-0.5,0.4-0.8,0.8-0.8h26.1c0.5,0,1,0.3,1.1,0.8l2.7,8.2l4.2,3v6.6L48.9,109.2L48.9,109.2z
			"/>
		<g>
			<rect x="81.6" y="106.2" class="st9" width="2.4" height="1.2"/>
			<rect x="48.9" y="106.2" class="st9" width="3.6" height="1.2"/>
		</g>
		<rect x="73.7" y="101.3" class="st14" width="2.4" height="1.2"/>
		<g>
			<rect x="60.4" y="106.2" class="st6" width="11.5" height="1.2"/>
			<rect x="48.9" y="98.9" class="st6" width="2.4" height="1.2"/>
		</g>
		<path class="st14" d="M73.1,94.1v4.2c0,0.7,0.5,1.2,1.2,1.2h5.4l-2.2-6.6h-3.2C73.6,92.9,73.1,93.4,73.1,94.1z"/>
		<path class="st4" d="M73.1,98.3c0,0.7,0.5,1.2,1.2,1.2h5.4l-1.5-4.6L73.1,98.3z"/>
		<g>
			<circle class="st9" cx="56.2" cy="109.2" r="3"/>
			<circle class="st9" cx="76.7" cy="109.2" r="3"/>
		</g>
		<g>
			<circle class="st26" cx="56.2" cy="109.2" r="1.8"/>
			<circle class="st26" cx="76.7" cy="109.2" r="1.8"/>
		</g>
		<g>
			<rect x="55.6" y="108.6" class="st27" width="1.2" height="1.2"/>
			<rect x="76.1" y="108.6" class="st27" width="1.2" height="1.2"/>
		</g>
		<g>
			<rect x="52.4" y="78.1" class="st21" width="15.2" height="13.3"/>
			<path class="st22" d="M59.8,78.1h-2v2.7c0,0.3,0.2,0.5,0.5,0.5h3.2c0.3,0,0.5-0.2,0.5-0.5v-2.7H59.8z"/>
			<g>
				<rect x="61.3" y="81.9" class="st23" width="5.7" height="9.5"/>
				<rect x="62.6" y="81.7" class="st24" width="9.8" height="9.8"/>
				<path class="st22" d="M68.7,81.6h-2.4v1.9c0,0.2,0.3,0.4,0.6,0.4h1.2c0.3,0,0.6-0.2,0.6-0.4V81.6L68.7,81.6z"/>
			</g>
		</g>
		<path class="st9" d="M45.8,102.5H39c-0.4,0-0.8-0.3-0.8-0.8l0,0c0-0.4,0.3-0.8,0.8-0.8h6.8c0.4,0,0.8,0.3,0.8,0.8l0,0
			C46.5,102.2,46.2,102.5,45.8,102.5z"/>
		<path class="st9" d="M42.8,99.5H36c-0.4,0-0.8-0.3-0.8-0.8l0,0c0-0.4,0.3-0.8,0.8-0.8h6.8c0.4,0,0.8,0.3,0.8,0.8l0,0
			C43.5,99.2,43.2,99.5,42.8,99.5z"/>
	</g>
</g>
<g id="圖層_4" class="st0">
	<g class="st1">
		<g>
			<g id="XMLID_1339_">
				<rect id="XMLID_1340_" x="68.9" y="100.1" class="st4" width="46.1" height="5.4"/>
			</g>
			<g id="XMLID_1341_">
				<rect id="XMLID_1342_" x="75.7" y="37.5" class="st5" width="32.5" height="68"/>
			</g>
			<g id="XMLID_1343_">
				<rect id="XMLID_1344_" x="82.7" y="37.5" class="st4" width="18.6" height="68"/>
			</g>
			<g id="XMLID_1345_">
				<rect id="XMLID_1346_" x="82.7" y="94.7" class="st25" width="18.6" height="10.8"/>
			</g>
			<g id="XMLID_1347_">
				<g id="XMLID_1348_">
					<rect id="XMLID_1349_" x="80.4" y="46.8" class="st10" width="4.6" height="6.2"/>
				</g>
				<g id="XMLID_1350_">
					<rect id="XMLID_1351_" x="89.6" y="46.8" class="st10" width="4.6" height="6.2"/>
				</g>
				<g id="XMLID_1352_">
					<rect id="XMLID_1353_" x="98.9" y="46.8" class="st9" width="4.6" height="6.2"/>
				</g>
			</g>
			<g id="XMLID_1354_">
				<g id="XMLID_1355_">
					<rect id="XMLID_1356_" x="80.4" y="57.6" class="st9" width="4.6" height="6.2"/>
				</g>
				<g id="XMLID_1357_">
					<rect id="XMLID_1358_" x="89.6" y="57.6" class="st9" width="4.6" height="6.2"/>
				</g>
				<g id="XMLID_1359_">
					<rect id="XMLID_1360_" x="98.9" y="57.6" class="st10" width="4.6" height="6.2"/>
				</g>
			</g>
			<g id="XMLID_1361_">
				<g id="XMLID_1362_">
					<rect id="XMLID_1363_" x="80.4" y="68.4" class="st10" width="4.6" height="6.2"/>
				</g>
				<g id="XMLID_1364_">
					<rect id="XMLID_1365_" x="89.6" y="68.4" class="st10" width="4.6" height="6.2"/>
				</g>
				<g id="XMLID_1366_">
					<rect id="XMLID_1367_" x="98.9" y="68.4" class="st10" width="4.6" height="6.2"/>
				</g>
			</g>
			<g id="XMLID_1368_">
				<g id="XMLID_1369_">
					<rect id="XMLID_1370_" x="80.4" y="79.2" class="st8" width="4.6" height="6.2"/>
				</g>
				<g id="XMLID_1371_">
					<rect id="XMLID_1372_" x="89.6" y="79.2" class="st8" width="4.6" height="6.2"/>
				</g>
				<g id="XMLID_1373_">
					<rect id="XMLID_1374_" x="98.9" y="79.2" class="st8" width="4.6" height="6.2"/>
				</g>
			</g>
			<g id="XMLID_1375_">
				<g id="XMLID_1376_">
					<rect id="XMLID_1377_" x="89.6" y="94.7" class="st14" width="4.6" height="10.8"/>
				</g>
			</g>
		</g>
		<path class="st10" d="M48.7,109.5v-18c0-0.5,0.4-0.9,0.9-0.9h26.3c0.5,0,1,0.3,1.2,0.8l2.8,8.3l4.3,3v6.7L48.7,109.5L48.7,109.5z"
			/>
		<g>
			<rect x="81.6" y="106.4" class="st9" width="2.4" height="1.2"/>
			<rect x="48.7" y="106.4" class="st9" width="3.7" height="1.2"/>
		</g>
		<rect x="73.7" y="101.5" class="st14" width="2.4" height="1.2"/>
		<g>
			<rect x="60.3" y="106.4" class="st6" width="11.6" height="1.2"/>
			<rect x="48.7" y="99.1" class="st6" width="2.4" height="1.2"/>
		</g>
		<path class="st14" d="M73.1,94.2v4.3c0,0.7,0.5,1.2,1.2,1.2h5.5L77.5,93h-3.2C73.6,93,73.1,93.6,73.1,94.2z"/>
		<path class="st4" d="M73.1,98.5c0,0.7,0.5,1.2,1.2,1.2h5.5l-1.6-4.7L73.1,98.5z"/>
		<g>
			<circle class="st9" cx="56" cy="109.5" r="3"/>
			<circle class="st9" cx="76.7" cy="109.5" r="3"/>
		</g>
		<g>
			<circle class="st26" cx="56" cy="109.5" r="1.8"/>
			<circle class="st26" cx="76.7" cy="109.5" r="1.8"/>
		</g>
		<g>
			<rect x="55.4" y="108.8" class="st27" width="1.2" height="1.2"/>
			<rect x="76.1" y="108.8" class="st27" width="1.2" height="1.2"/>
		</g>
		<g>
			<rect x="52.2" y="78.1" class="st21" width="15.3" height="13.4"/>
			<path class="st22" d="M59.7,78.1h-2v2.7c0,0.3,0.2,0.5,0.5,0.5h3.2c0.3,0,0.5-0.2,0.5-0.5v-2.7H59.7z"/>
			<g>
				<rect x="61.2" y="81.9" class="st23" width="5.7" height="9.6"/>
				<rect x="62.5" y="81.7" class="st24" width="9.9" height="9.9"/>
				<path class="st22" d="M68.6,81.7h-2.4v1.9c0,0.2,0.3,0.4,0.6,0.4H68c0.3,0,0.6-0.2,0.6-0.4V81.7L68.6,81.7z"/>
			</g>
		</g>
		<path class="st9" d="M45.6,102.7h-6.9c-0.4,0-0.7-0.3-0.7-0.7v-0.1c0-0.4,0.3-0.7,0.7-0.7h6.9c0.4,0,0.7,0.3,0.7,0.7v0.1
			C46.3,102.4,46,102.7,45.6,102.7z"/>
		<path class="st9" d="M42.6,99.7h-6.9c-0.4,0-0.7-0.3-0.7-0.7v-0.1c0-0.4,0.3-0.7,0.7-0.7h6.9c0.4,0,0.7,0.3,0.7,0.7V99
			C43.3,99.4,43,99.7,42.6,99.7z"/>
	</g>
	<g class="st1">
		<circle class="st28" cx="75" cy="75" r="66.5"/>
	</g>
</g>
<g id="圖層_5" class="st0">
	<g class="st1">
		<g>
			<path class="st10" d="M87,63.5c1.2,0,2.1-0.9,2.1-2.1c0-1.2-0.9-2.1-2.1-2.1h-5.3v4.2H87z"/>
			<path class="st10" d="M87,90.9c1.2,0,2.1-0.9,2.1-2.1s-0.9-2.1-2.1-2.1h-5.3v4.2H87z"/>
			<path class="st10" d="M81.7,54c1.2,0,2.1-0.9,2.1-2.1s-0.9-2.1-2.1-2.1h-6.3V54H81.7z"/>
			<path class="st10" d="M81.7,100.4c1.2,0,2.1-0.9,2.1-2.1s-0.9-2.1-2.1-2.1h-6.3v4.2H81.7z"/>
		</g>
		<g>
			<path class="st10" d="M85.9,61.4h-4.2v2.1H87c1.2,0,2.1-0.9,2.1-2.1c0-0.8-0.4-1.5-1.1-1.8C87.9,60.6,87,61.4,85.9,61.4z"/>
			<path class="st10" d="M88,87c-0.1,1.1-1,1.8-2.1,1.8h-4.2v2.1H87c1.2,0,2.1-0.9,2.1-2.1C89.1,88.1,88.7,87.4,88,87z"/>
			<path class="st10" d="M80.6,51.9h-5.3V54h6.3c1.2,0,2.1-0.9,2.1-2.1c0-0.8-0.4-1.5-1.1-1.8C82.6,51.1,81.7,51.9,80.6,51.9z"/>
			<path class="st10" d="M82.7,96.5c-0.1,1.1-1,1.8-2.1,1.8h-5.3v2.1h6.3c1.2,0,2.1-0.9,2.1-2.1C83.8,97.6,83.4,96.9,82.7,96.5z"/>
		</g>
		<path class="st29" d="M110.5,80.4H65.9l-13.7-6.3v-4.2h51.3c0.9,0,1.8,0.3,2.5,0.8l6.2,4.6c0.7,0.5,1.1,1.4,1.1,2.2l0,0
			C113.3,79.1,112.1,80.4,110.5,80.4C110.5,80.4,110.5,80.4,110.5,80.4z"/>
		<polygon class="st30" points="56.4,59.3 52.2,59.3 52.2,69.8 60.6,69.8 		"/>
		<g>
			<rect x="99.6" y="73" class="st9" width="2.1" height="2.1"/>
			<rect x="95.4" y="73" class="st9" width="2.1" height="2.1"/>
			<rect x="91.2" y="73" class="st9" width="2.1" height="2.1"/>
			<rect x="87" y="73" class="st9" width="2.1" height="2.1"/>
			<rect x="82.7" y="73" class="st9" width="2.1" height="2.1"/>
			<rect x="78.5" y="73" class="st9" width="2.1" height="2.1"/>
			<rect x="74.3" y="73" class="st9" width="2.1" height="2.1"/>
			<rect x="70.1" y="73" class="st9" width="2.1" height="2.1"/>
		</g>
		<g>
			<polygon class="st29" points="73.2,44.5 64.8,44.5 77.5,69.8 90.1,69.8 			"/>
			<polygon class="st29" points="73.2,105.5 64.8,105.5 77.5,80.2 90.1,80.2 			"/>
		</g>
		<polygon class="st9" points="103.8,75.1 111.9,75.1 109.1,73 103.8,73 		"/>
		<polygon class="st31" points="52.2,69.8 52.2,69.8 60.6,69.8 59,65.8 		"/>
		<polygon class="st32" points="75.9,66.7 77.5,69.8 90.1,69.8 88,66.7 		"/>
		<path class="st9" d="M48,72.3h-7.4c-0.4,0-0.8-0.3-0.8-0.8v-0.1c0-0.4,0.3-0.7,0.8-0.7H48c0.4,0,0.8,0.3,0.8,0.7v0.1
			C48.8,72,48.4,72.3,48,72.3z"/>
		<path class="st9" d="M44.8,69.1h-7.4c-0.4,0-0.8-0.3-0.8-0.8v-0.1c0-0.4,0.3-0.8,0.8-0.8h7.4c0.4,0,0.8,0.3,0.8,0.8v0.1
			C45.5,68.7,45.2,69.1,44.8,69.1z"/>
	</g>
</g>
<g id="圖層_6" class="st0">
	<g class="st1">
		<rect x="46.5" y="44" class="st5" width="57" height="49.9"/>
		<rect x="44" y="40.6" class="st14" width="62" height="10.4"/>
		<rect x="55.2" y="59.3" class="st3" width="39.5" height="34.6"/>
		<g>
			<polygon class="st33" points="94.8,59.3 94.8,60.7 56.7,60.7 56.7,93.9 55.2,93.9 55.2,59.3 			"/>
			<rect x="55.2" y="62.5" class="st33" width="39.5" height="1.5"/>
			<rect x="55.2" y="66.4" class="st33" width="39.5" height="1.5"/>
			<rect x="55.2" y="70.4" class="st33" width="39.5" height="1.5"/>
			<rect x="55.2" y="74.3" class="st33" width="39.5" height="1.5"/>
			<rect x="55.2" y="78.2" class="st33" width="39.5" height="1.5"/>
			<rect x="55.2" y="82.1" class="st33" width="39.5" height="1.5"/>
			<rect x="55.2" y="86" class="st33" width="39.5" height="1.5"/>
			<rect x="55.2" y="90" class="st33" width="39.5" height="1.5"/>
		</g>
		<g>
			<polygon class="st34" points="106,51 103.5,53.4 103.5,51 			"/>
			<polygon class="st34" points="44,51 46.5,53.4 46.5,51 			"/>
		</g>
		<g>
			<polygon class="st23" points="59.5,80.4 75,74.1 75,96.9 59.5,103.2 			"/>
			<polygon class="st35" points="90.5,80.4 75,74.1 75,96.9 90.5,103.2 			"/>
			<polygon class="st21" points="90.5,103.2 75,109.4 75,86.6 90.5,80.4 			"/>
			<polygon class="st24" points="59.5,103.2 75,109.4 75,86.6 59.5,80.4 			"/>
			<polygon class="st22" points="94.5,85.5 79,91.8 75,86.6 90.5,80.4 			"/>
			<g>
				<polygon class="st21" points="55.5,85.5 71,91.8 75,86.6 59.5,80.4 				"/>
				<polygon class="st21" points="94.5,75.2 79,69 75,74.1 90.5,80.4 				"/>
			</g>
			<polygon class="st22" points="55.5,75.2 71,69 75,74.1 59.5,80.4 			"/>
		</g>
		<g>
			<path class="st10" d="M57.4,43.9c0.4-0.4,1-0.7,1.6-0.7c0.9,0,1.5,0.3,1.9,0.9c0.2,0.3,0.3,0.7,0.4,1h-1.1
				c-0.1-0.3-0.2-0.4-0.3-0.6c-0.2-0.2-0.5-0.3-0.9-0.3c-0.4,0-0.7,0.2-0.9,0.5c-0.2,0.3-0.3,0.8-0.3,1.4c0,0.6,0.1,1,0.4,1.3
				c0.2,0.3,0.5,0.4,0.9,0.4c0.4,0,0.7-0.1,0.9-0.4c0.1-0.1,0.2-0.3,0.3-0.6h1.1c-0.1,0.6-0.3,1-0.7,1.4c-0.4,0.4-0.9,0.5-1.5,0.5
				c-0.8,0-1.3-0.2-1.8-0.7c-0.4-0.5-0.6-1.2-0.6-2C56.6,45.1,56.9,44.4,57.4,43.9z"/>
			<path class="st10" d="M62.2,43.3h1.1v3.2c0,0.4,0,0.6,0.1,0.8c0.1,0.3,0.4,0.4,0.9,0.4c0.4,0,0.7-0.1,0.9-0.4
				c0.1-0.2,0.1-0.4,0.1-0.8v-3.2h1.1v3.2c0,0.6-0.1,1-0.3,1.3c-0.3,0.6-0.9,0.9-1.9,0.9c-0.9,0-1.5-0.3-1.9-0.9
				c-0.2-0.3-0.3-0.8-0.3-1.3V43.3z"/>
			<path class="st10" d="M68.3,47c0,0.2,0.1,0.4,0.2,0.5c0.2,0.2,0.5,0.3,0.9,0.3c0.3,0,0.5,0,0.6-0.1c0.3-0.1,0.5-0.3,0.5-0.6
				c0-0.2-0.1-0.3-0.2-0.4c-0.2-0.1-0.4-0.2-0.7-0.2L69,46.4c-0.6-0.1-0.9-0.3-1.2-0.4c-0.4-0.2-0.5-0.6-0.5-1.1
				c0-0.5,0.2-0.9,0.5-1.2c0.3-0.3,0.9-0.5,1.5-0.5c0.6,0,1,0.1,1.4,0.4c0.4,0.3,0.6,0.7,0.6,1.3h-1.1c0-0.3-0.2-0.5-0.4-0.7
				c-0.2-0.1-0.4-0.1-0.7-0.1c-0.3,0-0.5,0.1-0.7,0.2c-0.2,0.1-0.3,0.3-0.3,0.5c0,0.2,0.1,0.3,0.3,0.4c0.1,0.1,0.3,0.1,0.7,0.2
				l0.9,0.2c0.4,0.1,0.7,0.2,0.9,0.4c0.3,0.2,0.5,0.6,0.5,1.1c0,0.5-0.2,0.9-0.6,1.2c-0.4,0.3-0.9,0.5-1.6,0.5
				c-0.7,0-1.2-0.2-1.6-0.5c-0.4-0.3-0.6-0.7-0.6-1.3H68.3z"/>
			<path class="st10" d="M76.2,43.3v0.9h-1.6v4.3h-1.1v-4.3h-1.6v-0.9H76.2z"/>
			<path class="st10" d="M80.8,48.1c-0.4,0.4-1,0.6-1.7,0.6c-0.8,0-1.3-0.2-1.7-0.6c-0.5-0.5-0.8-1.2-0.8-2.2c0-1,0.3-1.7,0.8-2.2
				c0.4-0.4,1-0.6,1.7-0.6c0.8,0,1.3,0.2,1.7,0.6c0.5,0.5,0.8,1.2,0.8,2.2C81.6,46.9,81.3,47.6,80.8,48.1z M80.1,47.3
				c0.3-0.3,0.4-0.8,0.4-1.4c0-0.6-0.1-1.1-0.4-1.4c-0.3-0.3-0.6-0.5-1-0.5s-0.8,0.2-1,0.5c-0.3,0.3-0.4,0.8-0.4,1.4
				c0,0.6,0.1,1.1,0.4,1.4c0.3,0.3,0.6,0.5,1,0.5S79.8,47.6,80.1,47.3z"/>
			<path class="st10" d="M85.9,43.3h1.6v5.3h-1V45c0-0.1,0-0.2,0-0.4c0-0.2,0-0.3,0-0.4l-1,4.4h-1.1l-1-4.4c0,0.1,0,0.2,0,0.4
				c0,0.2,0,0.3,0,0.4v3.6h-1v-5.3H84l1,4.2L85.9,43.3z"/>
			<path class="st10" d="M89.3,47c0,0.2,0.1,0.4,0.2,0.5c0.2,0.2,0.5,0.3,0.9,0.3c0.3,0,0.5,0,0.6-0.1c0.3-0.1,0.5-0.3,0.5-0.6
				c0-0.2-0.1-0.3-0.2-0.4c-0.2-0.1-0.4-0.2-0.7-0.2l-0.6-0.1c-0.6-0.1-0.9-0.3-1.2-0.4c-0.4-0.2-0.5-0.6-0.5-1.1
				c0-0.5,0.2-0.9,0.5-1.2c0.3-0.3,0.9-0.5,1.5-0.5c0.6,0,1,0.1,1.4,0.4c0.4,0.3,0.6,0.7,0.6,1.3h-1.1c0-0.3-0.2-0.5-0.4-0.7
				c-0.2-0.1-0.4-0.1-0.7-0.1c-0.3,0-0.5,0.1-0.7,0.2c-0.2,0.1-0.3,0.3-0.3,0.5c0,0.2,0.1,0.3,0.3,0.4c0.1,0.1,0.3,0.1,0.7,0.2
				l0.9,0.2c0.4,0.1,0.7,0.2,0.9,0.4c0.3,0.2,0.5,0.6,0.5,1.1c0,0.5-0.2,0.9-0.6,1.2c-0.4,0.3-0.9,0.5-1.6,0.5
				c-0.7,0-1.2-0.2-1.6-0.5c-0.4-0.3-0.6-0.7-0.6-1.3H89.3z"/>
		</g>
	</g>
</g>
<g id="圖層_7" class="st0">
	<g class="st1">
		<polygon class="st14" points="62.5,63.7 68.4,63.7 73,67.2 73,73 67.2,73 67.2,78.9 61.4,78.9 61.4,83.5 50.3,72.4 50.3,63.7 
			45.1,63.7 45.1,57.9 57.9,57.9 		"/>
		<polygon class="st14" points="57.9,81.4 57.9,87.2 62.6,87.2 62.6,94.2 69.6,88.4 69.6,81.4 		"/>
		<polygon class="st14" points="91.9,73.9 95.4,80.9 100,80.9 93,93.7 84.9,93.7 84.9,83.2 80.2,83.2 80.2,73.9 		"/>
		<polygon class="st14" points="69,50.1 69,53.6 74.8,53.6 74.8,62.9 80.6,62.9 87.6,55.9 87.6,50.1 		"/>
		<polygon class="st14" points="96.5,69.3 98.9,75.1 108.2,75.1 108.2,53.5 102.9,53.5 100,56.4 93,56.4 86,63.4 86,69.3 		"/>
		<g>
			<rect x="44.4" y="51.9" transform="matrix(0.9913 -0.1314 0.1314 0.9913 -9.048 6.53)" class="st36" width="1" height="39.8"/>
			<g>
				
					<rect x="42.7" y="55.6" transform="matrix(0.9913 -0.1314 0.1314 0.9913 -7.1442 7.4463)" class="st7" width="20.2" height="4.5"/>
				
					<rect x="42.3" y="53.2" transform="matrix(0.9913 -0.1314 0.1314 0.9913 -6.695 7.3563)" class="st14" width="20.2" height="2.4"/>
				
					<rect x="41.9" y="50.8" transform="matrix(0.9913 -0.1314 0.1314 0.9913 -6.3821 7.2936)" class="st37" width="20.2" height="2.4"/>
				
					<rect x="43.5" y="62.5" transform="matrix(0.9913 -0.1314 0.1314 0.9913 -7.909 7.5995)" class="st37" width="20.2" height="2.4"/>
				
					<rect x="43.2" y="60.1" transform="matrix(0.9913 -0.1314 0.1314 0.9913 -7.5961 7.5368)" class="st14" width="20.2" height="2.4"/>
			</g>
		</g>
		<g>
			<path class="st10" d="M53.4,97.8V81.6c0-0.4,0.3-0.8,0.8-0.8h23.7c0.5,0,0.9,0.3,1,0.8l2.5,7.5l3.8,2.7v6L53.4,97.8L53.4,97.8z"
				/>
			<g>
				<rect x="83" y="95.1" class="st9" width="2.2" height="1.1"/>
				<rect x="53.4" y="95.1" class="st9" width="3.3" height="1.1"/>
			</g>
			<rect x="75.8" y="90.7" class="st14" width="2.2" height="1.1"/>
			<g>
				<rect x="63.8" y="95.1" class="st6" width="10.4" height="1.1"/>
				<rect x="53.4" y="88.5" class="st6" width="2.2" height="1.1"/>
			</g>
			<path class="st14" d="M75.3,84.1v3.8c0,0.6,0.5,1.1,1.1,1.1h4.9l-2-6h-2.9C75.8,83,75.3,83.5,75.3,84.1z"/>
			<path class="st4" d="M75.3,87.9c0,0.6,0.5,1.1,1.1,1.1h4.9l-1.4-4.2L75.3,87.9z"/>
			<g>
				<circle class="st9" cx="59.9" cy="97.8" r="2.7"/>
				<circle class="st9" cx="78.6" cy="97.8" r="2.7"/>
			</g>
			<g>
				<circle class="st26" cx="59.9" cy="97.8" r="1.6"/>
				<circle class="st26" cx="78.6" cy="97.8" r="1.6"/>
			</g>
			<g>
				<rect x="59.4" y="97.2" class="st27" width="1.1" height="1.1"/>
				<rect x="78" y="97.2" class="st27" width="1.1" height="1.1"/>
			</g>
			<g>
				<rect x="56.5" y="69.6" class="st21" width="13.8" height="12.1"/>
				<path class="st22" d="M63.2,69.5h-1.8V72c0,0.3,0.2,0.5,0.4,0.5h2.9c0.2,0,0.4-0.2,0.4-0.5v-2.4H63.2z"/>
				<g>
					<rect x="64.6" y="73" class="st23" width="5.2" height="8.6"/>
					<rect x="65.7" y="72.8" class="st24" width="8.9" height="8.9"/>
					<path class="st22" d="M71.3,72.8h-2.2v1.8c0,0.2,0.2,0.4,0.5,0.4h1.1c0.3,0,0.5-0.2,0.5-0.4V72.8L71.3,72.8z"/>
				</g>
			</g>
		</g>
		<path class="st13" d="M82.9,70l4.8,8.1l4.7-8.2c1.5-2.6,0.6-6-2-7.5c-0.8-0.5-1.8-0.7-2.8-0.7l0,0c-3,0-5.5,2.4-5.5,5.4
			C82.1,68.1,82.4,69.1,82.9,70z"/>
		<circle class="st14" cx="87.6" cy="67.1" r="2"/>
		<path class="st13" d="M95.1,56l2.6,4.3l2.5-4.4c0.8-1.4,0.3-3.2-1.1-4c-0.4-0.3-1-0.4-1.5-0.4l0,0c-1.6,0-2.9,1.3-3,2.9
			C94.7,55,94.8,55.5,95.1,56z"/>
		<circle class="st14" cx="97.6" cy="54.4" r="1.1"/>
	</g>
</g>
<g id="圖層_9">
	<rect x="63.1" y="32.2" class="st38" width="2.2" height="5"/>
	<path class="st39" d="M66.6,33.9c-2.3,0.2-3.9,2.2-3.7,4.4c0.2,2.2,2.2,3.9,4.5,3.7L66.6,33.9z"/>
	<path class="st39" d="M83.5,33.9c2.4,0.2,4.2,2.2,3.9,4.5c-0.2,2.2-2.3,3.9-4.7,3.6L83.5,33.9z"/>
	<path class="st10" d="M87.1,56.5l-1.3-0.3H64.9l-1.3,0.3c-3.3,0.8-5.7,3.8-5.7,7.2V83h34.8V63.7C92.7,60.2,90.4,57.3,87.1,56.5z"/>
	<path class="st39" d="M75.3,62.6c4.5,0,8.5-2.6,10.4-6.4L83,55.5c-1.8-0.4-3.1-2.1-3.1-3.9V47h-9.1v4.6c0,1.9-1.3,3.5-3.1,3.9
		l-2.8,0.6C66.8,60,70.8,62.6,75.3,62.6z"/>
	<path class="st40" d="M79.9,51.6V47h-9.1v4.6c0,0.1,0,0.3,0,0.4c1.3,0.7,2.8,1,4.4,1l0,0c1.7,0,3.3-0.4,4.7-1.2
		C79.9,51.8,79.9,51.7,79.9,51.6z"/>
	<path class="st41" d="M75.1,50.8L75.1,50.8c-5.4,0-9.8-4.4-9.8-9.8v-8.1c0-5.4,4.4-9.8,9.8-9.8l0,0c5.4,0,9.8,4.4,9.8,9.8V41
		C85,46.4,80.6,50.8,75.1,50.8z"/>
	<path class="st33" d="M64.9,26.3c-0.5,0.8-1.2,2.1-1.5,3.8c-0.3,1.5-0.3,2.7-0.2,3.6c1.2-0.3,2.1-0.7,2.8-1.1
		c0.3-0.1,1.5-0.8,2.8-2.1l0,0L64.9,26.3z"/>
	<path class="st33" d="M87.7,31.8c-0.8-3.1-2.2-6.1-4.5-8.3c-0.7-0.7-3.5-3.4-7.6-3.6c0,0-4.3-0.2-7.9,2.9c-1.1,0.9-2,2.1-2.8,3.4
		c3.4,4.9,8.6,8,14.3,8c1.4,0,4.4-0.4,5.8-1.4L87.7,31.8z"/>
	<path class="st38" d="M83.2,23.6c-0.7-0.7-3.5-3.4-7.6-3.6c0,0-1-0.1-2.5,0.3c3.1,0.7,5.1,2.7,5.7,3.3c2.3,2.2,3.7,5.1,4.5,8.3
		l-2.7,1.1c-0.9,0.6-2.4,1-3.8,1.2c0.8,0.1,1.5,0.2,2.3,0.2c1.4,0,4.4-0.4,5.8-1.4l2.7-1.1C86.9,28.7,85.5,25.8,83.2,23.6z"/>
	<g>
		<circle class="st42" cx="71.5" cy="36.8" r="1.1"/>
		<circle class="st42" cx="79" cy="36.8" r="1.1"/>
	</g>
	<path class="st43" d="M87.2,83h-24c-1,0-1.7-0.8-1.7-1.7V64.5c0-1.2,1-2.1,2.1-2.1h23.2c1.2,0,2.1,1,2.1,2.1v16.7
		C89,82.2,88.2,83,87.2,83z"/>
	<path class="st44" d="M86.8,62.4h-2.3v1.6c0,8.4-6.8,15.2-15.2,15.2h-7.8v2c0,1,0.8,1.7,1.7,1.7h24c1,0,1.7-0.8,1.7-1.7V64.5
		C89,63.4,88,62.4,86.8,62.4z"/>
	<circle class="st14" cx="75.2" cy="72.7" r="2.3"/>
	<path class="st45" d="M96.9,83.9H53.1c-0.5,0-1-0.4-1-1s0.4-1,1-1h43.7c0.5,0,1,0.4,1,1S97.4,83.9,96.9,83.9z"/>
	<path class="st13" d="M75.3,45.1c-0.9,0-1.8-0.4-2.5-1c-0.3-0.3-0.3-0.8,0-1.1c0.3-0.3,0.8-0.3,1.1,0c0.4,0.4,0.9,0.6,1.4,0.6
		c0.5,0,1-0.2,1.4-0.6c0.3-0.3,0.8-0.3,1.1,0c0.3,0.3,0.3,0.8,0,1.1C77.1,44.7,76.2,45.1,75.3,45.1z"/>
	<g>
		<path class="st46" d="M61.9,98.2v5.8h-2.6c1.4,0.2,2.7,0.6,4,1l-0.4,1c-1.3-0.5-2.7-0.9-4.1-1.2l0.4-0.8h-3.1l0.5,0.7
			c-0.9,0.6-2.3,1-4,1.3l-0.6-1c1.6-0.3,2.9-0.6,3.8-1.1h-2.4v-5.8H61.9z M62.7,94.4v3.2h-10v-3.2H62.7z M55.6,95.4h-1.8v1.2h1.8
			V95.4z M60.8,99.9v-0.7h-6.2v0.7H60.8z M60.8,101.5v-0.7h-6.2v0.7H60.8z M60.8,102.3h-6.2v0.7h6.2V102.3z M58.6,95.4h-1.9v1.2h1.9
			V95.4z M61.5,95.4h-1.8v1.2h1.8V95.4z"/>
		<path class="st46" d="M74.5,97.2v1.1h-2.9c-0.3,0.2-0.6,0.4-0.9,0.6c0.5,0.5,0.8,1,1.1,1.6c1-0.4,2-1,3-1.9l0.9,0.8
			c-0.9,0.8-1.9,1.4-3,1.8c1,1.1,2.3,2,4,2.8l-0.6,1.1c-1.5-0.8-2.7-1.8-3.7-2.9c0,0.2,0.1,0.5,0.1,0.8c0,1.1-0.2,1.8-0.4,2.2
			c-0.3,0.5-1.1,0.7-2.3,0.7h-0.4l-0.4-1.1h0.7c0.7,0,1.2-0.1,1.4-0.3c0.2-0.3,0.3-0.7,0.3-1.5c0-0.1,0-0.3,0-0.4
			c-1.4,1.1-3.2,1.9-5.5,2.6l-0.6-1.1c2.5-0.7,4.5-1.6,5.9-2.8c-0.1-0.3-0.2-0.5-0.3-0.8c-1.2,0.9-2.8,1.7-4.9,2.2l-0.6-1.1
			c2.1-0.5,3.8-1.2,5-2.1c-0.1-0.2-0.2-0.3-0.4-0.5c-0.1,0-0.1,0-0.1,0.1c-0.8,0.4-2,0.8-3.6,1.3l-0.6-1c1.2-0.2,2.3-0.6,3.4-1
			c0.3-0.1,0.6-0.3,0.9-0.4h-2.9v-1.1H74.5z M71.4,95h4.9v2.4H75v-1.3h-8.7v1.3h-1.2V95h5c-0.1-0.3-0.3-0.6-0.4-0.9l1.3-0.2
			C71.1,94.3,71.2,94.6,71.4,95z"/>
		<path class="st46" d="M89.5,94.6v1.2h-5.5v1.7c1.6,0.8,3.2,1.7,4.8,2.6l-0.7,1.1c-1.6-1.1-3-1.9-4.1-2.4v7.2h-1.2V95.8h-4.9v-1.2
			H89.5z"/>
		<path class="st46" d="M101.3,97.9v4.5h-4v0.8h5v1.1h-5v1.7H96v-1.7h-5v-1.1h5v-0.8h-4v-4.5H101.3z M96.2,94.4v2.8h-4.7v-2.8H96.2z
			 M95,95.3h-2.3v1.1H95V95.3z M96,99.7v-0.8h-2.8v0.8H96z M96,100.6h-2.8v0.8H96V100.6z M101.8,94.4v2.8h-4.7v-2.8H101.8z
			 M97.3,99.7h2.8v-0.8h-2.8V99.7z M100.1,100.6h-2.8v0.8h2.8V100.6z M100.6,95.3h-2.3v1.1h2.3V95.3z"/>
	</g>
	<g>
		<path class="st46" d="M56.1,110.6v1.2h-1.7c-0.2,0.9-0.4,1.8-0.7,2.7h2.2v2.7c1.2-1.3,2.1-2.9,2.8-4.8h-1.2v1.7h-1.1v-2.7H59
			c0.1-0.4,0.2-0.9,0.3-1.3l1.1,0.2c-0.1,0.4-0.2,0.7-0.2,1.1h3.2v2.5h-1.1v-1.4h-2.4c-0.2,0.7-0.5,1.4-0.8,2h1.2
			c-0.1-0.4-0.3-0.8-0.4-1.2l1.1-0.3c0.2,0.5,0.4,1,0.5,1.5h1.8v1.1h-1.9v1H63v1.1h-1.7v1H63v1.1h-1.7v1.1h2.2v1.1h-5.2v0.4h-1.2
			v-4.6c-0.2,0.3-0.4,0.5-0.7,0.7l-0.6-0.8v4.1h-1.1v-0.6h-1.1v0.8h-1.1v-4.8c-0.2,0.3-0.4,0.6-0.5,0.9l-0.6-1
			c0.8-1.4,1.4-3,1.7-4.8H52v-1.2H56.1z M54.8,119.7v-4.1h-1.1v4.1H54.8z M60.2,115.4h-1.6c-0.1,0.1-0.1,0.2-0.2,0.4v0.6h1.8V115.4z
			 M60.2,117.4h-1.8v1h1.8V117.4z M60.2,120.5v-1.1h-1.8v1.1H60.2z"/>
		<path class="st46" d="M67.5,111.6h1.3v1.1h-4v-1.1h1.5c-0.2-0.5-0.4-0.9-0.6-1.3l1.2-0.3C67.1,110.5,67.3,111.1,67.5,111.6z
			 M68.5,121.2h-2.3v0.6h-1.1v-4.5h3.4V121.2z M68.3,113.5v1.1h-3.1v-1.1H68.3z M68.3,115.3v1.1h-3.1v-1.1H68.3z M67.4,120.2v-1.9
			h-1.2v1.9H67.4z M70.5,117.8c-0.2,1.5-0.5,2.7-0.9,3.8l-1-0.6c0.4-1,0.7-2.2,0.9-3.4L70.5,117.8z M69.7,111.5v-1.1H76
			c0,2.8-0.2,4.5-0.5,5.1c-0.3,0.5-0.9,0.8-1.7,0.8c-0.2,0-0.5,0-0.8-0.1l-0.3-1.1c0.3,0,0.6,0.1,0.9,0.1c0.5,0,0.9-0.2,1.1-0.6
			c0.1-0.4,0.2-1.5,0.2-3.2h-1.3c-0.2,1-0.5,1.9-1,2.7c-0.6,0.9-1.4,1.7-2.6,2.4l-0.8-1c0.8-0.4,1.4-0.9,1.9-1.5
			c-0.5-0.4-1.1-0.8-1.8-1.2l0.7-0.8c0.6,0.4,1.2,0.8,1.7,1.2c0.3-0.5,0.5-1.1,0.6-1.7H69.7z M72,121.8c-0.8,0-1.1-0.4-1.1-1.2v-3.3
			H72v3c0,0.2,0.1,0.4,0.4,0.4h1.2c0.2,0,0.3-0.1,0.4-0.2c0.1-0.2,0.1-0.6,0.2-1.3l1.1,0.3c-0.1,1.1-0.2,1.7-0.4,2
			c-0.2,0.2-0.5,0.3-0.9,0.3H72z M74.2,118.7l-1,0.4c-0.3-0.8-0.7-1.5-1-2.1l1-0.3C73.6,117.3,74,118,74.2,118.7z M76.8,120.5
			l-1,0.4c-0.3-1.2-0.7-2.4-1.1-3.3l1-0.3C76.1,118.3,76.5,119.3,76.8,120.5z"/>
		<path class="st46" d="M81.7,110.4c-0.3,0.9-0.7,1.7-1.1,2.6v9h-1.2v-7.1c-0.4,0.5-0.9,1.1-1.4,1.6l-0.4-1.3
			c1.3-1.5,2.3-3.3,2.9-5.3L81.7,110.4z M86.6,112.7v-2.7h1.2v2.7h1.8v1.2h-1.8v6.6c0,0.9-0.5,1.4-1.4,1.4h-1.9l-0.3-1.2
			c0.6,0.1,1.2,0.1,1.8,0.1c0.4,0,0.6-0.2,0.6-0.6v-6.3h-4.8v-1.2H86.6z M85.4,118.1l-1.1,0.7c-0.5-0.9-1.3-2-2.2-3.1l1-0.6
			C84.1,116.3,84.8,117.3,85.4,118.1z"/>
		<path class="st46" d="M92.7,118.6c-0.3,1-0.6,1.9-1.1,2.7l-0.9-0.6c0.5-0.7,0.8-1.5,1-2.3L92.7,118.6z M93.4,111.1V110h1.2v1.1
			h2.3v1.1h-2.3v0.9h2v1h-5.4v-1h2.2v-0.9h-2.7v-1.1H93.4z M97,116.8v1.1h-2.5v4.1h-1.2v-4.1h-2.5v-1.1H97z M96.2,114.9v1.1h-4.5
			v-1.1H96.2z M96.8,120.1l-1,0.4c-0.2-0.8-0.5-1.4-0.8-2l1-0.3C96.3,118.8,96.6,119.5,96.8,120.1z M100,114c0,0.9,0,1.7-0.1,2.4
			c0.5,2,1.5,3.5,2.8,4.7l-0.8,0.9c-1-1-1.8-2.2-2.4-3.7c-0.4,1.5-1.3,2.7-2.7,3.7l-0.8-0.9c1.2-0.9,2-1.9,2.4-3.1
			c0.3-1,0.4-2.4,0.4-4.1H100z M99.1,110.2c-0.1,0.6-0.2,1.2-0.3,1.7h3.4v0.7c-0.2,1.1-0.4,2.2-0.7,3.3l-1.1-0.3
			c0.2-0.7,0.4-1.6,0.6-2.6h-2.4c-0.3,1.1-0.7,1.9-1.1,2.6l-0.9-0.7c0.8-1.2,1.2-2.8,1.5-4.9L99.1,110.2z"/>
	</g>
</g>
</svg>
