<?xml version="1.0" encoding="utf-8"?>
<!-- Generator: Adobe Illustrator 22.1.0, SVG Export Plug-In . SVG Version: 6.00 Build 0)  -->
<svg version="1.1" xmlns="http://www.w3.org/2000/svg" xmlns:xlink="http://www.w3.org/1999/xlink" x="0px" y="0px"
	 viewBox="0 0 150 150" style="enable-background:new 0 0 150 150;" xml:space="preserve">
<style type="text/css">
	.st0{fill:#E2EAED;}
	.st1{fill:#C9D6DD;}
	.st2{fill:#8D9CA3;}
	.st3{fill:#008AE5;}
	.st4{fill:#005CB9;}
	.st5{fill:#007ED3;}
	.st6{fill:#FFFFFF;}
	.st7{fill:#FFFFFD;}
	.st8{fill:#FCFCFC;}
	.st9{fill:#E5E5E5;}
	.st10{fill:#F4A04D;}
	.st11{fill:#FFD2A6;}
	.st12{fill:#CE7B36;}
	.st13{fill:#FFB769;}
	.st14{fill:#F1F8EE;}
	.st15{fill:#CFCFCF;}
	.st16{fill:#DE4C3C;}
	.st17{fill:#CF4737;}
	.st18{fill:#C4C4C4;}
	.st19{fill:#E28027;}
</style>
<g id="圖層_4">
	<g>
		<g>
			<g id="XMLID_1339_">
				<rect id="XMLID_1340_" x="68.9" y="100.1" class="st0" width="46.1" height="5.4"/>
			</g>
			<g id="XMLID_1341_">
				<rect id="XMLID_1342_" x="75.7" y="37.5" class="st1" width="32.5" height="68"/>
			</g>
			<g id="XMLID_1343_">
				<rect id="XMLID_1344_" x="82.7" y="37.5" class="st0" width="18.6" height="68"/>
			</g>
			<g id="XMLID_1345_">
				<rect id="XMLID_1346_" x="82.7" y="94.7" class="st2" width="18.6" height="10.8"/>
			</g>
			<g id="XMLID_1347_">
				<g id="XMLID_1348_">
					<rect id="XMLID_1349_" x="80.4" y="46.8" class="st3" width="4.6" height="6.2"/>
				</g>
				<g id="XMLID_1350_">
					<rect id="XMLID_1351_" x="89.6" y="46.8" class="st3" width="4.6" height="6.2"/>
				</g>
				<g id="XMLID_1352_">
					<rect id="XMLID_1353_" x="98.9" y="46.8" class="st4" width="4.6" height="6.2"/>
				</g>
			</g>
			<g id="XMLID_1354_">
				<g id="XMLID_1355_">
					<rect id="XMLID_1356_" x="80.4" y="57.6" class="st4" width="4.6" height="6.2"/>
				</g>
				<g id="XMLID_1357_">
					<rect id="XMLID_1358_" x="89.6" y="57.6" class="st4" width="4.6" height="6.2"/>
				</g>
				<g id="XMLID_1359_">
					<rect id="XMLID_1360_" x="98.9" y="57.6" class="st3" width="4.6" height="6.2"/>
				</g>
			</g>
			<g id="XMLID_1361_">
				<g id="XMLID_1362_">
					<rect id="XMLID_1363_" x="80.4" y="68.4" class="st3" width="4.6" height="6.2"/>
				</g>
				<g id="XMLID_1364_">
					<rect id="XMLID_1365_" x="89.6" y="68.4" class="st3" width="4.6" height="6.2"/>
				</g>
				<g id="XMLID_1366_">
					<rect id="XMLID_1367_" x="98.9" y="68.4" class="st3" width="4.6" height="6.2"/>
				</g>
			</g>
			<g id="XMLID_1368_">
				<g id="XMLID_1369_">
					<rect id="XMLID_1370_" x="80.4" y="79.2" class="st5" width="4.6" height="6.2"/>
				</g>
				<g id="XMLID_1371_">
					<rect id="XMLID_1372_" x="89.6" y="79.2" class="st5" width="4.6" height="6.2"/>
				</g>
				<g id="XMLID_1373_">
					<rect id="XMLID_1374_" x="98.9" y="79.2" class="st5" width="4.6" height="6.2"/>
				</g>
			</g>
			<g id="XMLID_1375_">
				<g id="XMLID_1376_">
					<rect id="XMLID_1377_" x="89.6" y="94.7" class="st6" width="4.6" height="10.8"/>
				</g>
			</g>
		</g>
		<path class="st3" d="M48.7,109.5v-18c0-0.5,0.4-0.9,0.9-0.9h26.3c0.5,0,1,0.3,1.2,0.8l2.8,8.3l4.3,3v6.7L48.7,109.5L48.7,109.5z"
			/>
		<g>
			<rect x="81.6" y="106.4" class="st4" width="2.4" height="1.2"/>
			<rect x="48.7" y="106.4" class="st4" width="3.7" height="1.2"/>
		</g>
		<rect x="73.7" y="101.5" class="st6" width="2.4" height="1.2"/>
		<g>
			<rect x="60.3" y="106.4" class="st7" width="11.6" height="1.2"/>
			<rect x="48.7" y="99.1" class="st7" width="2.4" height="1.2"/>
		</g>
		<path class="st6" d="M73.1,94.2v4.3c0,0.7,0.5,1.2,1.2,1.2h5.5L77.5,93h-3.2C73.6,93,73.1,93.6,73.1,94.2z"/>
		<path class="st0" d="M73.1,98.5c0,0.7,0.5,1.2,1.2,1.2h5.5l-1.6-4.7L73.1,98.5z"/>
		<g>
			<circle class="st4" cx="56" cy="109.5" r="3"/>
			<circle class="st4" cx="76.7" cy="109.5" r="3"/>
		</g>
		<g>
			<circle class="st8" cx="56" cy="109.5" r="1.8"/>
			<circle class="st8" cx="76.7" cy="109.5" r="1.8"/>
		</g>
		<g>
			<rect x="55.4" y="108.8" class="st9" width="1.2" height="1.2"/>
			<rect x="76.1" y="108.8" class="st9" width="1.2" height="1.2"/>
		</g>
		<g>
			<rect x="52.2" y="78.1" class="st10" width="15.3" height="13.4"/>
			<path class="st11" d="M59.7,78.1h-2v2.7c0,0.3,0.2,0.5,0.5,0.5h3.2c0.3,0,0.5-0.2,0.5-0.5v-2.7H59.7z"/>
			<g>
				<rect x="61.2" y="81.9" class="st12" width="5.7" height="9.6"/>
				<rect x="62.5" y="81.7" class="st13" width="9.9" height="9.9"/>
				<path class="st11" d="M68.6,81.7h-2.4v1.9c0,0.2,0.3,0.4,0.6,0.4H68c0.3,0,0.6-0.2,0.6-0.4V81.7L68.6,81.7z"/>
			</g>
		</g>
		<path class="st4" d="M45.6,102.7h-6.9c-0.4,0-0.7-0.3-0.7-0.7v-0.1c0-0.4,0.3-0.7,0.7-0.7h6.9c0.4,0,0.7,0.3,0.7,0.7v0.1
			C46.3,102.4,46,102.7,45.6,102.7z"/>
		<path class="st4" d="M42.6,99.7h-6.9c-0.4,0-0.7-0.3-0.7-0.7v-0.1c0-0.4,0.3-0.7,0.7-0.7h6.9c0.4,0,0.7,0.3,0.7,0.7V99
			C43.3,99.4,43,99.7,42.6,99.7z"/>
	</g>
	<g>
		<circle class="st14" cx="75" cy="75" r="66.5"/>
	</g>
</g>
<g id="圖層_5">
	<g>
		<path class="st3" d="M90.6,62.1c1.3,0,2.3-1,2.3-2.3c0-1.3-1-2.3-2.3-2.3h-5.7v4.5H90.6z"/>
		<path class="st3" d="M90.6,91.6c1.3,0,2.3-1,2.3-2.3s-1-2.3-2.3-2.3h-5.7v4.5H90.6z"/>
		<path class="st3" d="M84.9,51.8c1.3,0,2.3-1,2.3-2.3s-1-2.3-2.3-2.3h-6.8v4.5H84.9z"/>
		<path class="st3" d="M84.9,101.9c1.3,0,2.3-1,2.3-2.3c0-1.3-1-2.3-2.3-2.3h-6.8v4.5H84.9z"/>
	</g>
	<g>
		<path class="st3" d="M89.4,59.8h-4.5v2.3h5.7c1.3,0,2.3-1,2.3-2.3c0-0.8-0.4-1.6-1.2-2C91.6,59,90.6,59.8,89.4,59.8z"/>
		<path class="st3" d="M91.7,87.4c-0.1,1.1-1.1,2-2.3,2h-4.5v2.3h5.7c1.3,0,2.3-1,2.3-2.3C92.9,88.6,92.4,87.8,91.7,87.4z"/>
		<path class="st3" d="M83.8,49.6h-5.7v2.3h6.8c1.3,0,2.3-1,2.3-2.3c0-0.8-0.4-1.6-1.2-2C85.9,48.7,84.9,49.6,83.8,49.6z"/>
		<path class="st3" d="M86,97.6c-0.1,1.1-1.1,2-2.3,2h-5.7v2.3h6.8c1.3,0,2.3-1,2.3-2.3C87.2,98.8,86.7,98,86,97.6z"/>
	</g>
	<path class="st15" d="M116,80.3H67.8l-14.8-6.8v-4.5h55.3c1,0,1.9,0.3,2.7,0.9l6.7,5c0.8,0.6,1.2,1.5,1.2,2.4l0,0
		C119,78.9,117.7,80.3,116,80.3C116,80.3,116,80.3,116,80.3z"/>
	<polygon class="st16" points="57.6,57.5 53.1,57.5 53.1,68.9 62.2,68.9 	"/>
	<g>
		<rect x="104.2" y="72.3" class="st4" width="2.3" height="2.3"/>
		<rect x="99.7" y="72.3" class="st4" width="2.3" height="2.3"/>
		<rect x="95.1" y="72.3" class="st4" width="2.3" height="2.3"/>
		<rect x="90.6" y="72.3" class="st4" width="2.3" height="2.3"/>
		<rect x="86" y="72.3" class="st4" width="2.3" height="2.3"/>
		<rect x="81.5" y="72.3" class="st4" width="2.3" height="2.3"/>
		<rect x="76.9" y="72.3" class="st4" width="2.3" height="2.3"/>
		<rect x="72.4" y="72.3" class="st4" width="2.3" height="2.3"/>
	</g>
	<g>
		<polygon class="st15" points="75.8,41.6 66.7,41.6 80.3,68.9 94,68.9 		"/>
		<polygon class="st15" points="75.8,107.3 66.7,107.3 80.3,80 94,80 		"/>
	</g>
	<polygon class="st4" points="108.8,74.6 117.5,74.6 114.5,72.3 108.8,72.3 	"/>
	<polygon class="st17" points="53.1,68.8 53.1,68.9 62.2,68.9 60.4,64.5 	"/>
	<polygon class="st18" points="78.6,65.5 80.3,68.9 94,68.9 91.7,65.5 	"/>
	<path class="st4" d="M48.7,71.6h-8.1c-0.4,0-0.8-0.3-0.8-0.8v-0.2c0-0.4,0.3-0.8,0.8-0.8h8.1c0.4,0,0.8,0.3,0.8,0.8v0.2
		C49.4,71.2,49.1,71.6,48.7,71.6z"/>
	<path class="st4" d="M45.2,68.1h-8.1c-0.4,0-0.8-0.3-0.8-0.8v-0.2c0-0.4,0.3-0.8,0.8-0.8h8.1c0.4,0,0.8,0.3,0.8,0.8v0.2
		C45.9,67.7,45.6,68.1,45.2,68.1z"/>
	<rect x="40.8" y="76.8" class="st10" width="24.2" height="21.2"/>
	<path class="st11" d="M52.7,76.8h-3.1v4.3c0,0.5,0.3,0.9,0.8,0.9h5.1c0.4,0,0.8-0.4,0.8-0.9v-4.3H52.7z"/>
	<g>
		<rect x="51.9" y="82.9" class="st12" width="9.1" height="15.1"/>
		<rect x="53.8" y="82.5" class="st13" width="15.6" height="15.6"/>
		<path class="st11" d="M63.6,82.5h-3.8v3.1c0,0.3,0.4,0.6,1,0.6h1.9c0.5,0,1-0.3,1-0.6L63.6,82.5L63.6,82.5z"/>
	</g>
	<g>
		<g>
			<path class="st19" d="M63.9,88.2c-0.3-0.3-0.8-0.3-1,0l-1.5,1.6l-3.8-1.2l-0.8,0.8l3.1,1.9L58.3,93l-1-0.2l-0.7,0.7L58,94
				l0.5,1.5l0.7-0.7l-0.2-1l1.7-1.6l1.9,3.1l0.8-0.8l-1.2-3.8l1.6-1.5C64.2,89,64.2,88.5,63.9,88.2z"/>
		</g>
	</g>
</g>
</svg>
