<?xml version="1.0" encoding="UTF-8"?>
<svg width="149px" height="149px" viewBox="0 0 149 149" version="1.1" xmlns="http://www.w3.org/2000/svg" xmlns:xlink="http://www.w3.org/1999/xlink">
    <!-- Generator: Sketch 52.4 (67378) - http://www.bohemiancoding.com/sketch -->
    <title>noimage_default</title>
    <desc>Created with Sketch.</desc>
    <g id="noimage_default" stroke="none" stroke-width="1" fill="none" fill-rule="evenodd">
        <rect id="Rectangle" fill="#FAFAFA" fill-rule="nonzero" x="0" y="0" width="149" height="149"></rect>
        <g id="Group-13" transform="translate(51.000000, 49.000000)" fill="#E6E6E6">
            <path d="M17.3023237,31.5123237 L24.5270605,31.5123237 L26.3820605,19.3232974 L30.47485,19.3232974 C36.7796395,19.3232974 40.7735079,16.3339289 41.8122711,9.50819211 C42.8213763,2.87716579 39.1327447,0.000165789474 33.1582447,0.000165789474 L22.0997184,0.000165789474 L17.3023237,31.5123237 Z M28.4035868,6.05792895 L29.62085,6.05792895 C32.4226921,6.05792895 34.8120868,6.09606053 34.2566921,9.74085 C33.7208237,13.2673763 31.1387447,13.2673763 28.5214816,13.2673763 L27.3055079,13.2673763 L28.4035868,6.05792895 Z" id="Fill-7"></path>
            <path d="M22.0271395,16.5752632 C22.1120605,14.9050263 20.8270079,13.4821842 19.1569553,13.3972632 C19.0221132,13.3904474 18.8900342,13.3967105 18.7590605,13.4079474 L18.87235,14.2873684 C18.9513763,14.2820263 19.0307711,14.2788947 19.1118237,14.2831316 C20.2927974,14.3431842 21.2016921,15.3491579 21.1414553,16.5301316 C21.0814026,17.7111053 20.0754289,18.6198158 18.8944553,18.5597632 C17.9229289,18.5103947 17.1394816,17.8196053 16.9243237,16.919 L16.07935,17.1973421 C16.4077974,18.4356053 17.5014553,19.3769211 18.8493237,19.4454474 C20.5195605,19.5303684 21.9422184,18.2453158 22.0271395,16.5752632" id="Fill-9"></path>
            <path d="M15.2660237,15.7392974 C14.7673658,15.4602184 14.5896026,14.82985 14.8686816,14.3313763 C15.1477605,13.8329026 15.7781289,13.6551395 16.2766026,13.9342184 C16.7750763,14.2132974 16.9530237,14.8436658 16.6739447,15.3421395 C16.3948658,15.8406132 15.7644974,16.0185605 15.2660237,15.7392974 M18.4580237,15.5797711 L17.9792605,10.9087447 C17.8884447,10.5865605 17.6688658,10.3352974 17.3929184,10.1897711 L5.64728684,3.07335 C5.08157632,2.75650789 4.35947105,2.96024474 4.04281316,3.52595526 L0.149339474,9.77861316 C-0.167318421,10.3443237 0.0364184211,11.0662447 0.602128947,11.3830868 L12.3615763,18.5077974 C12.3636026,18.5089026 12.3656289,18.5092711 12.3674711,18.5103763 C12.6323658,18.6605079 12.9539974,18.7102447 13.2684447,18.6214553 L17.6436289,17.0344816 C18.26755,16.8583763 18.6339447,16.2036921 18.4580237,15.5797711" id="Fill-11"></path>
        </g>
        <circle id="Oval" stroke="#EFEFEF" stroke-width="2" fill-rule="nonzero" cx="73.5" cy="62.5" r="30.5"></circle>
        <text id="No-Image-Available." font-family="HelveticaNeue-Medium, Helvetica Neue" font-size="11" font-weight="400" fill="#E6E6E6">
            <tspan x="23" y="110">No Image Available.</tspan>
        </text>
    </g>
</svg>