<?xml version="1.0" encoding="UTF-8"?>
<svg width="59px" height="58px" viewBox="0 0 59 58" version="1.1" xmlns="http://www.w3.org/2000/svg" xmlns:xlink="http://www.w3.org/1999/xlink">
    <!-- Generator: Sketch 53.2 (72643) - https://sketchapp.com -->
    <title>password_verify</title>
    <desc>Created with Sketch.</desc>
    <defs>
        <circle id="path-1" cx="29" cy="29" r="29"></circle>
    </defs>
    <g id="password_verify" stroke="none" stroke-width="1" fill="none" fill-rule="evenodd">
        <g id="icon" transform="translate(0.500000, 0.000000)">
            <mask id="mask-2" fill="white">
                <use xlink:href="#path-1"></use>
            </mask>
            <use id="Oval-5" fill="#F1F8EE" fill-rule="nonzero" xlink:href="#path-1"></use>
            <g id="unlock" mask="url(#mask-2)">
                <g transform="translate(16.765625, 10.421875)">
                    <path d="M18.7091064,17.1107788 L18.7091064,18.9692993 C18.7091064,19.4896231 18.3002939,19.8985596 17.7798462,19.8985596 L15.9213257,19.8985596 C15.400878,19.8985596 14.9920654,19.4896231 14.9920654,18.9692993 L14.9920654,17.1107788 C14.9920654,14.5460205 12.8485718,12.4644775 10.2838135,12.4644775 C7.71905518,12.4644775 5.57556152,14.5460205 5.57556152,17.1107788 L5.57556152,23.6156006 L2.78778076,23.6156006 C2.26733307,23.6156006 1.85852051,23.2066641 1.85852051,22.6863403 L1.85852051,17.1107788 C1.85852051,12.501586 5.67474457,8.74743652 10.2838135,8.74743652 C14.8928824,8.74743652 18.7091064,12.501586 18.7091064,17.1107788" id="Fill-1" fill="#777786"></path>
                    <path d="M18.7091064,17.1107788 L18.7091064,18.9692993 C18.7091064,19.4896231 18.3002939,19.8985596 17.7798462,19.8985596 L15.9213257,19.8985596 C15.400878,19.8985596 14.9920654,19.4896231 14.9920654,18.9692993 L14.9920654,17.1107788 C14.9920654,14.5460205 12.8485718,12.4644775 10.2838135,12.4644775 L10.2838135,8.74743652 C14.8928824,8.74743652 18.7091064,12.501586 18.7091064,17.1107788" id="Fill-3" fill="#4E4E62"></path>
                    <path d="M19.6383667,21.7570801 L0.929260254,21.7570801 C0.408812561,21.7570801 0,22.1658926 0,22.6863403 L0,33.9613647 C0,34.4816885 0.408812561,34.890625 0.929260254,34.890625 L19.6383667,34.890625 C20.1588144,34.890625 20.567627,34.4816885 20.567627,33.9613647 L20.567627,22.6863403 C20.567627,22.1658926 20.1588144,21.7570801 19.6383667,21.7570801" id="Fill-5" fill="#FDBF00"></path>
                    <path d="M20.567627,22.6863403 L20.567627,33.9613647 C20.567627,34.4816885 20.1588144,34.890625 19.6383667,34.890625 L10.2838135,34.890625 L10.2838135,21.7570801 L19.6383667,21.7570801 C20.1588144,21.7570801 20.567627,22.1658926 20.567627,22.6863403" id="Fill-7" fill="#F9AB43"></path>
                    <path d="M11.2130737,26.4033813 L11.2130737,30.182373 C11.2130737,30.7026968 10.8042612,31.1116333 10.2838135,31.1116333 C9.76336578,31.1116333 9.35455322,30.7026968 9.35455322,30.182373 L9.35455322,26.4033813 C9.35455322,25.8829337 9.76336578,25.4741211 10.2838135,25.4741211 C10.8042612,25.4741211 11.2130737,25.8829337 11.2130737,26.4033813" id="Fill-9" fill="#777786"></path>
                    <g id="Group-15" stroke-width="1" fill="none" transform="translate(20.160522, 0.000000)">
                        <path d="M4.64630127,7.66418457 L2.78778076,7.66418457 C2.27414764,7.66418457 1.85852051,7.24855743 1.85852051,6.73492432 C1.85852051,6.2212912 2.27414764,5.80566406 2.78778076,5.80566406 L4.64630127,5.80566406 C5.15993439,5.80566406 5.57556152,6.2212912 5.57556152,6.73492432 C5.57556152,7.24855743 5.15993439,7.66418457 4.64630127,7.66418457" id="Fill-11" fill="#FFDA2D"></path>
                        <path d="M4.64630127,5.57556152 C4.12585358,5.57556152 3.71704102,5.16662506 3.71704102,4.64630127 C3.71704102,4.12585358 4.12585358,3.71704102 4.64630127,3.71704102 C5.16674896,3.71704102 5.57556152,4.12585358 5.57556152,4.64630127 C5.57556152,5.16662506 5.16674896,5.57556152 4.64630127,5.57556152 M4.64630127,0 C2.08154297,0 0,2.08154297 0,4.64630127 C0,6.89504913 1.59832764,8.77215485 3.71704102,9.19967651 L3.71704102,18.5852051 L0.929260254,18.5852051 C0.408812561,18.5852051 0,18.9940176 0,19.5144653 C0,20.0347891 0.408812561,20.4437256 0.929260254,20.4437256 L4.64630127,20.4437256 C5.16674896,20.4437256 5.57556152,20.0347891 5.57556152,19.5144653 L5.57556152,9.19967651 C7.6942749,8.77215485 9.29260254,6.89498718 9.29260254,4.64630127 C9.29260254,2.08154297 7.21105957,0 4.64630127,0" id="Fill-13" fill="#FFDA2D"></path>
                        <path d="M9.29260254,4.64630127 C9.29260254,6.89504913 7.6942749,8.77215485 5.57556152,9.19967651 L5.57556152,19.5144653 C5.57556152,20.0347891 5.16674896,20.4437256 4.64630127,20.4437256 L4.64630127,5.57556152 C5.16674896,5.57556152 5.57556152,5.16662506 5.57556152,4.64630127 C5.57556152,4.12585358 5.16674896,3.71704102 4.64630127,3.71704102 L4.64630127,0 C7.21105957,0 9.29260254,2.08154297 9.29260254,4.64630127" id="Fill-15" fill="#FDBF00"></path>
                    </g>
                    <path d="M11.2130737,26.4033813 L11.2130737,30.182373 C11.2130737,30.7026968 10.8042612,31.1116333 10.2838135,31.1116333 L10.2838135,25.4741211 C10.8042612,25.4741211 11.2130737,25.8829337 11.2130737,26.4033813" id="Fill-17" fill="#4E4E62"></path>
                    <path d="M13.0715942,26.4033813 C13.0715942,26.9237051 12.6627817,27.3326416 12.142334,27.3326416 L8.42529297,27.3326416 C7.90484528,27.3326416 7.49603271,26.9237051 7.49603271,26.4033813 C7.49603271,25.8829337 7.90484528,25.4741211 8.42529297,25.4741211 L12.142334,25.4741211 C12.6627817,25.4741211 13.0715942,25.8829337 13.0715942,26.4033813" id="Fill-19" fill="#777786"></path>
                    <path d="M13.0715942,26.4033813 C13.0715942,26.9237051 12.6627817,27.3326416 12.142334,27.3326416 L10.2838135,27.3326416 L10.2838135,25.4741211 L12.142334,25.4741211 C12.6627817,25.4741211 13.0715942,25.8829337 13.0715942,26.4033813" id="Fill-21" fill="#4E4E62"></path>
                </g>
            </g>
        </g>
    </g>
</svg>