<?xml version="1.0" encoding="UTF-8"?>
<svg width="59px" height="58px" viewBox="0 0 59 58" version="1.1" xmlns="http://www.w3.org/2000/svg" xmlns:xlink="http://www.w3.org/1999/xlink">
    <!-- Generator: Sketch 53.2 (72643) - https://sketchapp.com -->
    <title>tel-verify</title>
    <desc>Created with Sketch.</desc>
    <defs>
        <circle id="path-1" cx="29" cy="29" r="29"></circle>
    </defs>
    <g id="tel-verify" stroke="none" stroke-width="1" fill="none" fill-rule="evenodd">
        <g id="icon-tel-verify" transform="translate(0.500000, 0.000000)">
            <mask id="mask-2" fill="white">
                <use xlink:href="#path-1"></use>
            </mask>
            <use id="Oval-5" fill="#F1F8EE" fill-rule="nonzero" xlink:href="#path-1"></use>
            <g id="ringing" mask="url(#mask-2)">
                <g transform="translate(18.578125, 6.343750)">
                    <path d="M18.8469435,44.5134267 L2.45832523,44.5134267 C1.10064427,44.5134267 0,43.4173412 0,42.0652836 L0,9.42371523 C0,8.07165768 1.10064427,6.97557218 2.45832523,6.97557218 C12.4789501,6.97557218 17.9418229,6.97557218 18.8469435,6.97557218 C20.2046245,6.97557218 21.3052688,8.07165768 21.3052688,9.42371523 L21.3052688,42.0652836 C21.3052688,43.4173412 20.2047173,44.5134267 18.8469435,44.5134267 Z" id="Path" fill="#4E4E62" fill-rule="nonzero"></path>
                    <path d="M0.672914356,43.6882702 C0.255980865,43.2479726 0,42.6518234 0,41.9954913 L0,9.28042866 C0,7.92532687 1.09119947,6.82677348 2.43722996,6.82677348 C12.3718663,6.82677348 17.7878613,6.82677348 18.685215,6.82677348 C19.1494006,6.82677348 19.5832804,6.95741906 19.9525533,7.18417796 L0.672914356,43.6882702 Z" id="Combined-Shape" fill="#777786" fill-rule="nonzero"></path>
                    <path d="M18.9212387,39.5119173 L2.6272414,39.5119173 C2.17732473,39.5119173 1.8125,39.1466875 1.8125,38.6962714 L1.8125,12.5968959 C1.8125,12.1464798 2.17732473,11.78125 2.6272414,11.78125 L18.9212387,11.78125 C19.3711553,11.78125 19.7359801,12.1464798 19.7359801,12.5968959 L19.7359801,38.6963638 C19.7359801,39.1467799 19.3711553,39.5119173 18.9212387,39.5119173 Z" id="Path" fill="#B1DFF5" fill-rule="nonzero"></path>
                    <rect id="Rectangle" fill="#7CBEDD" fill-rule="evenodd" x="4.078125" y="28.546875" width="13.140625" height="1"></rect>
                    <rect id="Rectangle" fill="#7CBEDD" fill-rule="evenodd" x="4.078125" y="30.359375" width="6.796875" height="1"></rect>
                    <g id="Group-12" stroke-width="1" fill="none" fill-rule="evenodd" transform="translate(6.343750, 17.671875)">
                        <circle id="Oval" fill="#60A6C8" fill-rule="nonzero" cx="4.53125" cy="4.53125" r="4.53125"></circle>
                        <path d="M5.63838542,7.38858073 C5.46959635,7.3039974 5.36273437,7.13143229 5.36273437,6.94263021 L5.36273437,6.42984375 C5.39936198,6.38792969 5.44165365,6.3343099 5.48621094,6.2708724 C5.6644401,6.01938802 5.79886719,5.74260417 5.89251302,5.45222656 C6.06016927,5.40049479 6.18364583,5.24567708 6.18364583,5.06178385 L6.18364583,4.51463542 C6.18364583,4.39417969 6.13002604,4.2865625 6.04695312,4.21141927 L6.04695312,3.41996094 C6.04695312,3.41996094 6.20932292,2.18859375 4.54182292,2.18859375 C2.87432292,2.18859375 3.03669271,3.41996094 3.03669271,3.41996094 L3.03669271,4.21141927 C2.95324219,4.2865625 2.9,4.39417969 2.9,4.51463542 L2.9,5.06178385 C2.9,5.20602865 2.97589844,5.33290365 3.08917969,5.40615885 C3.2258724,6.00164062 3.58421875,6.42984375 3.58421875,6.42984375 L3.58421875,6.93016927 C3.58421875,7.11255208 3.48453125,7.28058594 3.32442708,7.3678125 L2.10363281,8.03352865 C2.02018229,8.07884115 1.94579427,8.13585937 1.87820312,8.19929687 C2.62472656,8.74002604 3.53928385,9.0625 4.53125,9.0625 C5.52170573,9.0625 6.4347526,8.74115885 7.18052083,8.20231771 C7.11028646,8.14001302 7.0321224,8.08563802 6.94565104,8.04221354 L5.63838542,7.38858073 Z" id="Path" fill="#FFFFFF" fill-rule="nonzero"></path>
                    </g>
                    <path d="M12.3434968,10.2085622 L8.96177196,10.2085622 C8.49488132,10.2085622 8.11629287,9.82998802 8.11629287,9.363115 L8.11629287,9.363115 C8.11629287,8.89624199 8.49488132,8.51766783 8.96177196,8.51766783 L12.3434968,8.51766783 C12.8103875,8.51766783 13.1889759,8.89624199 13.1889759,9.363115 L13.1889759,9.363115 C13.1888801,9.83008378 12.8103875,10.2085622 12.3434968,10.2085622 Z" id="Path" fill="#4E4E62" fill-rule="nonzero"></path>
                    <path d="M11.272629,43.3500914 L10.0326398,43.3500914 C9.34778369,43.3500914 8.7926506,42.7444917 8.7926506,41.9973759 L8.7926506,41.9973759 C8.7926506,41.2502601 9.34778369,40.6446604 10.0326398,40.6446604 L11.272629,40.6446604 C11.9574851,40.6446604 12.5126182,41.2502601 12.5126182,41.9973759 L12.5126182,41.9973759 C12.5126182,42.744415 11.9574851,43.3500914 11.272629,43.3500914 Z" id="Path" fill="#BCC4D5" fill-rule="nonzero"></path>
                    <path d="M5.57995135,10.2085622 L5.57995135,10.2085622 C5.11307833,10.2085622 4.73450417,9.82998802 4.73450417,9.363115 L4.73450417,9.363115 C4.73450417,8.89624199 5.11307833,8.51766783 5.57995135,8.51766783 L5.57995135,8.51766783 C6.04682436,8.51766783 6.42539852,8.89624199 6.42539852,9.363115 L6.42539852,9.363115 C6.42539852,9.83008378 6.04682436,10.2085622 5.57995135,10.2085622 Z" id="Path" fill="#BCC4D5" fill-rule="nonzero"></path>
                    <g id="Group" stroke-width="1" fill="none" fill-rule="evenodd" transform="translate(18.629181, 0.000000)">
                        <path d="M3.97448063,9.0140603 C3.66335607,9.0140603 3.41107394,8.76177817 3.41107394,8.45065361 C3.41107394,6.89732835 2.14736576,5.6337478 0.594168134,5.6337478 C0.283043574,5.6337478 0.0307614437,5.38146567 0.0307614437,5.07034111 C0.0307614437,4.75921655 0.283043574,4.50693442 0.594168134,4.50693442 C2.76872139,4.50693442 4.5378235,6.27603653 4.5378235,8.45058979 C4.5378235,8.76184199 4.28560519,9.0140603 3.97448063,9.0140603 Z" id="Path" fill="#84B96D" fill-rule="nonzero" opacity="0.9"></path>
                        <path d="M6.22797975,9.0140603 C5.91685519,9.0140603 5.66457306,8.76177817 5.66457306,8.45065361 C5.66457306,5.65480854 3.38988556,3.38024868 0.594168134,3.38024868 C0.283043574,3.38024868 0.0307614437,3.12796655 0.0307614437,2.81684199 C0.0307614437,2.50571743 0.283043574,2.2534353 0.594168134,2.2534353 C4.01130502,2.2534353 6.79132262,5.03351673 6.79132262,8.45058979 C6.79138644,8.76184199 6.53910431,9.0140603 6.22797975,9.0140603 Z" id="Path" fill="#84B96D" fill-rule="nonzero" opacity="0.6"></path>
                        <path d="M8.48154269,9.0140603 C8.17041813,9.0140603 7.918136,8.76177817 7.918136,8.45065361 C7.918136,4.41222491 4.63278829,1.12668574 0.594168134,1.12668574 C0.283043574,1.12668574 0.0307614437,0.874403609 0.0307614437,0.563279049 C0.0307614437,0.252154489 0.283043574,0 0.594168134,0 C5.25388864,0 9.04488556,3.79099692 9.04488556,8.45071743 C9.04488556,8.76184199 8.79266725,9.0140603 8.48154269,9.0140603 Z" id="Path" fill="#84B96D" fill-rule="nonzero" opacity="0.4"></path>
                    </g>
                </g>
            </g>
        </g>
    </g>
</svg>